<mxfile host="app.diagrams.net" agent="Mozilla/5.0 (Macintosh; Intel Mac OS X 10_15_7) AppleWebKit/537.36 (KHTML, like Gecko) Chrome/136.0.0.0 Safari/537.36" version="27.0.1" pages="4">
  <diagram name="architecture" id="lH3B_McvIcKVqARE5Qy0">
    <mxGraphModel dx="1954" dy="1186" grid="1" gridSize="10" guides="1" tooltips="1" connect="1" arrows="1" fold="1" page="1" pageScale="1" pageWidth="1600" pageHeight="900" math="0" shadow="0">
      <root>
        <mxCell id="0" />
        <mxCell id="1" parent="0" />
        <mxCell id="rsRDRYBC7Wn6B_ibloT0-1" value="" style="rounded=0;whiteSpace=wrap;html=1;fillColor=none;dashed=1;strokeColor=light-dark(#737373, #ededed);" parent="1" vertex="1">
          <mxGeometry x="302" y="250" width="120" height="400" as="geometry" />
        </mxCell>
        <mxCell id="rsRDRYBC7Wn6B_ibloT0-2" value="&lt;font style=&quot;font-size: 14px;&quot;&gt;Sources&lt;/font&gt;" style="text;html=1;align=center;verticalAlign=middle;resizable=0;points=[];autosize=1;fillColor=default;" parent="1" vertex="1">
          <mxGeometry x="327" y="234" width="70" height="30" as="geometry" />
        </mxCell>
        <mxCell id="rsRDRYBC7Wn6B_ibloT0-3" value="" style="rounded=0;whiteSpace=wrap;html=1;fillColor=none;dashed=1;strokeColor=light-dark(#737373, #ededed);movable=1;resizable=1;rotatable=1;deletable=1;editable=1;locked=0;connectable=1;" parent="1" vertex="1">
          <mxGeometry x="502" y="250" width="600" height="400" as="geometry" />
        </mxCell>
        <mxCell id="rsRDRYBC7Wn6B_ibloT0-4" value="&lt;font style=&quot;font-size: 14px;&quot;&gt;Data Warehouse&lt;/font&gt;" style="text;html=1;align=center;verticalAlign=middle;resizable=0;points=[];autosize=1;fillColor=default;" parent="1" vertex="1">
          <mxGeometry x="737" y="235" width="130" height="30" as="geometry" />
        </mxCell>
        <mxCell id="rsRDRYBC7Wn6B_ibloT0-6" value="" style="rounded=0;whiteSpace=wrap;html=1;fillColor=none;strokeColor=#d79b00;" parent="1" vertex="1">
          <mxGeometry x="532" y="310" width="139" height="320" as="geometry" />
        </mxCell>
        <mxCell id="rsRDRYBC7Wn6B_ibloT0-7" value="&lt;b&gt;Bronze Layer&lt;/b&gt;" style="rounded=0;whiteSpace=wrap;html=1;fillColor=#ffe6cc;strokeColor=#d79b00;" parent="1" vertex="1">
          <mxGeometry x="532" y="270" width="139" height="30" as="geometry" />
        </mxCell>
        <mxCell id="rsRDRYBC7Wn6B_ibloT0-15" value="&lt;b&gt;Silver Layer&lt;/b&gt;" style="rounded=0;whiteSpace=wrap;html=1;fillColor=#f5f5f5;strokeColor=#666666;fontColor=#333333;" parent="1" vertex="1">
          <mxGeometry x="732" y="270" width="130" height="30" as="geometry" />
        </mxCell>
        <mxCell id="rsRDRYBC7Wn6B_ibloT0-16" value="" style="rounded=0;whiteSpace=wrap;html=1;fillColor=none;strokeColor=light-dark(#bababa, #959595);fontColor=#333333;strokeWidth=1;" parent="1" vertex="1">
          <mxGeometry x="732" y="310" width="130" height="320" as="geometry" />
        </mxCell>
        <mxCell id="rsRDRYBC7Wn6B_ibloT0-17" value="&lt;b&gt;Gold Layer&lt;/b&gt;" style="rounded=0;whiteSpace=wrap;html=1;fillColor=#fff2cc;strokeColor=#d6b656;" parent="1" vertex="1">
          <mxGeometry x="941" y="270" width="120" height="30" as="geometry" />
        </mxCell>
        <mxCell id="rsRDRYBC7Wn6B_ibloT0-19" value="" style="rounded=0;whiteSpace=wrap;html=1;fillColor=none;strokeColor=#d6b656;" parent="1" vertex="1">
          <mxGeometry x="941" y="310" width="120" height="320" as="geometry" />
        </mxCell>
        <mxCell id="rsRDRYBC7Wn6B_ibloT0-20" value="" style="rounded=0;whiteSpace=wrap;html=1;fillColor=none;dashed=1;strokeColor=light-dark(#737373, #ededed);" parent="1" vertex="1">
          <mxGeometry x="1182" y="250" width="120" height="400" as="geometry" />
        </mxCell>
        <mxCell id="rsRDRYBC7Wn6B_ibloT0-21" value="&lt;font style=&quot;font-size: 14px;&quot;&gt;Consume&lt;/font&gt;" style="text;html=1;align=center;verticalAlign=middle;resizable=0;points=[];autosize=1;fillColor=default;" parent="1" vertex="1">
          <mxGeometry x="1202" y="235" width="80" height="30" as="geometry" />
        </mxCell>
        <mxCell id="rsRDRYBC7Wn6B_ibloT0-22" value="" style="image;aspect=fixed;html=1;points=[];align=center;fontSize=12;image=img/lib/azure2/general/Folder_Blank.svg;" parent="1" vertex="1">
          <mxGeometry x="335" y="330" width="54" height="43.83" as="geometry" />
        </mxCell>
        <mxCell id="rsRDRYBC7Wn6B_ibloT0-23" value="" style="image;aspect=fixed;html=1;points=[];align=center;fontSize=12;image=img/lib/azure2/general/File.svg;" parent="1" vertex="1">
          <mxGeometry x="371" y="348" width="26" height="32.04" as="geometry" />
        </mxCell>
        <mxCell id="rsRDRYBC7Wn6B_ibloT0-24" value="CRM" style="text;html=1;align=center;verticalAlign=middle;resizable=0;points=[];autosize=1;strokeColor=none;fillColor=none;" parent="1" vertex="1">
          <mxGeometry x="337" y="373.03999999999996" width="50" height="30" as="geometry" />
        </mxCell>
        <mxCell id="rsRDRYBC7Wn6B_ibloT0-25" value="" style="image;aspect=fixed;html=1;points=[];align=center;fontSize=12;image=img/lib/azure2/general/Folder_Blank.svg;" parent="1" vertex="1">
          <mxGeometry x="337" y="450" width="54" height="43.83" as="geometry" />
        </mxCell>
        <mxCell id="rsRDRYBC7Wn6B_ibloT0-26" value="" style="image;aspect=fixed;html=1;points=[];align=center;fontSize=12;image=img/lib/azure2/general/File.svg;" parent="1" vertex="1">
          <mxGeometry x="373" y="468" width="26" height="32.04" as="geometry" />
        </mxCell>
        <mxCell id="rsRDRYBC7Wn6B_ibloT0-27" value="ERP" style="text;html=1;align=center;verticalAlign=middle;resizable=0;points=[];autosize=1;strokeColor=none;fillColor=none;" parent="1" vertex="1">
          <mxGeometry x="339" y="493.03999999999996" width="50" height="30" as="geometry" />
        </mxCell>
        <mxCell id="rsRDRYBC7Wn6B_ibloT0-28" value="" style="endArrow=none;html=1;rounded=0;" parent="1" edge="1">
          <mxGeometry width="50" height="50" relative="1" as="geometry">
            <mxPoint x="310.5" y="530" as="sourcePoint" />
            <mxPoint x="417.5" y="530" as="targetPoint" />
          </mxGeometry>
        </mxCell>
        <mxCell id="rsRDRYBC7Wn6B_ibloT0-29" value="&lt;font style=&quot;font-size: 9px;&quot;&gt;&lt;b style=&quot;&quot;&gt;Object Type: &lt;/b&gt;CSV Files&lt;/font&gt;&lt;div&gt;&lt;font style=&quot;font-size: 9px;&quot;&gt;&lt;b style=&quot;&quot;&gt;Interface: &lt;/b&gt;Files in Folders&lt;/font&gt;&lt;/div&gt;" style="text;html=1;align=center;verticalAlign=middle;resizable=0;points=[];autosize=1;strokeColor=none;fillColor=none;" parent="1" vertex="1">
          <mxGeometry x="297" y="533" width="130" height="40" as="geometry" />
        </mxCell>
        <mxCell id="rsRDRYBC7Wn6B_ibloT0-30" value="" style="html=1;verticalLabelPosition=bottom;align=center;labelBackgroundColor=#ffffff;verticalAlign=top;strokeWidth=2;strokeColor=#d79b00;shadow=0;dashed=0;shape=mxgraph.ios7.icons.data;fillColor=#ffe6cc;" parent="1" vertex="1">
          <mxGeometry x="580.5" y="329.94" width="42" height="50.1" as="geometry" />
        </mxCell>
        <mxCell id="rsRDRYBC7Wn6B_ibloT0-34" value="" style="html=1;shadow=0;dashed=0;align=center;verticalAlign=middle;shape=mxgraph.arrows2.arrow;dy=0.6;dx=40;notch=0;fillColor=#dae8fc;strokeColor=#6c8ebf;" parent="1" vertex="1">
          <mxGeometry x="442" y="400" width="70" height="50" as="geometry" />
        </mxCell>
        <mxCell id="rsRDRYBC7Wn6B_ibloT0-36" value="" style="html=1;shadow=0;dashed=0;align=center;verticalAlign=middle;shape=mxgraph.arrows2.arrow;dy=0.6;dx=40;notch=0;fillColor=#dae8fc;strokeColor=#6c8ebf;" parent="1" vertex="1">
          <mxGeometry x="862" y="403.04" width="80" height="50" as="geometry" />
        </mxCell>
        <mxCell id="rsRDRYBC7Wn6B_ibloT0-37" value="" style="html=1;shadow=0;dashed=0;align=center;verticalAlign=middle;shape=mxgraph.arrows2.arrow;dy=0.6;dx=40;notch=0;fillColor=#dae8fc;strokeColor=#6c8ebf;" parent="1" vertex="1">
          <mxGeometry x="1102" y="403.04" width="70" height="50" as="geometry" />
        </mxCell>
        <mxCell id="rsRDRYBC7Wn6B_ibloT0-38" value="" style="html=1;verticalLabelPosition=bottom;align=center;labelBackgroundColor=#ffffff;verticalAlign=top;strokeWidth=2;strokeColor=#666666;shadow=0;dashed=0;shape=mxgraph.ios7.icons.data;fillColor=#f5f5f5;fontColor=#333333;" parent="1" vertex="1">
          <mxGeometry x="776" y="326.86" width="42" height="50.1" as="geometry" />
        </mxCell>
        <mxCell id="rsRDRYBC7Wn6B_ibloT0-39" value="" style="html=1;verticalLabelPosition=bottom;align=center;labelBackgroundColor=#ffffff;verticalAlign=top;strokeWidth=2;strokeColor=#d6b656;shadow=0;dashed=0;shape=mxgraph.ios7.icons.data;fillColor=#fff2cc;" parent="1" vertex="1">
          <mxGeometry x="980" y="329.93999999999994" width="42" height="50.1" as="geometry" />
        </mxCell>
        <mxCell id="rsRDRYBC7Wn6B_ibloT0-40" value="" style="endArrow=none;html=1;rounded=0;fillColor=#ffe6cc;strokeColor=#d79b00;" parent="1" edge="1">
          <mxGeometry width="50" height="50" relative="1" as="geometry">
            <mxPoint x="546.75" y="409.9" as="sourcePoint" />
            <mxPoint x="653.75" y="409.9" as="targetPoint" />
          </mxGeometry>
        </mxCell>
        <mxCell id="rsRDRYBC7Wn6B_ibloT0-41" value="" style="endArrow=none;html=1;rounded=0;fillColor=#f5f5f5;strokeColor=#666666;" parent="1" edge="1">
          <mxGeometry width="50" height="50" relative="1" as="geometry">
            <mxPoint x="748.5" y="409.9" as="sourcePoint" />
            <mxPoint x="855.5" y="409.9" as="targetPoint" />
          </mxGeometry>
        </mxCell>
        <mxCell id="rsRDRYBC7Wn6B_ibloT0-42" value="" style="endArrow=none;html=1;rounded=0;fillColor=#fff2cc;strokeColor=#d6b656;" parent="1" edge="1">
          <mxGeometry width="50" height="50" relative="1" as="geometry">
            <mxPoint x="948" y="409.9" as="sourcePoint" />
            <mxPoint x="1055" y="409.9" as="targetPoint" />
          </mxGeometry>
        </mxCell>
        <mxCell id="rsRDRYBC7Wn6B_ibloT0-46" value="&lt;font style=&quot;font-size: 9px;&quot;&gt;Raw Data&lt;/font&gt;" style="text;html=1;align=center;verticalAlign=middle;whiteSpace=wrap;rounded=0;" parent="1" vertex="1">
          <mxGeometry x="541.5" y="383.03999999999996" width="120" height="20" as="geometry" />
        </mxCell>
        <mxCell id="rsRDRYBC7Wn6B_ibloT0-47" value="&lt;font style=&quot;font-size: 9px;&quot;&gt;Cleaned, Standardized Data&lt;/font&gt;" style="text;html=1;align=center;verticalAlign=middle;whiteSpace=wrap;rounded=0;" parent="1" vertex="1">
          <mxGeometry x="737" y="380.03999999999996" width="120" height="26.86" as="geometry" />
        </mxCell>
        <mxCell id="rsRDRYBC7Wn6B_ibloT0-49" value="&lt;font style=&quot;font-size: 9px;&quot;&gt;Business-Ready&amp;nbsp;&lt;/font&gt;&lt;span style=&quot;font-size: 9px; background-color: transparent; color: light-dark(rgb(0, 0, 0), rgb(255, 255, 255));&quot;&gt;Data&lt;/span&gt;" style="text;html=1;align=center;verticalAlign=middle;whiteSpace=wrap;rounded=0;" parent="1" vertex="1">
          <mxGeometry x="941" y="383.04" width="121" height="26.86" as="geometry" />
        </mxCell>
        <mxCell id="rsRDRYBC7Wn6B_ibloT0-51" value="&lt;p style=&quot;--un-translate-z: 0; --un-pan-x: ; --un-pan-y: ; --un-pinch-zoom: ; --un-scroll-snap-strictness: proximity; --un-ordinal: ; --un-slashed-zero: ; --un-numeric-figure: ; --un-numeric-spacing: ; --un-numeric-fraction: ; --un-border-spacing-x: 0; --un-border-spacing-y: 0; --un-ring-offset-shadow: 0 0 rgb(0 0 0 / 0); --un-ring-shadow: 0 0 rgb(0 0 0 / 0); --un-shadow-inset: ; --un-shadow: 0 0 rgb(0 0 0 / 0); --un-ring-inset: ; --un-ring-offset-width: 0px; --un-ring-offset-color: light-dark(#fff, #000000); --un-ring-width: 0px; --un-ring-color: rgb(147 197 253 / .5); --un-blur: ; --un-brightness: ; --un-contrast: ; --un-drop-shadow: ; --un-grayscale: ; --un-hue-rotate: ; --un-invert: ; --un-saturate: ; --un-sepia: ; --un-backdrop-blur: ; --un-backdrop-brightness: ; --un-backdrop-contrast: ; --un-backdrop-grayscale: ; --un-backdrop-hue-rotate: ; --un-backdrop-invert: ; --un-backdrop-opacity: ; --un-backdrop-saturate: ; --un-backdrop-sepia: ; font-variant-numeric: normal; font-variant-east-asian: normal; font-variant-alternates: normal; font-variant-position: normal; font-variant-emoji: normal; text-align: left; margin: 0px; font-size-adjust: none; font-kerning: auto; font-optical-sizing: auto; font-feature-settings: normal; font-variation-settings: normal; font-stretch: normal;&quot; class=&quot;p1&quot;&gt;&lt;font style=&quot;--un-translate-z: 0; --un-pan-x: ; --un-pan-y: ; --un-pinch-zoom: ; --un-scroll-snap-strictness: proximity; --un-ordinal: ; --un-slashed-zero: ; --un-numeric-figure: ; --un-numeric-spacing: ; --un-numeric-fraction: ; --un-border-spacing-x: 0; --un-border-spacing-y: 0; --un-ring-offset-shadow: 0 0 rgb(0 0 0 / 0); --un-ring-shadow: 0 0 rgb(0 0 0 / 0); --un-shadow-inset: ; --un-shadow: 0 0 rgb(0 0 0 / 0); --un-ring-inset: ; --un-ring-offset-width: 0px; --un-ring-offset-color: light-dark(#fff, #000000); --un-ring-width: 0px; --un-ring-color: rgb(147 197 253 / .5); --un-blur: ; --un-brightness: ; --un-contrast: ; --un-drop-shadow: ; --un-grayscale: ; --un-hue-rotate: ; --un-invert: ; --un-saturate: ; --un-sepia: ; --un-backdrop-blur: ; --un-backdrop-brightness: ; --un-backdrop-contrast: ; --un-backdrop-grayscale: ; --un-backdrop-hue-rotate: ; --un-backdrop-invert: ; --un-backdrop-opacity: ; --un-backdrop-saturate: ; --un-backdrop-sepia: ; line-height: 10px; font-size: 9px;&quot;&gt;&lt;b style=&quot;--un-translate-z: 0; --un-pan-x: ; --un-pan-y: ; --un-pinch-zoom: ; --un-scroll-snap-strictness: proximity; --un-ordinal: ; --un-slashed-zero: ; --un-numeric-figure: ; --un-numeric-spacing: ; --un-numeric-fraction: ; --un-border-spacing-x: 0; --un-border-spacing-y: 0; --un-ring-offset-shadow: 0 0 rgb(0 0 0 / 0); --un-ring-shadow: 0 0 rgb(0 0 0 / 0); --un-shadow-inset: ; --un-shadow: 0 0 rgb(0 0 0 / 0); --un-ring-inset: ; --un-ring-offset-width: 0px; --un-ring-offset-color: light-dark(#fff, #000000); --un-ring-width: 0px; --un-ring-color: rgb(147 197 253 / .5); --un-blur: ; --un-brightness: ; --un-contrast: ; --un-drop-shadow: ; --un-grayscale: ; --un-hue-rotate: ; --un-invert: ; --un-saturate: ; --un-sepia: ; --un-backdrop-blur: ; --un-backdrop-brightness: ; --un-backdrop-contrast: ; --un-backdrop-grayscale: ; --un-backdrop-hue-rotate: ; --un-backdrop-invert: ; --un-backdrop-opacity: ; --un-backdrop-saturate: ; --un-backdrop-sepia: ;&quot;&gt;Object Type:&lt;/b&gt;&amp;nbsp;Tables&lt;/font&gt;&lt;/p&gt;&lt;p style=&quot;--un-translate-z: 0; --un-pan-x: ; --un-pan-y: ; --un-pinch-zoom: ; --un-scroll-snap-strictness: proximity; --un-ordinal: ; --un-slashed-zero: ; --un-numeric-figure: ; --un-numeric-spacing: ; --un-numeric-fraction: ; --un-border-spacing-x: 0; --un-border-spacing-y: 0; --un-ring-offset-shadow: 0 0 rgb(0 0 0 / 0); --un-ring-shadow: 0 0 rgb(0 0 0 / 0); --un-shadow-inset: ; --un-shadow: 0 0 rgb(0 0 0 / 0); --un-ring-inset: ; --un-ring-offset-width: 0px; --un-ring-offset-color: light-dark(#fff, #000000); --un-ring-width: 0px; --un-ring-color: rgb(147 197 253 / .5); --un-blur: ; --un-brightness: ; --un-contrast: ; --un-drop-shadow: ; --un-grayscale: ; --un-hue-rotate: ; --un-invert: ; --un-saturate: ; --un-sepia: ; --un-backdrop-blur: ; --un-backdrop-brightness: ; --un-backdrop-contrast: ; --un-backdrop-grayscale: ; --un-backdrop-hue-rotate: ; --un-backdrop-invert: ; --un-backdrop-opacity: ; --un-backdrop-saturate: ; --un-backdrop-sepia: ; font-variant-numeric: normal; font-variant-east-asian: normal; font-variant-alternates: normal; font-size-adjust: none; font-kerning: auto; font-optical-sizing: auto; font-feature-settings: normal; font-variation-settings: normal; font-variant-position: normal; font-variant-emoji: normal; font-stretch: normal; line-height: normal; text-align: left; margin: 0px;&quot; class=&quot;p1&quot;&gt;&lt;b style=&quot;--un-translate-z: 0; --un-pan-x: ; --un-pan-y: ; --un-pinch-zoom: ; --un-scroll-snap-strictness: proximity; --un-ordinal: ; --un-slashed-zero: ; --un-numeric-figure: ; --un-numeric-spacing: ; --un-numeric-fraction: ; --un-border-spacing-x: 0; --un-border-spacing-y: 0; --un-ring-offset-shadow: 0 0 rgb(0 0 0 / 0); --un-ring-shadow: 0 0 rgb(0 0 0 / 0); --un-shadow-inset: ; --un-shadow: 0 0 rgb(0 0 0 / 0); --un-ring-inset: ; --un-ring-offset-width: 0px; --un-ring-offset-color: light-dark(#fff, #000000); --un-ring-width: 0px; --un-ring-color: rgb(147 197 253 / .5); --un-blur: ; --un-brightness: ; --un-contrast: ; --un-drop-shadow: ; --un-grayscale: ; --un-hue-rotate: ; --un-invert: ; --un-saturate: ; --un-sepia: ; --un-backdrop-blur: ; --un-backdrop-brightness: ; --un-backdrop-contrast: ; --un-backdrop-grayscale: ; --un-backdrop-hue-rotate: ; --un-backdrop-invert: ; --un-backdrop-opacity: ; --un-backdrop-saturate: ; --un-backdrop-sepia: ;&quot;&gt;&lt;font style=&quot;--un-translate-z: 0; --un-pan-x: ; --un-pan-y: ; --un-pinch-zoom: ; --un-scroll-snap-strictness: proximity; --un-ordinal: ; --un-slashed-zero: ; --un-numeric-figure: ; --un-numeric-spacing: ; --un-numeric-fraction: ; --un-border-spacing-x: 0; --un-border-spacing-y: 0; --un-ring-offset-shadow: 0 0 rgb(0 0 0 / 0); --un-ring-shadow: 0 0 rgb(0 0 0 / 0); --un-shadow-inset: ; --un-shadow: 0 0 rgb(0 0 0 / 0); --un-ring-inset: ; --un-ring-offset-width: 0px; --un-ring-offset-color: light-dark(#fff, #000000); --un-ring-width: 0px; --un-ring-color: rgb(147 197 253 / .5); --un-blur: ; --un-brightness: ; --un-contrast: ; --un-drop-shadow: ; --un-grayscale: ; --un-hue-rotate: ; --un-invert: ; --un-saturate: ; --un-sepia: ; --un-backdrop-blur: ; --un-backdrop-brightness: ; --un-backdrop-contrast: ; --un-backdrop-grayscale: ; --un-backdrop-hue-rotate: ; --un-backdrop-invert: ; --un-backdrop-opacity: ; --un-backdrop-saturate: ; --un-backdrop-sepia: ; font-size: 9px;&quot;&gt;&lt;br style=&quot;--un-translate-z: 0; --un-pan-x: ; --un-pan-y: ; --un-pinch-zoom: ; --un-scroll-snap-strictness: proximity; --un-ordinal: ; --un-slashed-zero: ; --un-numeric-figure: ; --un-numeric-spacing: ; --un-numeric-fraction: ; --un-border-spacing-x: 0; --un-border-spacing-y: 0; --un-ring-offset-shadow: 0 0 rgb(0 0 0 / 0); --un-ring-shadow: 0 0 rgb(0 0 0 / 0); --un-shadow-inset: ; --un-shadow: 0 0 rgb(0 0 0 / 0); --un-ring-inset: ; --un-ring-offset-width: 0px; --un-ring-offset-color: light-dark(#fff, #000000); --un-ring-width: 0px; --un-ring-color: rgb(147 197 253 / .5); --un-blur: ; --un-brightness: ; --un-contrast: ; --un-drop-shadow: ; --un-grayscale: ; --un-hue-rotate: ; --un-invert: ; --un-saturate: ; --un-sepia: ; --un-backdrop-blur: ; --un-backdrop-brightness: ; --un-backdrop-contrast: ; --un-backdrop-grayscale: ; --un-backdrop-hue-rotate: ; --un-backdrop-invert: ; --un-backdrop-opacity: ; --un-backdrop-saturate: ; --un-backdrop-sepia: ;&quot;&gt;&lt;/font&gt;&lt;/b&gt;&lt;/p&gt;&lt;p style=&quot;--un-translate-z: 0; --un-pan-x: ; --un-pan-y: ; --un-pinch-zoom: ; --un-scroll-snap-strictness: proximity; --un-ordinal: ; --un-slashed-zero: ; --un-numeric-figure: ; --un-numeric-spacing: ; --un-numeric-fraction: ; --un-border-spacing-x: 0; --un-border-spacing-y: 0; --un-ring-offset-shadow: 0 0 rgb(0 0 0 / 0); --un-ring-shadow: 0 0 rgb(0 0 0 / 0); --un-shadow-inset: ; --un-shadow: 0 0 rgb(0 0 0 / 0); --un-ring-inset: ; --un-ring-offset-width: 0px; --un-ring-offset-color: light-dark(#fff, #000000); --un-ring-width: 0px; --un-ring-color: rgb(147 197 253 / .5); --un-blur: ; --un-brightness: ; --un-contrast: ; --un-drop-shadow: ; --un-grayscale: ; --un-hue-rotate: ; --un-invert: ; --un-saturate: ; --un-sepia: ; --un-backdrop-blur: ; --un-backdrop-brightness: ; --un-backdrop-contrast: ; --un-backdrop-grayscale: ; --un-backdrop-hue-rotate: ; --un-backdrop-invert: ; --un-backdrop-opacity: ; --un-backdrop-saturate: ; --un-backdrop-sepia: ; font-variant-numeric: normal; font-variant-east-asian: normal; font-variant-alternates: normal; font-variant-position: normal; font-variant-emoji: normal; text-align: left; margin: 0px; font-size-adjust: none; font-kerning: auto; font-optical-sizing: auto; font-feature-settings: normal; font-variation-settings: normal; font-stretch: normal;&quot; class=&quot;p1&quot;&gt;&lt;b style=&quot;--un-translate-z: 0; --un-pan-x: ; --un-pan-y: ; --un-pinch-zoom: ; --un-scroll-snap-strictness: proximity; --un-ordinal: ; --un-slashed-zero: ; --un-numeric-figure: ; --un-numeric-spacing: ; --un-numeric-fraction: ; --un-border-spacing-x: 0; --un-border-spacing-y: 0; --un-ring-offset-shadow: 0 0 rgb(0 0 0 / 0); --un-ring-shadow: 0 0 rgb(0 0 0 / 0); --un-shadow-inset: ; --un-shadow: 0 0 rgb(0 0 0 / 0); --un-ring-inset: ; --un-ring-offset-width: 0px; --un-ring-offset-color: light-dark(#fff, #000000); --un-ring-width: 0px; --un-ring-color: rgb(147 197 253 / .5); --un-blur: ; --un-brightness: ; --un-contrast: ; --un-drop-shadow: ; --un-grayscale: ; --un-hue-rotate: ; --un-invert: ; --un-saturate: ; --un-sepia: ; --un-backdrop-blur: ; --un-backdrop-brightness: ; --un-backdrop-contrast: ; --un-backdrop-grayscale: ; --un-backdrop-hue-rotate: ; --un-backdrop-invert: ; --un-backdrop-opacity: ; --un-backdrop-saturate: ; --un-backdrop-sepia: ;&quot;&gt;&lt;font style=&quot;--un-translate-z: 0; --un-pan-x: ; --un-pan-y: ; --un-pinch-zoom: ; --un-scroll-snap-strictness: proximity; --un-ordinal: ; --un-slashed-zero: ; --un-numeric-figure: ; --un-numeric-spacing: ; --un-numeric-fraction: ; --un-border-spacing-x: 0; --un-border-spacing-y: 0; --un-ring-offset-shadow: 0 0 rgb(0 0 0 / 0); --un-ring-shadow: 0 0 rgb(0 0 0 / 0); --un-shadow-inset: ; --un-shadow: 0 0 rgb(0 0 0 / 0); --un-ring-inset: ; --un-ring-offset-width: 0px; --un-ring-offset-color: light-dark(#fff, #000000); --un-ring-width: 0px; --un-ring-color: rgb(147 197 253 / .5); --un-blur: ; --un-brightness: ; --un-contrast: ; --un-drop-shadow: ; --un-grayscale: ; --un-hue-rotate: ; --un-invert: ; --un-saturate: ; --un-sepia: ; --un-backdrop-blur: ; --un-backdrop-brightness: ; --un-backdrop-contrast: ; --un-backdrop-grayscale: ; --un-backdrop-hue-rotate: ; --un-backdrop-invert: ; --un-backdrop-opacity: ; --un-backdrop-saturate: ; --un-backdrop-sepia: ; line-height: 10px; font-size: 9px;&quot;&gt;Load:&lt;/font&gt;&lt;/b&gt;&lt;/p&gt;&lt;ul&gt;&lt;li style=&quot;text-align: left;&quot;&gt;&lt;span style=&quot;background-color: transparent; color: light-dark(rgb(0, 0, 0), rgb(255, 255, 255));&quot;&gt;&lt;font style=&quot;font-size: 9px;&quot;&gt;﻿﻿Batch Processing&lt;/font&gt;&lt;/span&gt;&lt;/li&gt;&lt;li style=&quot;text-align: left;&quot;&gt;&lt;span style=&quot;background-color: transparent; color: light-dark(rgb(0, 0, 0), rgb(255, 255, 255));&quot;&gt;&lt;font style=&quot;font-size: 9px;&quot;&gt;﻿﻿Full load&lt;/font&gt;&lt;/span&gt;&lt;/li&gt;&lt;li style=&quot;text-align: left;&quot;&gt;&lt;span style=&quot;background-color: transparent; color: light-dark(rgb(0, 0, 0), rgb(255, 255, 255));&quot;&gt;&lt;font style=&quot;font-size: 9px;&quot;&gt;Truncate &amp;amp; Insert&lt;/font&gt;&lt;/span&gt;&lt;/li&gt;&lt;/ul&gt;&lt;p style=&quot;text-align: left; --un-translate-z: 0; --un-pan-x: ; --un-pan-y: ; --un-pinch-zoom: ; --un-scroll-snap-strictness: proximity; --un-ordinal: ; --un-slashed-zero: ; --un-numeric-figure: ; --un-numeric-spacing: ; --un-numeric-fraction: ; --un-border-spacing-x: 0; --un-border-spacing-y: 0; --un-ring-offset-shadow: 0 0 rgb(0 0 0 / 0); --un-ring-shadow: 0 0 rgb(0 0 0 / 0); --un-shadow-inset: ; --un-shadow: 0 0 rgb(0 0 0 / 0); --un-ring-inset: ; --un-ring-offset-width: 0px; --un-ring-offset-color: light-dark(#fff, #000000); --un-ring-width: 0px; --un-ring-color: rgb(147 197 253 / .5); --un-blur: ; --un-brightness: ; --un-contrast: ; --un-drop-shadow: ; --un-grayscale: ; --un-hue-rotate: ; --un-invert: ; --un-saturate: ; --un-sepia: ; --un-backdrop-blur: ; --un-backdrop-brightness: ; --un-backdrop-contrast: ; --un-backdrop-grayscale: ; --un-backdrop-hue-rotate: ; --un-backdrop-invert: ; --un-backdrop-opacity: ; --un-backdrop-saturate: ; --un-backdrop-sepia: ; font-variant-numeric: normal; font-variant-east-asian: normal; font-variant-alternates: normal; font-variant-position: normal; font-variant-emoji: normal; margin: 0px; font-size-adjust: none; font-kerning: auto; font-optical-sizing: auto; font-feature-settings: normal; font-variation-settings: normal; font-stretch: normal;&quot; class=&quot;p1&quot;&gt;&lt;font style=&quot;--un-translate-z: 0; --un-pan-x: ; --un-pan-y: ; --un-pinch-zoom: ; --un-scroll-snap-strictness: proximity; --un-ordinal: ; --un-slashed-zero: ; --un-numeric-figure: ; --un-numeric-spacing: ; --un-numeric-fraction: ; --un-border-spacing-x: 0; --un-border-spacing-y: 0; --un-ring-offset-shadow: 0 0 rgb(0 0 0 / 0); --un-ring-shadow: 0 0 rgb(0 0 0 / 0); --un-shadow-inset: ; --un-shadow: 0 0 rgb(0 0 0 / 0); --un-ring-inset: ; --un-ring-offset-width: 0px; --un-ring-offset-color: light-dark(#fff, #000000); --un-ring-width: 0px; --un-ring-color: rgb(147 197 253 / .5); --un-blur: ; --un-brightness: ; --un-contrast: ; --un-drop-shadow: ; --un-grayscale: ; --un-hue-rotate: ; --un-invert: ; --un-saturate: ; --un-sepia: ; --un-backdrop-blur: ; --un-backdrop-brightness: ; --un-backdrop-contrast: ; --un-backdrop-grayscale: ; --un-backdrop-hue-rotate: ; --un-backdrop-invert: ; --un-backdrop-opacity: ; --un-backdrop-saturate: ; --un-backdrop-sepia: ; line-height: 10px; font-size: 9px;&quot;&gt;No &lt;b&gt;Transformations&lt;/b&gt;&lt;/font&gt;&lt;/p&gt;&lt;p style=&quot;--un-translate-z: 0; --un-pan-x: ; --un-pan-y: ; --un-pinch-zoom: ; --un-scroll-snap-strictness: proximity; --un-ordinal: ; --un-slashed-zero: ; --un-numeric-figure: ; --un-numeric-spacing: ; --un-numeric-fraction: ; --un-border-spacing-x: 0; --un-border-spacing-y: 0; --un-ring-offset-shadow: 0 0 rgb(0 0 0 / 0); --un-ring-shadow: 0 0 rgb(0 0 0 / 0); --un-shadow-inset: ; --un-shadow: 0 0 rgb(0 0 0 / 0); --un-ring-inset: ; --un-ring-offset-width: 0px; --un-ring-offset-color: light-dark(#fff, #000000); --un-ring-width: 0px; --un-ring-color: rgb(147 197 253 / .5); --un-blur: ; --un-brightness: ; --un-contrast: ; --un-drop-shadow: ; --un-grayscale: ; --un-hue-rotate: ; --un-invert: ; --un-saturate: ; --un-sepia: ; --un-backdrop-blur: ; --un-backdrop-brightness: ; --un-backdrop-contrast: ; --un-backdrop-grayscale: ; --un-backdrop-hue-rotate: ; --un-backdrop-invert: ; --un-backdrop-opacity: ; --un-backdrop-saturate: ; --un-backdrop-sepia: ; font-variant-numeric: normal; font-variant-east-asian: normal; font-variant-alternates: normal; font-size-adjust: none; font-kerning: auto; font-optical-sizing: auto; font-feature-settings: normal; font-variation-settings: normal; font-variant-position: normal; font-variant-emoji: normal; font-stretch: normal; line-height: normal; text-align: left; margin: 0px;&quot; class=&quot;p1&quot;&gt;&lt;font style=&quot;--un-translate-z: 0; --un-pan-x: ; --un-pan-y: ; --un-pinch-zoom: ; --un-scroll-snap-strictness: proximity; --un-ordinal: ; --un-slashed-zero: ; --un-numeric-figure: ; --un-numeric-spacing: ; --un-numeric-fraction: ; --un-border-spacing-x: 0; --un-border-spacing-y: 0; --un-ring-offset-shadow: 0 0 rgb(0 0 0 / 0); --un-ring-shadow: 0 0 rgb(0 0 0 / 0); --un-shadow-inset: ; --un-shadow: 0 0 rgb(0 0 0 / 0); --un-ring-inset: ; --un-ring-offset-width: 0px; --un-ring-offset-color: light-dark(#fff, #000000); --un-ring-width: 0px; --un-ring-color: rgb(147 197 253 / .5); --un-blur: ; --un-brightness: ; --un-contrast: ; --un-drop-shadow: ; --un-grayscale: ; --un-hue-rotate: ; --un-invert: ; --un-saturate: ; --un-sepia: ; --un-backdrop-blur: ; --un-backdrop-brightness: ; --un-backdrop-contrast: ; --un-backdrop-grayscale: ; --un-backdrop-hue-rotate: ; --un-backdrop-invert: ; --un-backdrop-opacity: ; --un-backdrop-saturate: ; --un-backdrop-sepia: ; font-size: 9px;&quot;&gt;&lt;br style=&quot;--un-translate-z: 0; --un-pan-x: ; --un-pan-y: ; --un-pinch-zoom: ; --un-scroll-snap-strictness: proximity; --un-ordinal: ; --un-slashed-zero: ; --un-numeric-figure: ; --un-numeric-spacing: ; --un-numeric-fraction: ; --un-border-spacing-x: 0; --un-border-spacing-y: 0; --un-ring-offset-shadow: 0 0 rgb(0 0 0 / 0); --un-ring-shadow: 0 0 rgb(0 0 0 / 0); --un-shadow-inset: ; --un-shadow: 0 0 rgb(0 0 0 / 0); --un-ring-inset: ; --un-ring-offset-width: 0px; --un-ring-offset-color: light-dark(#fff, #000000); --un-ring-width: 0px; --un-ring-color: rgb(147 197 253 / .5); --un-blur: ; --un-brightness: ; --un-contrast: ; --un-drop-shadow: ; --un-grayscale: ; --un-hue-rotate: ; --un-invert: ; --un-saturate: ; --un-sepia: ; --un-backdrop-blur: ; --un-backdrop-brightness: ; --un-backdrop-contrast: ; --un-backdrop-grayscale: ; --un-backdrop-hue-rotate: ; --un-backdrop-invert: ; --un-backdrop-opacity: ; --un-backdrop-saturate: ; --un-backdrop-sepia: ;&quot;&gt;&lt;/font&gt;&lt;/p&gt;&lt;p style=&quot;--un-translate-z: 0; --un-pan-x: ; --un-pan-y: ; --un-pinch-zoom: ; --un-scroll-snap-strictness: proximity; --un-ordinal: ; --un-slashed-zero: ; --un-numeric-figure: ; --un-numeric-spacing: ; --un-numeric-fraction: ; --un-border-spacing-x: 0; --un-border-spacing-y: 0; --un-ring-offset-shadow: 0 0 rgb(0 0 0 / 0); --un-ring-shadow: 0 0 rgb(0 0 0 / 0); --un-shadow-inset: ; --un-shadow: 0 0 rgb(0 0 0 / 0); --un-ring-inset: ; --un-ring-offset-width: 0px; --un-ring-offset-color: light-dark(#fff, #000000); --un-ring-width: 0px; --un-ring-color: rgb(147 197 253 / .5); --un-blur: ; --un-brightness: ; --un-contrast: ; --un-drop-shadow: ; --un-grayscale: ; --un-hue-rotate: ; --un-invert: ; --un-saturate: ; --un-sepia: ; --un-backdrop-blur: ; --un-backdrop-brightness: ; --un-backdrop-contrast: ; --un-backdrop-grayscale: ; --un-backdrop-hue-rotate: ; --un-backdrop-invert: ; --un-backdrop-opacity: ; --un-backdrop-saturate: ; --un-backdrop-sepia: ; font-variant-numeric: normal; font-variant-east-asian: normal; font-variant-alternates: normal; font-variant-position: normal; font-variant-emoji: normal; text-align: left; margin: 0px; font-size-adjust: none; font-kerning: auto; font-optical-sizing: auto; font-feature-settings: normal; font-variation-settings: normal; font-stretch: normal;&quot; class=&quot;p1&quot;&gt;&lt;font style=&quot;--un-translate-z: 0; --un-pan-x: ; --un-pan-y: ; --un-pinch-zoom: ; --un-scroll-snap-strictness: proximity; --un-ordinal: ; --un-slashed-zero: ; --un-numeric-figure: ; --un-numeric-spacing: ; --un-numeric-fraction: ; --un-border-spacing-x: 0; --un-border-spacing-y: 0; --un-ring-offset-shadow: 0 0 rgb(0 0 0 / 0); --un-ring-shadow: 0 0 rgb(0 0 0 / 0); --un-shadow-inset: ; --un-shadow: 0 0 rgb(0 0 0 / 0); --un-ring-inset: ; --un-ring-offset-width: 0px; --un-ring-offset-color: light-dark(#fff, #000000); --un-ring-width: 0px; --un-ring-color: rgb(147 197 253 / .5); --un-blur: ; --un-brightness: ; --un-contrast: ; --un-drop-shadow: ; --un-grayscale: ; --un-hue-rotate: ; --un-invert: ; --un-saturate: ; --un-sepia: ; --un-backdrop-blur: ; --un-backdrop-brightness: ; --un-backdrop-contrast: ; --un-backdrop-grayscale: ; --un-backdrop-hue-rotate: ; --un-backdrop-invert: ; --un-backdrop-opacity: ; --un-backdrop-saturate: ; --un-backdrop-sepia: ; line-height: 10px; font-size: 9px;&quot;&gt;&lt;b style=&quot;--un-translate-z: 0; --un-pan-x: ; --un-pan-y: ; --un-pinch-zoom: ; --un-scroll-snap-strictness: proximity; --un-ordinal: ; --un-slashed-zero: ; --un-numeric-figure: ; --un-numeric-spacing: ; --un-numeric-fraction: ; --un-border-spacing-x: 0; --un-border-spacing-y: 0; --un-ring-offset-shadow: 0 0 rgb(0 0 0 / 0); --un-ring-shadow: 0 0 rgb(0 0 0 / 0); --un-shadow-inset: ; --un-shadow: 0 0 rgb(0 0 0 / 0); --un-ring-inset: ; --un-ring-offset-width: 0px; --un-ring-offset-color: light-dark(#fff, #000000); --un-ring-width: 0px; --un-ring-color: rgb(147 197 253 / .5); --un-blur: ; --un-brightness: ; --un-contrast: ; --un-drop-shadow: ; --un-grayscale: ; --un-hue-rotate: ; --un-invert: ; --un-saturate: ; --un-sepia: ; --un-backdrop-blur: ; --un-backdrop-brightness: ; --un-backdrop-contrast: ; --un-backdrop-grayscale: ; --un-backdrop-hue-rotate: ; --un-backdrop-invert: ; --un-backdrop-opacity: ; --un-backdrop-saturate: ; --un-backdrop-sepia: ;&quot;&gt;Data Model:&amp;nbsp;&lt;/b&gt;None (as-is)&lt;/font&gt;&lt;/p&gt;" style="text;html=1;align=center;verticalAlign=middle;whiteSpace=wrap;rounded=0;" parent="1" vertex="1">
          <mxGeometry x="534.5" y="420" width="136.5" height="170" as="geometry" />
        </mxCell>
        <mxCell id="rsRDRYBC7Wn6B_ibloT0-53" value="&lt;p style=&quot;--un-translate-z: 0; --un-pan-x: ; --un-pan-y: ; --un-pinch-zoom: ; --un-scroll-snap-strictness: proximity; --un-ordinal: ; --un-slashed-zero: ; --un-numeric-figure: ; --un-numeric-spacing: ; --un-numeric-fraction: ; --un-border-spacing-x: 0; --un-border-spacing-y: 0; --un-ring-offset-shadow: 0 0 rgb(0 0 0 / 0); --un-ring-shadow: 0 0 rgb(0 0 0 / 0); --un-shadow-inset: ; --un-shadow: 0 0 rgb(0 0 0 / 0); --un-ring-inset: ; --un-ring-offset-width: 0px; --un-ring-offset-color: light-dark(#fff, #000000); --un-ring-width: 0px; --un-ring-color: rgb(147 197 253 / .5); --un-blur: ; --un-brightness: ; --un-contrast: ; --un-drop-shadow: ; --un-grayscale: ; --un-hue-rotate: ; --un-invert: ; --un-saturate: ; --un-sepia: ; --un-backdrop-blur: ; --un-backdrop-brightness: ; --un-backdrop-contrast: ; --un-backdrop-grayscale: ; --un-backdrop-hue-rotate: ; --un-backdrop-invert: ; --un-backdrop-opacity: ; --un-backdrop-saturate: ; --un-backdrop-sepia: ; font-variant-numeric: normal; font-variant-east-asian: normal; font-variant-alternates: normal; font-variant-position: normal; font-variant-emoji: normal; text-align: left; margin: 0px; font-size-adjust: none; font-kerning: auto; font-optical-sizing: auto; font-feature-settings: normal; font-variation-settings: normal; font-stretch: normal;&quot; class=&quot;p1&quot;&gt;&lt;font style=&quot;--un-translate-z: 0; --un-pan-x: ; --un-pan-y: ; --un-pinch-zoom: ; --un-scroll-snap-strictness: proximity; --un-ordinal: ; --un-slashed-zero: ; --un-numeric-figure: ; --un-numeric-spacing: ; --un-numeric-fraction: ; --un-border-spacing-x: 0; --un-border-spacing-y: 0; --un-ring-offset-shadow: 0 0 rgb(0 0 0 / 0); --un-ring-shadow: 0 0 rgb(0 0 0 / 0); --un-shadow-inset: ; --un-shadow: 0 0 rgb(0 0 0 / 0); --un-ring-inset: ; --un-ring-offset-width: 0px; --un-ring-offset-color: light-dark(#fff, #000000); --un-ring-width: 0px; --un-ring-color: rgb(147 197 253 / .5); --un-blur: ; --un-brightness: ; --un-contrast: ; --un-drop-shadow: ; --un-grayscale: ; --un-hue-rotate: ; --un-invert: ; --un-saturate: ; --un-sepia: ; --un-backdrop-blur: ; --un-backdrop-brightness: ; --un-backdrop-contrast: ; --un-backdrop-grayscale: ; --un-backdrop-hue-rotate: ; --un-backdrop-invert: ; --un-backdrop-opacity: ; --un-backdrop-saturate: ; --un-backdrop-sepia: ; line-height: 10px; font-size: 8px;&quot;&gt;&lt;b style=&quot;--un-translate-z: 0; --un-pan-x: ; --un-pan-y: ; --un-pinch-zoom: ; --un-scroll-snap-strictness: proximity; --un-ordinal: ; --un-slashed-zero: ; --un-numeric-figure: ; --un-numeric-spacing: ; --un-numeric-fraction: ; --un-border-spacing-x: 0; --un-border-spacing-y: 0; --un-ring-offset-shadow: 0 0 rgb(0 0 0 / 0); --un-ring-shadow: 0 0 rgb(0 0 0 / 0); --un-shadow-inset: ; --un-shadow: 0 0 rgb(0 0 0 / 0); --un-ring-inset: ; --un-ring-offset-width: 0px; --un-ring-offset-color: light-dark(#fff, #000000); --un-ring-width: 0px; --un-ring-color: rgb(147 197 253 / .5); --un-blur: ; --un-brightness: ; --un-contrast: ; --un-drop-shadow: ; --un-grayscale: ; --un-hue-rotate: ; --un-invert: ; --un-saturate: ; --un-sepia: ; --un-backdrop-blur: ; --un-backdrop-brightness: ; --un-backdrop-contrast: ; --un-backdrop-grayscale: ; --un-backdrop-hue-rotate: ; --un-backdrop-invert: ; --un-backdrop-opacity: ; --un-backdrop-saturate: ; --un-backdrop-sepia: ;&quot;&gt;Object Type:&lt;/b&gt;&amp;nbsp;Tables&lt;/font&gt;&lt;/p&gt;&lt;p style=&quot;--un-translate-z: 0; --un-pan-x: ; --un-pan-y: ; --un-pinch-zoom: ; --un-scroll-snap-strictness: proximity; --un-ordinal: ; --un-slashed-zero: ; --un-numeric-figure: ; --un-numeric-spacing: ; --un-numeric-fraction: ; --un-border-spacing-x: 0; --un-border-spacing-y: 0; --un-ring-offset-shadow: 0 0 rgb(0 0 0 / 0); --un-ring-shadow: 0 0 rgb(0 0 0 / 0); --un-shadow-inset: ; --un-shadow: 0 0 rgb(0 0 0 / 0); --un-ring-inset: ; --un-ring-offset-width: 0px; --un-ring-offset-color: light-dark(#fff, #000000); --un-ring-width: 0px; --un-ring-color: rgb(147 197 253 / .5); --un-blur: ; --un-brightness: ; --un-contrast: ; --un-drop-shadow: ; --un-grayscale: ; --un-hue-rotate: ; --un-invert: ; --un-saturate: ; --un-sepia: ; --un-backdrop-blur: ; --un-backdrop-brightness: ; --un-backdrop-contrast: ; --un-backdrop-grayscale: ; --un-backdrop-hue-rotate: ; --un-backdrop-invert: ; --un-backdrop-opacity: ; --un-backdrop-saturate: ; --un-backdrop-sepia: ; font-variant-numeric: normal; font-variant-east-asian: normal; font-variant-alternates: normal; font-variant-position: normal; font-variant-emoji: normal; text-align: left; margin: 0px; font-size-adjust: none; font-kerning: auto; font-optical-sizing: auto; font-feature-settings: normal; font-variation-settings: normal; font-stretch: normal;&quot; class=&quot;p1&quot;&gt;&lt;b style=&quot;--un-translate-z: 0; --un-pan-x: ; --un-pan-y: ; --un-pinch-zoom: ; --un-scroll-snap-strictness: proximity; --un-ordinal: ; --un-slashed-zero: ; --un-numeric-figure: ; --un-numeric-spacing: ; --un-numeric-fraction: ; --un-border-spacing-x: 0; --un-border-spacing-y: 0; --un-ring-offset-shadow: 0 0 rgb(0 0 0 / 0); --un-ring-shadow: 0 0 rgb(0 0 0 / 0); --un-shadow-inset: ; --un-shadow: 0 0 rgb(0 0 0 / 0); --un-ring-inset: ; --un-ring-offset-width: 0px; --un-ring-offset-color: light-dark(#fff, #000000); --un-ring-width: 0px; --un-ring-color: rgb(147 197 253 / .5); --un-blur: ; --un-brightness: ; --un-contrast: ; --un-drop-shadow: ; --un-grayscale: ; --un-hue-rotate: ; --un-invert: ; --un-saturate: ; --un-sepia: ; --un-backdrop-blur: ; --un-backdrop-brightness: ; --un-backdrop-contrast: ; --un-backdrop-grayscale: ; --un-backdrop-hue-rotate: ; --un-backdrop-invert: ; --un-backdrop-opacity: ; --un-backdrop-saturate: ; --un-backdrop-sepia: ;&quot;&gt;&lt;font style=&quot;--un-translate-z: 0; --un-pan-x: ; --un-pan-y: ; --un-pinch-zoom: ; --un-scroll-snap-strictness: proximity; --un-ordinal: ; --un-slashed-zero: ; --un-numeric-figure: ; --un-numeric-spacing: ; --un-numeric-fraction: ; --un-border-spacing-x: 0; --un-border-spacing-y: 0; --un-ring-offset-shadow: 0 0 rgb(0 0 0 / 0); --un-ring-shadow: 0 0 rgb(0 0 0 / 0); --un-shadow-inset: ; --un-shadow: 0 0 rgb(0 0 0 / 0); --un-ring-inset: ; --un-ring-offset-width: 0px; --un-ring-offset-color: light-dark(#fff, #000000); --un-ring-width: 0px; --un-ring-color: rgb(147 197 253 / .5); --un-blur: ; --un-brightness: ; --un-contrast: ; --un-drop-shadow: ; --un-grayscale: ; --un-hue-rotate: ; --un-invert: ; --un-saturate: ; --un-sepia: ; --un-backdrop-blur: ; --un-backdrop-brightness: ; --un-backdrop-contrast: ; --un-backdrop-grayscale: ; --un-backdrop-hue-rotate: ; --un-backdrop-invert: ; --un-backdrop-opacity: ; --un-backdrop-saturate: ; --un-backdrop-sepia: ; line-height: 10px; font-size: 8px;&quot;&gt;Load:&lt;/font&gt;&lt;/b&gt;&lt;/p&gt;&lt;ul style=&quot;--un-translate-z: 0; --un-pan-x: ; --un-pan-y: ; --un-pinch-zoom: ; --un-scroll-snap-strictness: proximity; --un-ordinal: ; --un-slashed-zero: ; --un-numeric-figure: ; --un-numeric-spacing: ; --un-numeric-fraction: ; --un-border-spacing-x: 0; --un-border-spacing-y: 0; --un-ring-offset-shadow: 0 0 rgb(0 0 0 / 0); --un-ring-shadow: 0 0 rgb(0 0 0 / 0); --un-shadow-inset: ; --un-shadow: 0 0 rgb(0 0 0 / 0); --un-ring-inset: ; --un-ring-offset-width: 0px; --un-ring-offset-color: light-dark(#fff, #000000); --un-ring-width: 0px; --un-ring-color: rgb(147 197 253 / .5); --un-blur: ; --un-brightness: ; --un-contrast: ; --un-drop-shadow: ; --un-grayscale: ; --un-hue-rotate: ; --un-invert: ; --un-saturate: ; --un-sepia: ; --un-backdrop-blur: ; --un-backdrop-brightness: ; --un-backdrop-contrast: ; --un-backdrop-grayscale: ; --un-backdrop-hue-rotate: ; --un-backdrop-invert: ; --un-backdrop-opacity: ; --un-backdrop-saturate: ; --un-backdrop-sepia: ;&quot;&gt;&lt;li style=&quot;--un-translate-z: 0; --un-pan-x: ; --un-pan-y: ; --un-pinch-zoom: ; --un-scroll-snap-strictness: proximity; --un-ordinal: ; --un-slashed-zero: ; --un-numeric-figure: ; --un-numeric-spacing: ; --un-numeric-fraction: ; --un-border-spacing-x: 0; --un-border-spacing-y: 0; --un-ring-offset-shadow: 0 0 rgb(0 0 0 / 0); --un-ring-shadow: 0 0 rgb(0 0 0 / 0); --un-shadow-inset: ; --un-shadow: 0 0 rgb(0 0 0 / 0); --un-ring-inset: ; --un-ring-offset-width: 0px; --un-ring-offset-color: light-dark(#fff, #000000); --un-ring-width: 0px; --un-ring-color: rgb(147 197 253 / .5); --un-blur: ; --un-brightness: ; --un-contrast: ; --un-drop-shadow: ; --un-grayscale: ; --un-hue-rotate: ; --un-invert: ; --un-saturate: ; --un-sepia: ; --un-backdrop-blur: ; --un-backdrop-brightness: ; --un-backdrop-contrast: ; --un-backdrop-grayscale: ; --un-backdrop-hue-rotate: ; --un-backdrop-invert: ; --un-backdrop-opacity: ; --un-backdrop-saturate: ; --un-backdrop-sepia: ; text-align: left;&quot;&gt;&lt;span style=&quot;--un-translate-z: 0; --un-pan-x: ; --un-pan-y: ; --un-pinch-zoom: ; --un-scroll-snap-strictness: proximity; --un-ordinal: ; --un-slashed-zero: ; --un-numeric-figure: ; --un-numeric-spacing: ; --un-numeric-fraction: ; --un-border-spacing-x: 0; --un-border-spacing-y: 0; --un-ring-offset-shadow: 0 0 rgb(0 0 0 / 0); --un-ring-shadow: 0 0 rgb(0 0 0 / 0); --un-shadow-inset: ; --un-shadow: 0 0 rgb(0 0 0 / 0); --un-ring-inset: ; --un-ring-offset-width: 0px; --un-ring-offset-color: light-dark(#fff, #000000); --un-ring-width: 0px; --un-ring-color: rgb(147 197 253 / .5); --un-blur: ; --un-brightness: ; --un-contrast: ; --un-drop-shadow: ; --un-grayscale: ; --un-hue-rotate: ; --un-invert: ; --un-saturate: ; --un-sepia: ; --un-backdrop-blur: ; --un-backdrop-brightness: ; --un-backdrop-contrast: ; --un-backdrop-grayscale: ; --un-backdrop-hue-rotate: ; --un-backdrop-invert: ; --un-backdrop-opacity: ; --un-backdrop-saturate: ; --un-backdrop-sepia: ; background-color: transparent; color: light-dark(rgb(0, 0, 0), rgb(255, 255, 255));&quot;&gt;&lt;font style=&quot;font-size: 8px;&quot;&gt;﻿﻿Batch Processind&lt;/font&gt;&lt;/span&gt;&lt;/li&gt;&lt;li style=&quot;--un-translate-z: 0; --un-pan-x: ; --un-pan-y: ; --un-pinch-zoom: ; --un-scroll-snap-strictness: proximity; --un-ordinal: ; --un-slashed-zero: ; --un-numeric-figure: ; --un-numeric-spacing: ; --un-numeric-fraction: ; --un-border-spacing-x: 0; --un-border-spacing-y: 0; --un-ring-offset-shadow: 0 0 rgb(0 0 0 / 0); --un-ring-shadow: 0 0 rgb(0 0 0 / 0); --un-shadow-inset: ; --un-shadow: 0 0 rgb(0 0 0 / 0); --un-ring-inset: ; --un-ring-offset-width: 0px; --un-ring-offset-color: light-dark(#fff, #000000); --un-ring-width: 0px; --un-ring-color: rgb(147 197 253 / .5); --un-blur: ; --un-brightness: ; --un-contrast: ; --un-drop-shadow: ; --un-grayscale: ; --un-hue-rotate: ; --un-invert: ; --un-saturate: ; --un-sepia: ; --un-backdrop-blur: ; --un-backdrop-brightness: ; --un-backdrop-contrast: ; --un-backdrop-grayscale: ; --un-backdrop-hue-rotate: ; --un-backdrop-invert: ; --un-backdrop-opacity: ; --un-backdrop-saturate: ; --un-backdrop-sepia: ; text-align: left;&quot;&gt;&lt;span style=&quot;--un-translate-z: 0; --un-pan-x: ; --un-pan-y: ; --un-pinch-zoom: ; --un-scroll-snap-strictness: proximity; --un-ordinal: ; --un-slashed-zero: ; --un-numeric-figure: ; --un-numeric-spacing: ; --un-numeric-fraction: ; --un-border-spacing-x: 0; --un-border-spacing-y: 0; --un-ring-offset-shadow: 0 0 rgb(0 0 0 / 0); --un-ring-shadow: 0 0 rgb(0 0 0 / 0); --un-shadow-inset: ; --un-shadow: 0 0 rgb(0 0 0 / 0); --un-ring-inset: ; --un-ring-offset-width: 0px; --un-ring-offset-color: light-dark(#fff, #000000); --un-ring-width: 0px; --un-ring-color: rgb(147 197 253 / .5); --un-blur: ; --un-brightness: ; --un-contrast: ; --un-drop-shadow: ; --un-grayscale: ; --un-hue-rotate: ; --un-invert: ; --un-saturate: ; --un-sepia: ; --un-backdrop-blur: ; --un-backdrop-brightness: ; --un-backdrop-contrast: ; --un-backdrop-grayscale: ; --un-backdrop-hue-rotate: ; --un-backdrop-invert: ; --un-backdrop-opacity: ; --un-backdrop-saturate: ; --un-backdrop-sepia: ; background-color: transparent; color: light-dark(rgb(0, 0, 0), rgb(255, 255, 255));&quot;&gt;&lt;font style=&quot;font-size: 8px;&quot;&gt;﻿﻿Full load&lt;/font&gt;&lt;/span&gt;&lt;/li&gt;&lt;li style=&quot;--un-translate-z: 0; --un-pan-x: ; --un-pan-y: ; --un-pinch-zoom: ; --un-scroll-snap-strictness: proximity; --un-ordinal: ; --un-slashed-zero: ; --un-numeric-figure: ; --un-numeric-spacing: ; --un-numeric-fraction: ; --un-border-spacing-x: 0; --un-border-spacing-y: 0; --un-ring-offset-shadow: 0 0 rgb(0 0 0 / 0); --un-ring-shadow: 0 0 rgb(0 0 0 / 0); --un-shadow-inset: ; --un-shadow: 0 0 rgb(0 0 0 / 0); --un-ring-inset: ; --un-ring-offset-width: 0px; --un-ring-offset-color: light-dark(#fff, #000000); --un-ring-width: 0px; --un-ring-color: rgb(147 197 253 / .5); --un-blur: ; --un-brightness: ; --un-contrast: ; --un-drop-shadow: ; --un-grayscale: ; --un-hue-rotate: ; --un-invert: ; --un-saturate: ; --un-sepia: ; --un-backdrop-blur: ; --un-backdrop-brightness: ; --un-backdrop-contrast: ; --un-backdrop-grayscale: ; --un-backdrop-hue-rotate: ; --un-backdrop-invert: ; --un-backdrop-opacity: ; --un-backdrop-saturate: ; --un-backdrop-sepia: ; text-align: left;&quot;&gt;&lt;span style=&quot;--un-translate-z: 0; --un-pan-x: ; --un-pan-y: ; --un-pinch-zoom: ; --un-scroll-snap-strictness: proximity; --un-ordinal: ; --un-slashed-zero: ; --un-numeric-figure: ; --un-numeric-spacing: ; --un-numeric-fraction: ; --un-border-spacing-x: 0; --un-border-spacing-y: 0; --un-ring-offset-shadow: 0 0 rgb(0 0 0 / 0); --un-ring-shadow: 0 0 rgb(0 0 0 / 0); --un-shadow-inset: ; --un-shadow: 0 0 rgb(0 0 0 / 0); --un-ring-inset: ; --un-ring-offset-width: 0px; --un-ring-offset-color: light-dark(#fff, #000000); --un-ring-width: 0px; --un-ring-color: rgb(147 197 253 / .5); --un-blur: ; --un-brightness: ; --un-contrast: ; --un-drop-shadow: ; --un-grayscale: ; --un-hue-rotate: ; --un-invert: ; --un-saturate: ; --un-sepia: ; --un-backdrop-blur: ; --un-backdrop-brightness: ; --un-backdrop-contrast: ; --un-backdrop-grayscale: ; --un-backdrop-hue-rotate: ; --un-backdrop-invert: ; --un-backdrop-opacity: ; --un-backdrop-saturate: ; --un-backdrop-sepia: ; background-color: transparent; color: light-dark(rgb(0, 0, 0), rgb(255, 255, 255));&quot;&gt;&lt;font style=&quot;font-size: 8px;&quot;&gt;Truncate &amp;amp; Insert&lt;/font&gt;&lt;/span&gt;&lt;/li&gt;&lt;/ul&gt;&lt;p style=&quot;--un-translate-z: 0; --un-pan-x: ; --un-pan-y: ; --un-pinch-zoom: ; --un-scroll-snap-strictness: proximity; --un-ordinal: ; --un-slashed-zero: ; --un-numeric-figure: ; --un-numeric-spacing: ; --un-numeric-fraction: ; --un-border-spacing-x: 0; --un-border-spacing-y: 0; --un-ring-offset-shadow: 0 0 rgb(0 0 0 / 0); --un-ring-shadow: 0 0 rgb(0 0 0 / 0); --un-shadow-inset: ; --un-shadow: 0 0 rgb(0 0 0 / 0); --un-ring-inset: ; --un-ring-offset-width: 0px; --un-ring-offset-color: light-dark(#fff, #000000); --un-ring-width: 0px; --un-ring-color: rgb(147 197 253 / .5); --un-blur: ; --un-brightness: ; --un-contrast: ; --un-drop-shadow: ; --un-grayscale: ; --un-hue-rotate: ; --un-invert: ; --un-saturate: ; --un-sepia: ; --un-backdrop-blur: ; --un-backdrop-brightness: ; --un-backdrop-contrast: ; --un-backdrop-grayscale: ; --un-backdrop-hue-rotate: ; --un-backdrop-invert: ; --un-backdrop-opacity: ; --un-backdrop-saturate: ; --un-backdrop-sepia: ; font-variant-numeric: normal; font-variant-east-asian: normal; font-variant-alternates: normal; font-variant-position: normal; font-variant-emoji: normal; text-align: left; margin: 0px; font-size-adjust: none; font-kerning: auto; font-optical-sizing: auto; font-feature-settings: normal; font-variation-settings: normal; font-stretch: normal;&quot; class=&quot;p1&quot;&gt;&lt;font style=&quot;--un-translate-z: 0; --un-pan-x: ; --un-pan-y: ; --un-pinch-zoom: ; --un-scroll-snap-strictness: proximity; --un-ordinal: ; --un-slashed-zero: ; --un-numeric-figure: ; --un-numeric-spacing: ; --un-numeric-fraction: ; --un-border-spacing-x: 0; --un-border-spacing-y: 0; --un-ring-offset-shadow: 0 0 rgb(0 0 0 / 0); --un-ring-shadow: 0 0 rgb(0 0 0 / 0); --un-shadow-inset: ; --un-shadow: 0 0 rgb(0 0 0 / 0); --un-ring-inset: ; --un-ring-offset-width: 0px; --un-ring-offset-color: light-dark(#fff, #000000); --un-ring-width: 0px; --un-ring-color: rgb(147 197 253 / .5); --un-blur: ; --un-brightness: ; --un-contrast: ; --un-drop-shadow: ; --un-grayscale: ; --un-hue-rotate: ; --un-invert: ; --un-saturate: ; --un-sepia: ; --un-backdrop-blur: ; --un-backdrop-brightness: ; --un-backdrop-contrast: ; --un-backdrop-grayscale: ; --un-backdrop-hue-rotate: ; --un-backdrop-invert: ; --un-backdrop-opacity: ; --un-backdrop-saturate: ; --un-backdrop-sepia: ; line-height: 10px; font-size: 8px;&quot;&gt;&lt;b style=&quot;--un-translate-z: 0; --un-pan-x: ; --un-pan-y: ; --un-pinch-zoom: ; --un-scroll-snap-strictness: proximity; --un-ordinal: ; --un-slashed-zero: ; --un-numeric-figure: ; --un-numeric-spacing: ; --un-numeric-fraction: ; --un-border-spacing-x: 0; --un-border-spacing-y: 0; --un-ring-offset-shadow: 0 0 rgb(0 0 0 / 0); --un-ring-shadow: 0 0 rgb(0 0 0 / 0); --un-shadow-inset: ; --un-shadow: 0 0 rgb(0 0 0 / 0); --un-ring-inset: ; --un-ring-offset-width: 0px; --un-ring-offset-color: light-dark(#fff, #000000); --un-ring-width: 0px; --un-ring-color: rgb(147 197 253 / .5); --un-blur: ; --un-brightness: ; --un-contrast: ; --un-drop-shadow: ; --un-grayscale: ; --un-hue-rotate: ; --un-invert: ; --un-saturate: ; --un-sepia: ; --un-backdrop-blur: ; --un-backdrop-brightness: ; --un-backdrop-contrast: ; --un-backdrop-grayscale: ; --un-backdrop-hue-rotate: ; --un-backdrop-invert: ; --un-backdrop-opacity: ; --un-backdrop-saturate: ; --un-backdrop-sepia: ;&quot;&gt;Transformations:&lt;/b&gt;&lt;/font&gt;&lt;/p&gt;&lt;p style=&quot;--un-translate-z: 0; --un-pan-x: ; --un-pan-y: ; --un-pinch-zoom: ; --un-scroll-snap-strictness: proximity; --un-ordinal: ; --un-slashed-zero: ; --un-numeric-figure: ; --un-numeric-spacing: ; --un-numeric-fraction: ; --un-border-spacing-x: 0; --un-border-spacing-y: 0; --un-ring-offset-shadow: 0 0 rgb(0 0 0 / 0); --un-ring-shadow: 0 0 rgb(0 0 0 / 0); --un-shadow-inset: ; --un-shadow: 0 0 rgb(0 0 0 / 0); --un-ring-inset: ; --un-ring-offset-width: 0px; --un-ring-offset-color: light-dark(#fff, #000000); --un-ring-width: 0px; --un-ring-color: rgb(147 197 253 / .5); --un-blur: ; --un-brightness: ; --un-contrast: ; --un-drop-shadow: ; --un-grayscale: ; --un-hue-rotate: ; --un-invert: ; --un-saturate: ; --un-sepia: ; --un-backdrop-blur: ; --un-backdrop-brightness: ; --un-backdrop-contrast: ; --un-backdrop-grayscale: ; --un-backdrop-hue-rotate: ; --un-backdrop-invert: ; --un-backdrop-opacity: ; --un-backdrop-saturate: ; --un-backdrop-sepia: ; font-variant-numeric: normal; font-variant-east-asian: normal; font-variant-alternates: normal; font-variant-position: normal; font-variant-emoji: normal; text-align: left; margin: 0px; font-size-adjust: none; font-kerning: auto; font-optical-sizing: auto; font-feature-settings: normal; font-variation-settings: normal; font-stretch: normal;&quot; class=&quot;p1&quot;&gt;&lt;/p&gt;&lt;ul&gt;&lt;li style=&quot;text-align: left;&quot;&gt;&lt;font style=&quot;font-size: 8px;&quot;&gt;Data Cleansing&lt;/font&gt;&lt;/li&gt;&lt;li style=&quot;text-align: left;&quot;&gt;&lt;font style=&quot;font-size: 8px;&quot;&gt;Data Standardization&lt;/font&gt;&lt;/li&gt;&lt;li style=&quot;text-align: left;&quot;&gt;&lt;font style=&quot;font-size: 8px;&quot;&gt;Data Normalization&lt;/font&gt;&lt;/li&gt;&lt;li style=&quot;text-align: left;&quot;&gt;&lt;font style=&quot;font-size: 8px;&quot;&gt;Derived Columns&lt;/font&gt;&lt;/li&gt;&lt;li style=&quot;text-align: left;&quot;&gt;&lt;font style=&quot;font-size: 8px;&quot;&gt;Data Enrichment&lt;/font&gt;&lt;/li&gt;&lt;/ul&gt;&lt;p style=&quot;text-align: left; --un-translate-z: 0; --un-pan-x: ; --un-pan-y: ; --un-pinch-zoom: ; --un-scroll-snap-strictness: proximity; --un-ordinal: ; --un-slashed-zero: ; --un-numeric-figure: ; --un-numeric-spacing: ; --un-numeric-fraction: ; --un-border-spacing-x: 0; --un-border-spacing-y: 0; --un-ring-offset-shadow: 0 0 rgb(0 0 0 / 0); --un-ring-shadow: 0 0 rgb(0 0 0 / 0); --un-shadow-inset: ; --un-shadow: 0 0 rgb(0 0 0 / 0); --un-ring-inset: ; --un-ring-offset-width: 0px; --un-ring-offset-color: light-dark(#fff, #000000); --un-ring-width: 0px; --un-ring-color: rgb(147 197 253 / .5); --un-blur: ; --un-brightness: ; --un-contrast: ; --un-drop-shadow: ; --un-grayscale: ; --un-hue-rotate: ; --un-invert: ; --un-saturate: ; --un-sepia: ; --un-backdrop-blur: ; --un-backdrop-brightness: ; --un-backdrop-contrast: ; --un-backdrop-grayscale: ; --un-backdrop-hue-rotate: ; --un-backdrop-invert: ; --un-backdrop-opacity: ; --un-backdrop-saturate: ; --un-backdrop-sepia: ; font-variant-numeric: normal; font-variant-east-asian: normal; font-variant-alternates: normal; font-variant-position: normal; font-variant-emoji: normal; margin: 0px; font-size-adjust: none; font-kerning: auto; font-optical-sizing: auto; font-feature-settings: normal; font-variation-settings: normal; font-stretch: normal;&quot; class=&quot;p1&quot;&gt;&lt;font style=&quot;--un-translate-z: 0; --un-pan-x: ; --un-pan-y: ; --un-pinch-zoom: ; --un-scroll-snap-strictness: proximity; --un-ordinal: ; --un-slashed-zero: ; --un-numeric-figure: ; --un-numeric-spacing: ; --un-numeric-fraction: ; --un-border-spacing-x: 0; --un-border-spacing-y: 0; --un-ring-offset-shadow: 0 0 rgb(0 0 0 / 0); --un-ring-shadow: 0 0 rgb(0 0 0 / 0); --un-shadow-inset: ; --un-shadow: 0 0 rgb(0 0 0 / 0); --un-ring-inset: ; --un-ring-offset-width: 0px; --un-ring-offset-color: light-dark(#fff, #000000); --un-ring-width: 0px; --un-ring-color: rgb(147 197 253 / .5); --un-blur: ; --un-brightness: ; --un-contrast: ; --un-drop-shadow: ; --un-grayscale: ; --un-hue-rotate: ; --un-invert: ; --un-saturate: ; --un-sepia: ; --un-backdrop-blur: ; --un-backdrop-brightness: ; --un-backdrop-contrast: ; --un-backdrop-grayscale: ; --un-backdrop-hue-rotate: ; --un-backdrop-invert: ; --un-backdrop-opacity: ; --un-backdrop-saturate: ; --un-backdrop-sepia: ; line-height: 10px; font-size: 8px;&quot;&gt;&lt;b style=&quot;--un-translate-z: 0; --un-pan-x: ; --un-pan-y: ; --un-pinch-zoom: ; --un-scroll-snap-strictness: proximity; --un-ordinal: ; --un-slashed-zero: ; --un-numeric-figure: ; --un-numeric-spacing: ; --un-numeric-fraction: ; --un-border-spacing-x: 0; --un-border-spacing-y: 0; --un-ring-offset-shadow: 0 0 rgb(0 0 0 / 0); --un-ring-shadow: 0 0 rgb(0 0 0 / 0); --un-shadow-inset: ; --un-shadow: 0 0 rgb(0 0 0 / 0); --un-ring-inset: ; --un-ring-offset-width: 0px; --un-ring-offset-color: light-dark(#fff, #000000); --un-ring-width: 0px; --un-ring-color: rgb(147 197 253 / .5); --un-blur: ; --un-brightness: ; --un-contrast: ; --un-drop-shadow: ; --un-grayscale: ; --un-hue-rotate: ; --un-invert: ; --un-saturate: ; --un-sepia: ; --un-backdrop-blur: ; --un-backdrop-brightness: ; --un-backdrop-contrast: ; --un-backdrop-grayscale: ; --un-backdrop-hue-rotate: ; --un-backdrop-invert: ; --un-backdrop-opacity: ; --un-backdrop-saturate: ; --un-backdrop-sepia: ;&quot;&gt;Data Model:&amp;nbsp;&lt;/b&gt;None (as-is)&lt;/font&gt;&lt;/p&gt;" style="text;html=1;align=center;verticalAlign=middle;whiteSpace=wrap;rounded=0;" parent="1" vertex="1">
          <mxGeometry x="729.5" y="420" width="140" height="200.1" as="geometry" />
        </mxCell>
        <mxCell id="rsRDRYBC7Wn6B_ibloT0-54" value="&lt;p style=&quot;--un-translate-z: 0; --un-pan-x: ; --un-pan-y: ; --un-pinch-zoom: ; --un-scroll-snap-strictness: proximity; --un-ordinal: ; --un-slashed-zero: ; --un-numeric-figure: ; --un-numeric-spacing: ; --un-numeric-fraction: ; --un-border-spacing-x: 0; --un-border-spacing-y: 0; --un-ring-offset-shadow: 0 0 rgb(0 0 0 / 0); --un-ring-shadow: 0 0 rgb(0 0 0 / 0); --un-shadow-inset: ; --un-shadow: 0 0 rgb(0 0 0 / 0); --un-ring-inset: ; --un-ring-offset-width: 0px; --un-ring-offset-color: light-dark(#fff, #000000); --un-ring-width: 0px; --un-ring-color: rgb(147 197 253 / .5); --un-blur: ; --un-brightness: ; --un-contrast: ; --un-drop-shadow: ; --un-grayscale: ; --un-hue-rotate: ; --un-invert: ; --un-saturate: ; --un-sepia: ; --un-backdrop-blur: ; --un-backdrop-brightness: ; --un-backdrop-contrast: ; --un-backdrop-grayscale: ; --un-backdrop-hue-rotate: ; --un-backdrop-invert: ; --un-backdrop-opacity: ; --un-backdrop-saturate: ; --un-backdrop-sepia: ; font-variant-numeric: normal; font-variant-east-asian: normal; font-variant-alternates: normal; font-variant-position: normal; font-variant-emoji: normal; text-align: left; margin: 0px; font-size-adjust: none; font-kerning: auto; font-optical-sizing: auto; font-feature-settings: normal; font-variation-settings: normal; font-stretch: normal;&quot; class=&quot;p1&quot;&gt;&lt;font style=&quot;--un-translate-z: 0; --un-pan-x: ; --un-pan-y: ; --un-pinch-zoom: ; --un-scroll-snap-strictness: proximity; --un-ordinal: ; --un-slashed-zero: ; --un-numeric-figure: ; --un-numeric-spacing: ; --un-numeric-fraction: ; --un-border-spacing-x: 0; --un-border-spacing-y: 0; --un-ring-offset-shadow: 0 0 rgb(0 0 0 / 0); --un-ring-shadow: 0 0 rgb(0 0 0 / 0); --un-shadow-inset: ; --un-shadow: 0 0 rgb(0 0 0 / 0); --un-ring-inset: ; --un-ring-offset-width: 0px; --un-ring-offset-color: light-dark(#fff, #000000); --un-ring-width: 0px; --un-ring-color: rgb(147 197 253 / .5); --un-blur: ; --un-brightness: ; --un-contrast: ; --un-drop-shadow: ; --un-grayscale: ; --un-hue-rotate: ; --un-invert: ; --un-saturate: ; --un-sepia: ; --un-backdrop-blur: ; --un-backdrop-brightness: ; --un-backdrop-contrast: ; --un-backdrop-grayscale: ; --un-backdrop-hue-rotate: ; --un-backdrop-invert: ; --un-backdrop-opacity: ; --un-backdrop-saturate: ; --un-backdrop-sepia: ; line-height: 10px; font-size: 8px;&quot;&gt;&lt;b style=&quot;--un-translate-z: 0; --un-pan-x: ; --un-pan-y: ; --un-pinch-zoom: ; --un-scroll-snap-strictness: proximity; --un-ordinal: ; --un-slashed-zero: ; --un-numeric-figure: ; --un-numeric-spacing: ; --un-numeric-fraction: ; --un-border-spacing-x: 0; --un-border-spacing-y: 0; --un-ring-offset-shadow: 0 0 rgb(0 0 0 / 0); --un-ring-shadow: 0 0 rgb(0 0 0 / 0); --un-shadow-inset: ; --un-shadow: 0 0 rgb(0 0 0 / 0); --un-ring-inset: ; --un-ring-offset-width: 0px; --un-ring-offset-color: light-dark(#fff, #000000); --un-ring-width: 0px; --un-ring-color: rgb(147 197 253 / .5); --un-blur: ; --un-brightness: ; --un-contrast: ; --un-drop-shadow: ; --un-grayscale: ; --un-hue-rotate: ; --un-invert: ; --un-saturate: ; --un-sepia: ; --un-backdrop-blur: ; --un-backdrop-brightness: ; --un-backdrop-contrast: ; --un-backdrop-grayscale: ; --un-backdrop-hue-rotate: ; --un-backdrop-invert: ; --un-backdrop-opacity: ; --un-backdrop-saturate: ; --un-backdrop-sepia: ;&quot;&gt;Object Type:&lt;/b&gt;&amp;nbsp;Views&lt;/font&gt;&lt;/p&gt;&lt;p style=&quot;--un-translate-z: 0; --un-pan-x: ; --un-pan-y: ; --un-pinch-zoom: ; --un-scroll-snap-strictness: proximity; --un-ordinal: ; --un-slashed-zero: ; --un-numeric-figure: ; --un-numeric-spacing: ; --un-numeric-fraction: ; --un-border-spacing-x: 0; --un-border-spacing-y: 0; --un-ring-offset-shadow: 0 0 rgb(0 0 0 / 0); --un-ring-shadow: 0 0 rgb(0 0 0 / 0); --un-shadow-inset: ; --un-shadow: 0 0 rgb(0 0 0 / 0); --un-ring-inset: ; --un-ring-offset-width: 0px; --un-ring-offset-color: light-dark(#fff, #000000); --un-ring-width: 0px; --un-ring-color: rgb(147 197 253 / .5); --un-blur: ; --un-brightness: ; --un-contrast: ; --un-drop-shadow: ; --un-grayscale: ; --un-hue-rotate: ; --un-invert: ; --un-saturate: ; --un-sepia: ; --un-backdrop-blur: ; --un-backdrop-brightness: ; --un-backdrop-contrast: ; --un-backdrop-grayscale: ; --un-backdrop-hue-rotate: ; --un-backdrop-invert: ; --un-backdrop-opacity: ; --un-backdrop-saturate: ; --un-backdrop-sepia: ; font-variant-numeric: normal; font-variant-east-asian: normal; font-variant-alternates: normal; font-variant-position: normal; font-variant-emoji: normal; text-align: left; margin: 0px; font-size-adjust: none; font-kerning: auto; font-optical-sizing: auto; font-feature-settings: normal; font-variation-settings: normal; font-stretch: normal;&quot; class=&quot;p1&quot;&gt;&lt;span style=&quot;--un-translate-z: 0; --un-pan-x: ; --un-pan-y: ; --un-pinch-zoom: ; --un-scroll-snap-strictness: proximity; --un-ordinal: ; --un-slashed-zero: ; --un-numeric-figure: ; --un-numeric-spacing: ; --un-numeric-fraction: ; --un-border-spacing-x: 0; --un-border-spacing-y: 0; --un-ring-offset-shadow: 0 0 rgb(0 0 0 / 0); --un-ring-shadow: 0 0 rgb(0 0 0 / 0); --un-shadow-inset: ; --un-shadow: 0 0 rgb(0 0 0 / 0); --un-ring-inset: ; --un-ring-offset-width: 0px; --un-ring-offset-color: light-dark(#fff, #000000); --un-ring-width: 0px; --un-ring-color: rgb(147 197 253 / .5); --un-blur: ; --un-brightness: ; --un-contrast: ; --un-drop-shadow: ; --un-grayscale: ; --un-hue-rotate: ; --un-invert: ; --un-saturate: ; --un-sepia: ; --un-backdrop-blur: ; --un-backdrop-brightness: ; --un-backdrop-contrast: ; --un-backdrop-grayscale: ; --un-backdrop-hue-rotate: ; --un-backdrop-invert: ; --un-backdrop-opacity: ; --un-backdrop-saturate: ; --un-backdrop-sepia: ;&quot;&gt;&lt;font style=&quot;--un-translate-z: 0; --un-pan-x: ; --un-pan-y: ; --un-pinch-zoom: ; --un-scroll-snap-strictness: proximity; --un-ordinal: ; --un-slashed-zero: ; --un-numeric-figure: ; --un-numeric-spacing: ; --un-numeric-fraction: ; --un-border-spacing-x: 0; --un-border-spacing-y: 0; --un-ring-offset-shadow: 0 0 rgb(0 0 0 / 0); --un-ring-shadow: 0 0 rgb(0 0 0 / 0); --un-shadow-inset: ; --un-shadow: 0 0 rgb(0 0 0 / 0); --un-ring-inset: ; --un-ring-offset-width: 0px; --un-ring-offset-color: light-dark(#fff, #000000); --un-ring-width: 0px; --un-ring-color: rgb(147 197 253 / .5); --un-blur: ; --un-brightness: ; --un-contrast: ; --un-drop-shadow: ; --un-grayscale: ; --un-hue-rotate: ; --un-invert: ; --un-saturate: ; --un-sepia: ; --un-backdrop-blur: ; --un-backdrop-brightness: ; --un-backdrop-contrast: ; --un-backdrop-grayscale: ; --un-backdrop-hue-rotate: ; --un-backdrop-invert: ; --un-backdrop-opacity: ; --un-backdrop-saturate: ; --un-backdrop-sepia: ; line-height: 10px; font-size: 8px;&quot;&gt;No &lt;b&gt;Load&lt;/b&gt;&lt;/font&gt;&lt;/span&gt;&lt;/p&gt;&lt;p style=&quot;--un-translate-z: 0; --un-pan-x: ; --un-pan-y: ; --un-pinch-zoom: ; --un-scroll-snap-strictness: proximity; --un-ordinal: ; --un-slashed-zero: ; --un-numeric-figure: ; --un-numeric-spacing: ; --un-numeric-fraction: ; --un-border-spacing-x: 0; --un-border-spacing-y: 0; --un-ring-offset-shadow: 0 0 rgb(0 0 0 / 0); --un-ring-shadow: 0 0 rgb(0 0 0 / 0); --un-shadow-inset: ; --un-shadow: 0 0 rgb(0 0 0 / 0); --un-ring-inset: ; --un-ring-offset-width: 0px; --un-ring-offset-color: light-dark(#fff, #000000); --un-ring-width: 0px; --un-ring-color: rgb(147 197 253 / .5); --un-blur: ; --un-brightness: ; --un-contrast: ; --un-drop-shadow: ; --un-grayscale: ; --un-hue-rotate: ; --un-invert: ; --un-saturate: ; --un-sepia: ; --un-backdrop-blur: ; --un-backdrop-brightness: ; --un-backdrop-contrast: ; --un-backdrop-grayscale: ; --un-backdrop-hue-rotate: ; --un-backdrop-invert: ; --un-backdrop-opacity: ; --un-backdrop-saturate: ; --un-backdrop-sepia: ; font-variant-numeric: normal; font-variant-east-asian: normal; font-variant-alternates: normal; font-variant-position: normal; font-variant-emoji: normal; text-align: left; margin: 0px; font-size-adjust: none; font-kerning: auto; font-optical-sizing: auto; font-feature-settings: normal; font-variation-settings: normal; font-stretch: normal;&quot; class=&quot;p1&quot;&gt;&lt;font style=&quot;--un-translate-z: 0; --un-pan-x: ; --un-pan-y: ; --un-pinch-zoom: ; --un-scroll-snap-strictness: proximity; --un-ordinal: ; --un-slashed-zero: ; --un-numeric-figure: ; --un-numeric-spacing: ; --un-numeric-fraction: ; --un-border-spacing-x: 0; --un-border-spacing-y: 0; --un-ring-offset-shadow: 0 0 rgb(0 0 0 / 0); --un-ring-shadow: 0 0 rgb(0 0 0 / 0); --un-shadow-inset: ; --un-shadow: 0 0 rgb(0 0 0 / 0); --un-ring-inset: ; --un-ring-offset-width: 0px; --un-ring-offset-color: light-dark(#fff, #000000); --un-ring-width: 0px; --un-ring-color: rgb(147 197 253 / .5); --un-blur: ; --un-brightness: ; --un-contrast: ; --un-drop-shadow: ; --un-grayscale: ; --un-hue-rotate: ; --un-invert: ; --un-saturate: ; --un-sepia: ; --un-backdrop-blur: ; --un-backdrop-brightness: ; --un-backdrop-contrast: ; --un-backdrop-grayscale: ; --un-backdrop-hue-rotate: ; --un-backdrop-invert: ; --un-backdrop-opacity: ; --un-backdrop-saturate: ; --un-backdrop-sepia: ; line-height: 10px; font-size: 8px;&quot;&gt;&lt;b style=&quot;--un-translate-z: 0; --un-pan-x: ; --un-pan-y: ; --un-pinch-zoom: ; --un-scroll-snap-strictness: proximity; --un-ordinal: ; --un-slashed-zero: ; --un-numeric-figure: ; --un-numeric-spacing: ; --un-numeric-fraction: ; --un-border-spacing-x: 0; --un-border-spacing-y: 0; --un-ring-offset-shadow: 0 0 rgb(0 0 0 / 0); --un-ring-shadow: 0 0 rgb(0 0 0 / 0); --un-shadow-inset: ; --un-shadow: 0 0 rgb(0 0 0 / 0); --un-ring-inset: ; --un-ring-offset-width: 0px; --un-ring-offset-color: light-dark(#fff, #000000); --un-ring-width: 0px; --un-ring-color: rgb(147 197 253 / .5); --un-blur: ; --un-brightness: ; --un-contrast: ; --un-drop-shadow: ; --un-grayscale: ; --un-hue-rotate: ; --un-invert: ; --un-saturate: ; --un-sepia: ; --un-backdrop-blur: ; --un-backdrop-brightness: ; --un-backdrop-contrast: ; --un-backdrop-grayscale: ; --un-backdrop-hue-rotate: ; --un-backdrop-invert: ; --un-backdrop-opacity: ; --un-backdrop-saturate: ; --un-backdrop-sepia: ;&quot;&gt;Transformations:&lt;/b&gt;&lt;/font&gt;&lt;/p&gt;&lt;p style=&quot;--un-translate-z: 0; --un-pan-x: ; --un-pan-y: ; --un-pinch-zoom: ; --un-scroll-snap-strictness: proximity; --un-ordinal: ; --un-slashed-zero: ; --un-numeric-figure: ; --un-numeric-spacing: ; --un-numeric-fraction: ; --un-border-spacing-x: 0; --un-border-spacing-y: 0; --un-ring-offset-shadow: 0 0 rgb(0 0 0 / 0); --un-ring-shadow: 0 0 rgb(0 0 0 / 0); --un-shadow-inset: ; --un-shadow: 0 0 rgb(0 0 0 / 0); --un-ring-inset: ; --un-ring-offset-width: 0px; --un-ring-offset-color: light-dark(#fff, #000000); --un-ring-width: 0px; --un-ring-color: rgb(147 197 253 / .5); --un-blur: ; --un-brightness: ; --un-contrast: ; --un-drop-shadow: ; --un-grayscale: ; --un-hue-rotate: ; --un-invert: ; --un-saturate: ; --un-sepia: ; --un-backdrop-blur: ; --un-backdrop-brightness: ; --un-backdrop-contrast: ; --un-backdrop-grayscale: ; --un-backdrop-hue-rotate: ; --un-backdrop-invert: ; --un-backdrop-opacity: ; --un-backdrop-saturate: ; --un-backdrop-sepia: ; font-variant-numeric: normal; font-variant-east-asian: normal; font-variant-alternates: normal; font-variant-position: normal; font-variant-emoji: normal; text-align: left; margin: 0px; font-size-adjust: none; font-kerning: auto; font-optical-sizing: auto; font-feature-settings: normal; font-variation-settings: normal; font-stretch: normal;&quot; class=&quot;p1&quot;&gt;&lt;/p&gt;&lt;ul&gt;&lt;li style=&quot;text-align: left;&quot;&gt;&lt;font style=&quot;font-size: 8px;&quot;&gt;Data Integration&lt;/font&gt;&lt;/li&gt;&lt;li style=&quot;text-align: left;&quot;&gt;&lt;span style=&quot;font-size: 8px;&quot;&gt;Aggregations&lt;/span&gt;&lt;/li&gt;&lt;li style=&quot;text-align: left;&quot;&gt;&lt;span style=&quot;font-size: 8px;&quot;&gt;Business Logic&lt;/span&gt;&lt;/li&gt;&lt;/ul&gt;&lt;p style=&quot;text-align: left; --un-translate-z: 0; --un-pan-x: ; --un-pan-y: ; --un-pinch-zoom: ; --un-scroll-snap-strictness: proximity; --un-ordinal: ; --un-slashed-zero: ; --un-numeric-figure: ; --un-numeric-spacing: ; --un-numeric-fraction: ; --un-border-spacing-x: 0; --un-border-spacing-y: 0; --un-ring-offset-shadow: 0 0 rgb(0 0 0 / 0); --un-ring-shadow: 0 0 rgb(0 0 0 / 0); --un-shadow-inset: ; --un-shadow: 0 0 rgb(0 0 0 / 0); --un-ring-inset: ; --un-ring-offset-width: 0px; --un-ring-offset-color: light-dark(#fff, #000000); --un-ring-width: 0px; --un-ring-color: rgb(147 197 253 / .5); --un-blur: ; --un-brightness: ; --un-contrast: ; --un-drop-shadow: ; --un-grayscale: ; --un-hue-rotate: ; --un-invert: ; --un-saturate: ; --un-sepia: ; --un-backdrop-blur: ; --un-backdrop-brightness: ; --un-backdrop-contrast: ; --un-backdrop-grayscale: ; --un-backdrop-hue-rotate: ; --un-backdrop-invert: ; --un-backdrop-opacity: ; --un-backdrop-saturate: ; --un-backdrop-sepia: ; font-variant-numeric: normal; font-variant-east-asian: normal; font-variant-alternates: normal; font-variant-position: normal; font-variant-emoji: normal; margin: 0px; font-size-adjust: none; font-kerning: auto; font-optical-sizing: auto; font-feature-settings: normal; font-variation-settings: normal; font-stretch: normal;&quot; class=&quot;p1&quot;&gt;&lt;font style=&quot;--un-translate-z: 0; --un-pan-x: ; --un-pan-y: ; --un-pinch-zoom: ; --un-scroll-snap-strictness: proximity; --un-ordinal: ; --un-slashed-zero: ; --un-numeric-figure: ; --un-numeric-spacing: ; --un-numeric-fraction: ; --un-border-spacing-x: 0; --un-border-spacing-y: 0; --un-ring-offset-shadow: 0 0 rgb(0 0 0 / 0); --un-ring-shadow: 0 0 rgb(0 0 0 / 0); --un-shadow-inset: ; --un-shadow: 0 0 rgb(0 0 0 / 0); --un-ring-inset: ; --un-ring-offset-width: 0px; --un-ring-offset-color: light-dark(#fff, #000000); --un-ring-width: 0px; --un-ring-color: rgb(147 197 253 / .5); --un-blur: ; --un-brightness: ; --un-contrast: ; --un-drop-shadow: ; --un-grayscale: ; --un-hue-rotate: ; --un-invert: ; --un-saturate: ; --un-sepia: ; --un-backdrop-blur: ; --un-backdrop-brightness: ; --un-backdrop-contrast: ; --un-backdrop-grayscale: ; --un-backdrop-hue-rotate: ; --un-backdrop-invert: ; --un-backdrop-opacity: ; --un-backdrop-saturate: ; --un-backdrop-sepia: ; line-height: 10px; font-size: 8px;&quot;&gt;&lt;b style=&quot;--un-translate-z: 0; --un-pan-x: ; --un-pan-y: ; --un-pinch-zoom: ; --un-scroll-snap-strictness: proximity; --un-ordinal: ; --un-slashed-zero: ; --un-numeric-figure: ; --un-numeric-spacing: ; --un-numeric-fraction: ; --un-border-spacing-x: 0; --un-border-spacing-y: 0; --un-ring-offset-shadow: 0 0 rgb(0 0 0 / 0); --un-ring-shadow: 0 0 rgb(0 0 0 / 0); --un-shadow-inset: ; --un-shadow: 0 0 rgb(0 0 0 / 0); --un-ring-inset: ; --un-ring-offset-width: 0px; --un-ring-offset-color: light-dark(#fff, #000000); --un-ring-width: 0px; --un-ring-color: rgb(147 197 253 / .5); --un-blur: ; --un-brightness: ; --un-contrast: ; --un-drop-shadow: ; --un-grayscale: ; --un-hue-rotate: ; --un-invert: ; --un-saturate: ; --un-sepia: ; --un-backdrop-blur: ; --un-backdrop-brightness: ; --un-backdrop-contrast: ; --un-backdrop-grayscale: ; --un-backdrop-hue-rotate: ; --un-backdrop-invert: ; --un-backdrop-opacity: ; --un-backdrop-saturate: ; --un-backdrop-sepia: ;&quot;&gt;Data Model:&lt;/b&gt;&lt;/font&gt;&lt;/p&gt;&lt;p style=&quot;text-align: left; --un-translate-z: 0; --un-pan-x: ; --un-pan-y: ; --un-pinch-zoom: ; --un-scroll-snap-strictness: proximity; --un-ordinal: ; --un-slashed-zero: ; --un-numeric-figure: ; --un-numeric-spacing: ; --un-numeric-fraction: ; --un-border-spacing-x: 0; --un-border-spacing-y: 0; --un-ring-offset-shadow: 0 0 rgb(0 0 0 / 0); --un-ring-shadow: 0 0 rgb(0 0 0 / 0); --un-shadow-inset: ; --un-shadow: 0 0 rgb(0 0 0 / 0); --un-ring-inset: ; --un-ring-offset-width: 0px; --un-ring-offset-color: light-dark(#fff, #000000); --un-ring-width: 0px; --un-ring-color: rgb(147 197 253 / .5); --un-blur: ; --un-brightness: ; --un-contrast: ; --un-drop-shadow: ; --un-grayscale: ; --un-hue-rotate: ; --un-invert: ; --un-saturate: ; --un-sepia: ; --un-backdrop-blur: ; --un-backdrop-brightness: ; --un-backdrop-contrast: ; --un-backdrop-grayscale: ; --un-backdrop-hue-rotate: ; --un-backdrop-invert: ; --un-backdrop-opacity: ; --un-backdrop-saturate: ; --un-backdrop-sepia: ; font-variant-numeric: normal; font-variant-east-asian: normal; font-variant-alternates: normal; font-variant-position: normal; font-variant-emoji: normal; margin: 0px; font-size-adjust: none; font-kerning: auto; font-optical-sizing: auto; font-feature-settings: normal; font-variation-settings: normal; font-stretch: normal;&quot; class=&quot;p1&quot;&gt;&lt;/p&gt;&lt;ul&gt;&lt;li style=&quot;text-align: left;&quot;&gt;&lt;font style=&quot;--un-translate-z: 0; --un-pan-x: ; --un-pan-y: ; --un-pinch-zoom: ; --un-scroll-snap-strictness: proximity; --un-ordinal: ; --un-slashed-zero: ; --un-numeric-figure: ; --un-numeric-spacing: ; --un-numeric-fraction: ; --un-border-spacing-x: 0; --un-border-spacing-y: 0; --un-ring-offset-shadow: 0 0 rgb(0 0 0 / 0); --un-ring-shadow: 0 0 rgb(0 0 0 / 0); --un-shadow-inset: ; --un-shadow: 0 0 rgb(0 0 0 / 0); --un-ring-inset: ; --un-ring-offset-width: 0px; --un-ring-offset-color: light-dark(#fff, #000000); --un-ring-width: 0px; --un-ring-color: rgb(147 197 253 / .5); --un-blur: ; --un-brightness: ; --un-contrast: ; --un-drop-shadow: ; --un-grayscale: ; --un-hue-rotate: ; --un-invert: ; --un-saturate: ; --un-sepia: ; --un-backdrop-blur: ; --un-backdrop-brightness: ; --un-backdrop-contrast: ; --un-backdrop-grayscale: ; --un-backdrop-hue-rotate: ; --un-backdrop-invert: ; --un-backdrop-opacity: ; --un-backdrop-saturate: ; --un-backdrop-sepia: ; line-height: 10px; font-size: 9px;&quot;&gt;&lt;span style=&quot;--un-translate-z: 0; --un-pan-x: ; --un-pan-y: ; --un-pinch-zoom: ; --un-scroll-snap-strictness: proximity; --un-ordinal: ; --un-slashed-zero: ; --un-numeric-figure: ; --un-numeric-spacing: ; --un-numeric-fraction: ; --un-border-spacing-x: 0; --un-border-spacing-y: 0; --un-ring-offset-shadow: 0 0 rgb(0 0 0 / 0); --un-ring-shadow: 0 0 rgb(0 0 0 / 0); --un-shadow-inset: ; --un-shadow: 0 0 rgb(0 0 0 / 0); --un-ring-inset: ; --un-ring-offset-width: 0px; --un-ring-offset-color: light-dark(#fff, #000000); --un-ring-width: 0px; --un-ring-color: rgb(147 197 253 / .5); --un-blur: ; --un-brightness: ; --un-contrast: ; --un-drop-shadow: ; --un-grayscale: ; --un-hue-rotate: ; --un-invert: ; --un-saturate: ; --un-sepia: ; --un-backdrop-blur: ; --un-backdrop-brightness: ; --un-backdrop-contrast: ; --un-backdrop-grayscale: ; --un-backdrop-hue-rotate: ; --un-backdrop-invert: ; --un-backdrop-opacity: ; --un-backdrop-saturate: ; --un-backdrop-sepia: ;&quot;&gt;Star Schema&lt;/span&gt;&lt;/font&gt;&lt;/li&gt;&lt;li style=&quot;text-align: left;&quot;&gt;&lt;font style=&quot;--un-translate-z: 0; --un-pan-x: ; --un-pan-y: ; --un-pinch-zoom: ; --un-scroll-snap-strictness: proximity; --un-ordinal: ; --un-slashed-zero: ; --un-numeric-figure: ; --un-numeric-spacing: ; --un-numeric-fraction: ; --un-border-spacing-x: 0; --un-border-spacing-y: 0; --un-ring-offset-shadow: 0 0 rgb(0 0 0 / 0); --un-ring-shadow: 0 0 rgb(0 0 0 / 0); --un-shadow-inset: ; --un-shadow: 0 0 rgb(0 0 0 / 0); --un-ring-inset: ; --un-ring-offset-width: 0px; --un-ring-offset-color: light-dark(#fff, #000000); --un-ring-width: 0px; --un-ring-color: rgb(147 197 253 / .5); --un-blur: ; --un-brightness: ; --un-contrast: ; --un-drop-shadow: ; --un-grayscale: ; --un-hue-rotate: ; --un-invert: ; --un-saturate: ; --un-sepia: ; --un-backdrop-blur: ; --un-backdrop-brightness: ; --un-backdrop-contrast: ; --un-backdrop-grayscale: ; --un-backdrop-hue-rotate: ; --un-backdrop-invert: ; --un-backdrop-opacity: ; --un-backdrop-saturate: ; --un-backdrop-sepia: ; line-height: 10px; font-size: 9px;&quot;&gt;&lt;span style=&quot;--un-translate-z: 0; --un-pan-x: ; --un-pan-y: ; --un-pinch-zoom: ; --un-scroll-snap-strictness: proximity; --un-ordinal: ; --un-slashed-zero: ; --un-numeric-figure: ; --un-numeric-spacing: ; --un-numeric-fraction: ; --un-border-spacing-x: 0; --un-border-spacing-y: 0; --un-ring-offset-shadow: 0 0 rgb(0 0 0 / 0); --un-ring-shadow: 0 0 rgb(0 0 0 / 0); --un-shadow-inset: ; --un-shadow: 0 0 rgb(0 0 0 / 0); --un-ring-inset: ; --un-ring-offset-width: 0px; --un-ring-offset-color: light-dark(#fff, #000000); --un-ring-width: 0px; --un-ring-color: rgb(147 197 253 / .5); --un-blur: ; --un-brightness: ; --un-contrast: ; --un-drop-shadow: ; --un-grayscale: ; --un-hue-rotate: ; --un-invert: ; --un-saturate: ; --un-sepia: ; --un-backdrop-blur: ; --un-backdrop-brightness: ; --un-backdrop-contrast: ; --un-backdrop-grayscale: ; --un-backdrop-hue-rotate: ; --un-backdrop-invert: ; --un-backdrop-opacity: ; --un-backdrop-saturate: ; --un-backdrop-sepia: ;&quot;&gt;Flat Table&lt;/span&gt;&lt;/font&gt;&lt;/li&gt;&lt;li style=&quot;text-align: left;&quot;&gt;&lt;font style=&quot;--un-translate-z: 0; --un-pan-x: ; --un-pan-y: ; --un-pinch-zoom: ; --un-scroll-snap-strictness: proximity; --un-ordinal: ; --un-slashed-zero: ; --un-numeric-figure: ; --un-numeric-spacing: ; --un-numeric-fraction: ; --un-border-spacing-x: 0; --un-border-spacing-y: 0; --un-ring-offset-shadow: 0 0 rgb(0 0 0 / 0); --un-ring-shadow: 0 0 rgb(0 0 0 / 0); --un-shadow-inset: ; --un-shadow: 0 0 rgb(0 0 0 / 0); --un-ring-inset: ; --un-ring-offset-width: 0px; --un-ring-offset-color: light-dark(#fff, #000000); --un-ring-width: 0px; --un-ring-color: rgb(147 197 253 / .5); --un-blur: ; --un-brightness: ; --un-contrast: ; --un-drop-shadow: ; --un-grayscale: ; --un-hue-rotate: ; --un-invert: ; --un-saturate: ; --un-sepia: ; --un-backdrop-blur: ; --un-backdrop-brightness: ; --un-backdrop-contrast: ; --un-backdrop-grayscale: ; --un-backdrop-hue-rotate: ; --un-backdrop-invert: ; --un-backdrop-opacity: ; --un-backdrop-saturate: ; --un-backdrop-sepia: ; line-height: 10px; font-size: 9px;&quot;&gt;&lt;span style=&quot;--un-translate-z: 0; --un-pan-x: ; --un-pan-y: ; --un-pinch-zoom: ; --un-scroll-snap-strictness: proximity; --un-ordinal: ; --un-slashed-zero: ; --un-numeric-figure: ; --un-numeric-spacing: ; --un-numeric-fraction: ; --un-border-spacing-x: 0; --un-border-spacing-y: 0; --un-ring-offset-shadow: 0 0 rgb(0 0 0 / 0); --un-ring-shadow: 0 0 rgb(0 0 0 / 0); --un-shadow-inset: ; --un-shadow: 0 0 rgb(0 0 0 / 0); --un-ring-inset: ; --un-ring-offset-width: 0px; --un-ring-offset-color: light-dark(#fff, #000000); --un-ring-width: 0px; --un-ring-color: rgb(147 197 253 / .5); --un-blur: ; --un-brightness: ; --un-contrast: ; --un-drop-shadow: ; --un-grayscale: ; --un-hue-rotate: ; --un-invert: ; --un-saturate: ; --un-sepia: ; --un-backdrop-blur: ; --un-backdrop-brightness: ; --un-backdrop-contrast: ; --un-backdrop-grayscale: ; --un-backdrop-hue-rotate: ; --un-backdrop-invert: ; --un-backdrop-opacity: ; --un-backdrop-saturate: ; --un-backdrop-sepia: ;&quot;&gt;Aggregated Table&lt;/span&gt;&lt;/font&gt;&lt;/li&gt;&lt;/ul&gt;&lt;p&gt;&lt;/p&gt;" style="text;html=1;align=center;verticalAlign=middle;whiteSpace=wrap;rounded=0;" parent="1" vertex="1">
          <mxGeometry x="932" y="420" width="140" height="200.1" as="geometry" />
        </mxCell>
        <mxCell id="rsRDRYBC7Wn6B_ibloT0-55" value="" style="html=1;shadow=0;dashed=0;align=center;verticalAlign=middle;shape=mxgraph.arrows2.arrow;dy=0.6;dx=40;notch=0;fillColor=#dae8fc;strokeColor=#6c8ebf;" parent="1" vertex="1">
          <mxGeometry x="667" y="403.04" width="70" height="50" as="geometry" />
        </mxCell>
        <mxCell id="rsRDRYBC7Wn6B_ibloT0-57" value="" style="image;aspect=fixed;html=1;points=[];align=center;fontSize=12;image=img/lib/azure2/analytics/Power_BI_Embedded.svg;" parent="1" vertex="1">
          <mxGeometry x="1192" y="322.2900000000001" width="41" height="54.67" as="geometry" />
        </mxCell>
        <mxCell id="rsRDRYBC7Wn6B_ibloT0-60" value="" style="shape=image;verticalLabelPosition=bottom;labelBackgroundColor=default;verticalAlign=top;aspect=fixed;imageAspect=0;image=data:image/png,iVBORw0KGgoAAAANSUhEUgAAAOEAAADhCAMAAAAJbSJIAAABs1BMVEX///////37/////v////r6/////P///fz9//z9/v/8//3//fljgYz+//nAIzf//vRZaIhdiJj11NomRGC8KETpdTPieTD/+ODsdCvoeCbZcDXz28TsjSdjgZAgRIEjPXHF1t/eqm5XiZ7Q4eTFIzIgQ3yYsLfMHzUeRnptm6Xde0X/y9bi4ufrkiXmkyldhJ2DnqZaZpTK0Nfw3LFZYZV2fZvgglRTWn/Tn1tsjKHo8PWnEDA6Vn3fkz1xlKQOP3DCwc7hyKTht8OrwsZrcJWjosX129jKGjyyQkji8vJtmKqqwMHwkCBZYpe4KDYdPmVviY1rnqRvnq7+9NLZuorioFbZ6eqClJz++deYqrZskpNonqOuxsSOo6Tu4LPz2J3elkjs4sH/98nCo1PJmjfwkTnGl2HTpkncmiP8kBr0ijDam2TtjUPTtXjYq1/aqnX/3LjDc0P2dxxSUHFSW3Jwd4Xju5v06NrBhFjWcEGlp7uLjLbz5u26m6XNoYDZnHX4trq3XW24OVKrRVE/Un8/UmoXS3G3Fz2kJT2XQE1ba3vixcrkmaCJEygbOYGwa3K/WmgYEbEIAAAUXElEQVR4nO2djV8UR5rHu7q7uqq6bXokgeFViYgwHCAQCDgeAy4GFxVEUIgYdy+5de/M5XajK8ud6+1uNDF7Zm+TP/mep/qtemZoUWhnhk//VJzpamb6O0+9PPXUUz2alitXrly5cuXKlStXrly5cuXKlStXrly5cuXKlStXrly5cuWqJ0LinydS3HUcXafEObGIVKfTAwMD2yfXiIKubuxWNpZpoy8kM1l0e7dUqpxkQrG6e7tUWtYbfSGZiRFJeKPR15GZiMNXN6CWnlxCjUNPU7leaa1aWtXxq0+NmkOUru5Url9K7WlIkw0lBIZwSnUhBAwFVHMck4dFBkpoxHSFEUgPbBgdwA9BF+qnQJjjEG5zThgzBL5ugwXuiU65STTDcWybm65rR2U+AhASNAxCEOETBr8bcal2Mwzb/8yYQxg8t+MXbIx03TZdz3WY57koXnNBxLQDwcexunEdCe3oUKD4dAF8ktAxHWRsuBUpNYHNZMxGPrjmqJb612aggQIcDoQVILwB1TAANKVUQqDTgc+ASmGa4MA2npB7nokfOqU2hx+CxUXQZRpMI75V0VBEEpZu2CQ8ghUbCDUVgxjwW5aFNncIEY12gHTTc7FauRK1rFtWVASEBH1Rih2GAMvAB7Ba2dws+X2pPEopIhItGj8kFWOyCCchrOE2hO6TgPmKW8Wtra2iKxRC3SaMQEc0sKxot7RZuqAeWLWRMBIQQtUsl1dRFMzccELo8hilxTvz83fvzt8pukZcSwVcnwmD/IONSqRJ8Lw346eVnY1tmiQ0CdP1nZ3JEhQO4jDScEKDEeF9Nj8xMT6+MP8Z9KpxGRA6NqUXSqGubyIh9DXRkQoQcpVQk/Xz1GlQ/6lBajeekAidmWbxo77xiZvj80XPjD0yxgAeWtODyGK3d3cnsaspKUbcpk6yp8EhFgnPnT41qDc+4kEcPSbsA0Iv6vqgvyA4eNMbFxQBYWUyfnrvXlkz1Z5GJexvdkIcCHU5fsdaxTa5rB4RrGUJNc65LYeE0HEhMAPeKKFPEx3RcdBrXUKbE3DIrZjHsmAGfLukEIJT47zBhg3uadJt6EMY0RFLW929f1ud45Mary1J2Pi5VBphZKf4dH0VRovSjXgUrz2l5QlxblETxUic00KETOLxsLLixeowx6+oPY10V4XWxIRaNaFb3TGos1yY48t4qYiO1FHTE6ZFmQwNRovNcI5/gFqakBnBHD9NrUxImCbn+Mta2mU3GWFNT5NKiFGMzU3oS9MJOW2CET/qDOsQ1hnjwt+i2A5Ln7tvQ5gZQ7pSCOsMg6HA834A04vPUwOETUbIqwmdmLA2nkt1mBCvUsrqv2jw0o7ZYEIZHzQjaZrpukg4DjNgmONrUUloyvgaLYx5CDWWU1/Y05xDwnptMFtkYdu64fT29n4c6osvPv74Vx//+u7C+M2bff/ya/k80K/wca/HEharuj4hmNgerFH/6XMXz53rX64+PjBIM47cCA/05b/+5jcLVXr41QQg3uzrm5iIjvVNLDxc+G1RT7sgXO7YOdXfLwMzUqfgWf9p4AMjnu4/BVKLTpWJqWW5dGW5rut9+W//Pj7eF+jm+ITPNg7Hbj569Agx/RL5eL6Y6gMIYdPJfmx1oSQLAl70H/dfjIuAfVWYmY4flqDCKt59+NV4qL6HCxMTN2/CPzDZBGghKgJrTkzMb0HTPFg2EiLexVDy8bmQUCnAoxf7V2m2hIbLhbX/H19/1RdiINy4T7iAREnC8Ym76YSCA+HF0HSnfWP6VosI46KLQKhnSkiI53Fna37hYYRxE0gmZK2E/yf6oL5GRY/wKNgwbfQTnNOd/hgisJpSYxXC0xdP95ftjNshd2229Z+/m4/00Uf47+7EOFhyfOEuRr5D3cW/d/bttO5dEFO/11+p7FwKBfPHS5f6Zbs8famysYFP46KdcsYDpNBtYTnFrWIkr7gFz778HdTVRzfvfllM6rOtoiPScrwEcVi5vFpOaHW1X9bW/gH5RCkolwVjxsEvd3S5nmdbBrMsHozqnHpFj9Li7x8uAOF8kVIjLIIyCufDiBcvYSdeDK0BLoCj6eC6uKEIrlb19/sjPrgXOo2KwCHSwWXIlLDW2+S6TTiPovquqVf9gvrEYVS3LHBqNFxuBK9Hj9MVI2+W+bOnc6HXphTVvOJ7kO95u3XjNLUnQw3gvqHATuD5kXont1BEuFbhyr2A/lAS1usVW5qQ2jDauDDDcolOhVm/329pQq/3G6legKSCkEMRNnFUv/bk3sedPaOjnT2Pez1O9cMQNmGcJtWGvY+7O0d7ujuB0JWE9V+yhQlXPunqGu3p6vAJtfoDW4JQNJ7Q1HVyeBuOPunu7HzSNYoN8c2EpxI2fD+sXIsz7vy3BULmmGEUo05UXxHpHe3o7uro7O7p9cD2hNXtRZKEmF6jyTxHcJJszOjLFlSvnrATk4aEQSTqbQjrxiMShNwnDFIAXVdGf44VqUpUZp0p71FLmBYRfkfC0F3D5WIgNLNElIthtto4qgnNDGwYvBvB9BUZ58sQ0TIMgYRR+Kya0M3EhjK+JmQMUsjMt2MHi2RZBuZ/xheWIMS5hZM64r8zISBaY9NSesaEFt0GlaPLiQgnJKFpZkEIzU8IbekPc3NzT/fKLFNCmPVMbmxsXIgup6qWmlnYEPsXZlhLc1NThcJe2ciSEABXd3dLpRrC32MgceK3RbfulC88+ZCEXPejwHI89PsWh1ja0swUIM4KzanzW8cng06WEoRECOJ4Ms5/BS6cpaxJHIoQ7CX06enlgc+np8sCV0mw68QfS2DBqZlZyjON6huSsBIT4gRBh8m7h1Epz3NIyrrSYQglT5jzpmMeNRxBj6ahhFQ4rofthfuhpIN0uFqKbyOozPgTOPQ0BSEgOtIZ0MFxPPi3k4TiAEJDrkgRP+lPRlSbgZAin20LLXWTi0qIHntdDxO9egN7FyZk+FHXG0uoyXaIwl0XRJ121KqK8OBaKvvPIH4o7EYTav6+AuxsPEdLIxTV7fDAWQIJUxbxhAbXUv96olV9JUGhXnWtJqz3FuFL8QDRMN4HYXzdRjgexmFo/wMn/q4R6E3BrIRF0OqivqkQevDUdaJz5D9seIY8gluIuCl3jCFh1XiYmujwboCO43JuEwaONxBWkNA0/dmaZQlmcxJvNhTU0YhL96/88UqNPurp6ezo6OjqvFNbduePRd2Ct1BqOczqhRbkUMO0Br22qbnZsh0vSFIdUx+1tMZ/OFE5PsH8HqwEhNeBUATSYa6Bgez4PSShvf9fj3vqqBMJOzo6fSkFo6OPr7i4dyF6HUPjXMTrTmPlgHBMXaaC4Ql3PB653ib29WBm2qTy/Ma2nsgP0h0iuLv/eLSjRgDV0dXVVVuAhu244iUJCdfG9mZnZ68GmkIVCsqRq0s4Ah9HYGN5o4LZyxWon7gjBAjhodwQUrq9uzGIFSle6CUe0W0XmlxnjTqQDwm7Qcmi7iddVzyLqnEgJJwDu62tocs9NSP/g6YID0Pd03TBq/LE342w4u/juY4/NpEQMK9vgkr37+8OwrzbThBSSnp7ug5SdwCaUGd3JxBiS49eh3AxBl2LxELhQwRcWwsOFAr3BNrQNNNSBQ5JOBluVYIHwBbv6rl9e1dGNVVCm1LoNuvUxoiwo6asp+O/rxCLO8rUxCeMAKX1pDFnCgrhMdlwZzLQgwcXcOOSsq/nwYNBLdEOBdZSUreWdgaVtE4JEPbC9FPZRixr6VOY1kNt9GumD1iQR4JaKoQMoR6ZkMrdgNh3wQx48vpm6UJiq09VX+pCT0P2H/d0dlcpaIhA2F3bEMGGQMjjngZd7vIz0KeB/iQBrypHPp0GQPc4+lK5QUtuzoWxAUb829GID+MhNEJOjMRoAaX7f/mkVl9LRKiTo6M1RV9/8gW31KQ+uHjTd42CKjKNo8XULFWieXIycxzjYSyjao6vaYErinu44I/A4DQeZTBlrNEXoU/zTbG20PSD2zJ/QW4IQ38+xIO5p7Y05/s0RKQk6R5Vdf1SyWdLr0ZXw/5mlbjqtbm2bbqxUxfPKuWF43I4NDE72MgPH1vjPG80INrPli4dBlOjIl4tM+l5Ow4TYZGyTgCK3FoWEjYuTiMJ0aPTGYOHCcIaVc2eDM2oc62SyfEtKz1zrdGEGkEL+jcVEHDJh5zjM7/jqu0ifELHxFsqOGZz2BAaoWEZMGjgzMA69MpMCiFj3GYM/2sKQgzPWNZzzhk0RYsd3oaacUAt1ewgmEj9XrPRtRQIrefwx5eoszsvUm00MSqKfsmUiW3RLmF54D0S6tUxb3/maz3/H1/PGX0LQucgQrFzT2o7IEzO8e0sCWFMoJP371+/Fx/iGDFrv7zedv78+uV/Sr1RRx3C2nNMy7LpB2eHFs8OnR2wOQYxcNSE2r+EnmlhtqynhGSPLFuzxIPd25UkoS7aP2xrGz7fhoSHXiGtHxEOCIfOjIycQULLMIO1J03O8Qt7ZZHlygx0mgJmEw+W4kPVhEdc5Q4JhxRCXHuCtrj0B5gvPQVC8/jBIgGhhR2AMotLEmqHt+FbEOKyumVM76F2ypneWFIY2FtScTChkZK3fgRCjUX5RSLTNWDD8OOZSiYyEmqKDVPe/Z0Jw7Lo1kTZSQKyxJJKFaGRGWGwlJHNpCl+f/A/UwlT56LvShjmRGWOp0lCHd9N6U7emVDg7aBqz6lL6Oe1kaCGvuec2reppfuPn3T1dMjcRCSsu5HWDcfDoTOLA8ShetivNCwP8216mv3H3d2jnV1IaL6ZcAgITUobftPht+tLn3R1gg17Tiqh880oxhC7sR1ymatfq+YnTB3x9//8F6k/73s2hYl8vXOanjD1BnLU8TxHhg5dvKu3WW+0aH7CtN2Gts1AjsNlooLj1Nkz0/yEqbUU04ocx3Vcl2ACfLMSCi0x5hLDSNgweXLi6nBVShcGuO64cw8IpedAEufVEOpVgBkPi+CzaZQajBpBWMYimHIKc4vh8+eHhy+3u7alyDBNV12Zr91/KFujrislxHSB8NbIyNDIrWkN3y5+d5lflpr+eGQxILNZe/tKpP2VdtBff3m+DQn/urISl8nTnjupYRUKnGPl7fKYsl4PT88OnTkDhEvwfHs7XrUf3B4TpsuzJBS6ZbHn3754+ctQL1++QK1DLR0ebvsQHkZFL15A2U8rRto9IqDr0fe+/2dF330H/85IDeFDfB7p++/LeDvNDAlxfs9XXl5rixQ/HJYVdTguGm5bH257uZJqQ5hp0sItaHOhwHSLtxZHQJJxaEj+8ItGoKisc5dn2BQtXJhYedl2/loowJJg8AiI4NF6XLS+Pjz8YsVOs6HDLFpYPBNjAMerV69G4MetkUBx0ZmhW2XK0xI8jyoD15cY2BCZAvmAPiG0xfPrcRGY8dqLdss6eEZFuKMBIVx7iDMCRkQo+LG4OLI4ogrOyppQs6mwrPYXvuWkpLGuta2vt/lU165FRXD42g9QS9MiqNxk9PWthKGGYN70D7DqP84EiopkLRXEzDBeSlyqG1b7yx8uR/oB9OFlAMTO9FobPFOLPvzb/7ZbqYTQM76+BVoMhY/PIh78HToLOqMWfVDW1LyP4yd0HANGvx9//PEXoeAh/P079jNtbet/V0rgOOq5lXaTB6hy+sDywMDAdKiBZXi6eHZk8dWrDy5giVI0sDxdZiRt8efoiGHORXxffJm6Hvs0alGNgn09KnJdF0WXMW/waepew1EA3kE2+KVUHNLzFtYzqbGDT4m9tkScppF6m9mTsPbmcGfP9MGnND2hkRrFsMuzMiuttQhtRg4dp3Hp7EzrEb5NJMqj0oYtXUvfaMOptZkTTAjDhSQ8cbU0HBmJYQAh5mpXE6rr+M1OqK5yE8yRihbkZNaIAMICEgZHTLyrOe6cjjBailBmgQktJiSG2EsS1rqYrUao+VyBYEDcw3wKIAyPGNU+XmsR4twBc5Sj783h7t7MmiQMvlrnBBDiF0DZ0d2/bBtG/KkZIAyySgnOqMNdalItSKjmY1I6CwP+zJTSl1qagxtPW7On0ZDQpmOKBmexHc4sqceoq+6tbTFCA2+1u4M7CgI9nQOvdGptTjnyekznyp0umpOQHpQTZeB8fOfpVCTcFQKE8YGpucIYrpUqPY1hhKvcQGg2nhDzuylf+du18+fb1v+vnSn78Tkm1lras0Jiz4v8LzqyNnV1DBPxo+AScaFi6x/cwmjU2WmRffLFm0QokYQ//fztzz9/+9MKj+8KQpDQEuJeIdqJFVluJj7iE8YjP8Mcq73XhcLVwutpjTW6iuJuElyCYc9X9p+D1O11kpDZ0A4jnqe+Ha/G23qgIY5ZYCfVTzBgpkzxnpeUAm6jvxwQhnS84YmAYQ9zoHUl5Q0JDce1p1X5c/xn6iG5TSbhCeHNhDjevYDLFORGcMUijGAin4FfAyeNaSiEMJkwPVejcSIwDaMYUfpWcHpMqFObu6bDmOdyaMck0wj3ISST9HE10cCv1WTgwkRLtkiI9yXlwvVcuUXIdYWMYjydJuERzJJL3tXMz2EXuBaA3hxxvQY3RayZFJdFcR6UuC+G3EefMAExraooRnjPJ6XDtGWivoCPLv6Sz4ZKgGMJaDBIYC+D3woXlhCXYI69qZgIZ8AwxVeiGP5+IPXmVobcT42BZrknn2hpS1fvQQLtx1ybc1yWkkvbYRHaEO/BD40xlD/HR0I33NFl42YwxVBY4XFQ9DwT6zG2xQahhfK/azSS2qRiTywStMMpGOWnq7fXqd8lm/yNLK/9+EVMCoSFtamUSFRrS0YTYdCfG2z0lWQltCEQzpxcG2JfOjNXWJs5uYSW9SfsaU40Idjw6gkmJMSanSs8nfnu5BK6bOnZs3uffpqyBtziarHxO1euXLly5cqVK1euXLly5cqVK1euXLly5cqVK1euXLly5Xrf+n9zQxz82FlTyQAAAABJRU5ErkJggg==;" parent="1" vertex="1">
          <mxGeometry x="1232" y="320.54" width="52.5" height="52.5" as="geometry" />
        </mxCell>
        <mxCell id="rsRDRYBC7Wn6B_ibloT0-61" value="&lt;font style=&quot;font-size: 10px;&quot;&gt;BI &amp;amp; Reporting&lt;/font&gt;" style="text;html=1;align=center;verticalAlign=middle;whiteSpace=wrap;rounded=0;" parent="1" vertex="1">
          <mxGeometry x="1189.5" y="378.47" width="105" height="30" as="geometry" />
        </mxCell>
        <mxCell id="rsRDRYBC7Wn6B_ibloT0-62" value="" style="shape=image;verticalLabelPosition=bottom;labelBackgroundColor=default;verticalAlign=top;aspect=fixed;imageAspect=0;image=https://cdn-icons-png.flaticon.com/128/11327/11327046.png;" parent="1" vertex="1">
          <mxGeometry x="1217.5" y="425.5" width="49" height="49" as="geometry" />
        </mxCell>
        <mxCell id="rsRDRYBC7Wn6B_ibloT0-63" value="&lt;font style=&quot;font-size: 10px;&quot;&gt;Ad-Hoc SQL Queries&lt;/font&gt;" style="text;html=1;align=center;verticalAlign=middle;whiteSpace=wrap;rounded=0;" parent="1" vertex="1">
          <mxGeometry x="1212" y="470.04" width="60" height="30" as="geometry" />
        </mxCell>
        <mxCell id="rsRDRYBC7Wn6B_ibloT0-64" value="" style="shape=image;verticalLabelPosition=bottom;labelBackgroundColor=default;verticalAlign=top;aspect=fixed;imageAspect=0;image=https://cdn-icons-png.flaticon.com/128/2103/2103832.png;" parent="1" vertex="1">
          <mxGeometry x="1218.5" y="520" width="48" height="48" as="geometry" />
        </mxCell>
        <mxCell id="rsRDRYBC7Wn6B_ibloT0-65" value="&lt;font style=&quot;font-size: 10px;&quot;&gt;Machine Learning&lt;/font&gt;" style="text;html=1;align=center;verticalAlign=middle;whiteSpace=wrap;rounded=0;" parent="1" vertex="1">
          <mxGeometry x="1197" y="568" width="90" height="30" as="geometry" />
        </mxCell>
        <mxCell id="rsRDRYBC7Wn6B_ibloT0-66" value="&lt;font style=&quot;font-size: 30px;&quot;&gt;High Level Architecture&lt;/font&gt;" style="text;html=1;align=center;verticalAlign=middle;whiteSpace=wrap;rounded=0;" parent="1" vertex="1">
          <mxGeometry x="297" y="150" width="1005" height="60" as="geometry" />
        </mxCell>
        <mxCell id="rsRDRYBC7Wn6B_ibloT0-67" value="" style="endArrow=none;html=1;rounded=0;" parent="1" edge="1">
          <mxGeometry width="50" height="50" relative="1" as="geometry">
            <mxPoint x="302" y="210" as="sourcePoint" />
            <mxPoint x="1302" y="210" as="targetPoint" />
          </mxGeometry>
        </mxCell>
      </root>
    </mxGraphModel>
  </diagram>
  <diagram id="OVfus7RIpFC7SAqpdB8F" name="data-flow">
    <mxGraphModel dx="2280" dy="1383" grid="1" gridSize="10" guides="1" tooltips="1" connect="1" arrows="1" fold="1" page="1" pageScale="1" pageWidth="1600" pageHeight="900" math="0" shadow="0">
      <root>
        <mxCell id="0" />
        <mxCell id="1" parent="0" />
        <mxCell id="EAwCHo0jrCv-MiZMrCLz-1" value="" style="rounded=0;whiteSpace=wrap;html=1;fillColor=none;dashed=1;strokeColor=light-dark(#737373, #ededed);" vertex="1" parent="1">
          <mxGeometry x="260" y="300" width="160" height="400" as="geometry" />
        </mxCell>
        <mxCell id="EAwCHo0jrCv-MiZMrCLz-2" value="&lt;font style=&quot;font-size: 14px;&quot;&gt;Sources&lt;/font&gt;" style="text;html=1;align=center;verticalAlign=middle;resizable=0;points=[];autosize=1;fillColor=default;" vertex="1" parent="1">
          <mxGeometry x="307.5" y="284" width="70" height="30" as="geometry" />
        </mxCell>
        <mxCell id="EAwCHo0jrCv-MiZMrCLz-10" value="" style="group" vertex="1" connectable="0" parent="1">
          <mxGeometry x="300.5" y="407.68" width="77" height="83.04" as="geometry" />
        </mxCell>
        <mxCell id="EAwCHo0jrCv-MiZMrCLz-3" value="" style="image;aspect=fixed;html=1;points=[];align=center;fontSize=12;image=img/lib/azure2/general/Folder_Blank.svg;" vertex="1" parent="EAwCHo0jrCv-MiZMrCLz-10">
          <mxGeometry width="61.39320920043815" height="49.83082146768896" as="geometry" />
        </mxCell>
        <mxCell id="EAwCHo0jrCv-MiZMrCLz-4" value="" style="image;aspect=fixed;html=1;points=[];align=center;fontSize=12;image=img/lib/azure2/general/File.svg;" vertex="1" parent="EAwCHo0jrCv-MiZMrCLz-10">
          <mxGeometry x="44.70967741935484" y="20.464403066812718" width="29.55969331872948" height="36.426637458926635" as="geometry" />
        </mxCell>
        <mxCell id="EAwCHo0jrCv-MiZMrCLz-5" value="&lt;b&gt;CRM&lt;/b&gt;" style="text;html=1;align=center;verticalAlign=middle;resizable=0;points=[];autosize=1;strokeColor=none;fillColor=none;" vertex="1" parent="EAwCHo0jrCv-MiZMrCLz-10">
          <mxGeometry x="2.4838709677419355" y="48.932661555312144" width="50" height="30" as="geometry" />
        </mxCell>
        <mxCell id="EAwCHo0jrCv-MiZMrCLz-11" value="" style="group" vertex="1" connectable="0" parent="1">
          <mxGeometry x="305" y="564.24" width="75" height="83.04" as="geometry" />
        </mxCell>
        <mxCell id="EAwCHo0jrCv-MiZMrCLz-6" value="" style="image;aspect=fixed;html=1;points=[];align=center;fontSize=12;image=img/lib/azure2/general/Folder_Blank.svg;" vertex="1" parent="EAwCHo0jrCv-MiZMrCLz-11">
          <mxGeometry width="61.39320920043815" height="49.83082146768896" as="geometry" />
        </mxCell>
        <mxCell id="EAwCHo0jrCv-MiZMrCLz-7" value="" style="image;aspect=fixed;html=1;points=[];align=center;fontSize=12;image=img/lib/azure2/general/File.svg;" vertex="1" parent="EAwCHo0jrCv-MiZMrCLz-11">
          <mxGeometry x="43.54838709677419" y="20.464403066812718" width="29.55969331872948" height="36.426637458926635" as="geometry" />
        </mxCell>
        <mxCell id="EAwCHo0jrCv-MiZMrCLz-8" value="&lt;b&gt;ERP&lt;/b&gt;" style="text;html=1;align=center;verticalAlign=middle;resizable=0;points=[];autosize=1;strokeColor=none;fillColor=none;" vertex="1" parent="EAwCHo0jrCv-MiZMrCLz-11">
          <mxGeometry x="2.4193548387096775" y="48.932661555312144" width="50" height="30" as="geometry" />
        </mxCell>
        <mxCell id="EAwCHo0jrCv-MiZMrCLz-12" value="&lt;b&gt;&lt;font style=&quot;font-size: 16px;&quot;&gt;Bronze Layer&lt;/font&gt;&lt;/b&gt;" style="rounded=1;whiteSpace=wrap;html=1;fillColor=#ffe6cc;strokeColor=#d79b00;" vertex="1" parent="1">
          <mxGeometry x="500" y="300" width="200" height="40" as="geometry" />
        </mxCell>
        <mxCell id="EAwCHo0jrCv-MiZMrCLz-14" value="" style="rounded=1;whiteSpace=wrap;html=1;fillColor=#ffe6cc;strokeColor=#d79b00;arcSize=6;fillStyle=hatch;" vertex="1" parent="1">
          <mxGeometry x="500" y="350" width="200" height="350" as="geometry" />
        </mxCell>
        <mxCell id="EAwCHo0jrCv-MiZMrCLz-44" style="edgeStyle=orthogonalEdgeStyle;rounded=0;orthogonalLoop=1;jettySize=auto;html=1;exitX=1;exitY=0.5;exitDx=0;exitDy=0;entryX=0;entryY=0.5;entryDx=0;entryDy=0;" edge="1" parent="1" source="EAwCHo0jrCv-MiZMrCLz-15" target="EAwCHo0jrCv-MiZMrCLz-30">
          <mxGeometry relative="1" as="geometry" />
        </mxCell>
        <mxCell id="EAwCHo0jrCv-MiZMrCLz-15" value="&lt;font style=&quot;font-size: 14px;&quot;&gt;crm_sales_details&lt;/font&gt;" style="rounded=1;whiteSpace=wrap;html=1;fillColor=#ffe6cc;strokeColor=#d79b00;" vertex="1" parent="1">
          <mxGeometry x="525" y="390.08" width="150" height="31.52" as="geometry" />
        </mxCell>
        <mxCell id="EAwCHo0jrCv-MiZMrCLz-45" style="edgeStyle=orthogonalEdgeStyle;rounded=0;orthogonalLoop=1;jettySize=auto;html=1;entryX=0;entryY=0.5;entryDx=0;entryDy=0;" edge="1" parent="1" source="EAwCHo0jrCv-MiZMrCLz-16" target="EAwCHo0jrCv-MiZMrCLz-31">
          <mxGeometry relative="1" as="geometry" />
        </mxCell>
        <mxCell id="EAwCHo0jrCv-MiZMrCLz-16" value="&lt;font style=&quot;font-size: 14px;&quot;&gt;crm_cust_info&lt;/font&gt;" style="rounded=1;whiteSpace=wrap;html=1;fillColor=#ffe6cc;strokeColor=#d79b00;" vertex="1" parent="1">
          <mxGeometry x="525" y="430.08" width="150" height="31.52" as="geometry" />
        </mxCell>
        <mxCell id="EAwCHo0jrCv-MiZMrCLz-46" style="edgeStyle=orthogonalEdgeStyle;rounded=0;orthogonalLoop=1;jettySize=auto;html=1;" edge="1" parent="1" source="EAwCHo0jrCv-MiZMrCLz-17" target="EAwCHo0jrCv-MiZMrCLz-32">
          <mxGeometry relative="1" as="geometry" />
        </mxCell>
        <mxCell id="EAwCHo0jrCv-MiZMrCLz-17" value="&lt;font style=&quot;font-size: 14px;&quot;&gt;crm_prd_info&lt;/font&gt;" style="rounded=1;whiteSpace=wrap;html=1;fillColor=#ffe6cc;strokeColor=#d79b00;" vertex="1" parent="1">
          <mxGeometry x="525" y="473.12" width="150" height="31.52" as="geometry" />
        </mxCell>
        <mxCell id="EAwCHo0jrCv-MiZMrCLz-47" style="edgeStyle=orthogonalEdgeStyle;rounded=0;orthogonalLoop=1;jettySize=auto;html=1;entryX=0;entryY=0.5;entryDx=0;entryDy=0;" edge="1" parent="1" source="EAwCHo0jrCv-MiZMrCLz-18" target="EAwCHo0jrCv-MiZMrCLz-33">
          <mxGeometry relative="1" as="geometry" />
        </mxCell>
        <mxCell id="EAwCHo0jrCv-MiZMrCLz-18" value="&lt;font style=&quot;font-size: 14px;&quot;&gt;erp_cust_az12&lt;/font&gt;" style="rounded=1;whiteSpace=wrap;html=1;fillColor=#ffe6cc;strokeColor=#d79b00;" vertex="1" parent="1">
          <mxGeometry x="525" y="550" width="150" height="31.52" as="geometry" />
        </mxCell>
        <mxCell id="EAwCHo0jrCv-MiZMrCLz-48" style="edgeStyle=orthogonalEdgeStyle;rounded=0;orthogonalLoop=1;jettySize=auto;html=1;entryX=0;entryY=0.5;entryDx=0;entryDy=0;" edge="1" parent="1" source="EAwCHo0jrCv-MiZMrCLz-19" target="EAwCHo0jrCv-MiZMrCLz-34">
          <mxGeometry relative="1" as="geometry" />
        </mxCell>
        <mxCell id="EAwCHo0jrCv-MiZMrCLz-19" value="&lt;font style=&quot;font-size: 14px;&quot;&gt;erp_loc_a101&lt;/font&gt;" style="rounded=1;whiteSpace=wrap;html=1;fillColor=#ffe6cc;strokeColor=#d79b00;" vertex="1" parent="1">
          <mxGeometry x="525" y="590" width="150" height="31.52" as="geometry" />
        </mxCell>
        <mxCell id="EAwCHo0jrCv-MiZMrCLz-49" style="edgeStyle=orthogonalEdgeStyle;rounded=0;orthogonalLoop=1;jettySize=auto;html=1;entryX=0;entryY=0.5;entryDx=0;entryDy=0;" edge="1" parent="1" source="EAwCHo0jrCv-MiZMrCLz-20" target="EAwCHo0jrCv-MiZMrCLz-35">
          <mxGeometry relative="1" as="geometry" />
        </mxCell>
        <mxCell id="EAwCHo0jrCv-MiZMrCLz-20" value="&lt;font style=&quot;font-size: 14px;&quot;&gt;erp_px_cat_g1v2&lt;/font&gt;" style="rounded=1;whiteSpace=wrap;html=1;fillColor=#ffe6cc;strokeColor=#d79b00;" vertex="1" parent="1">
          <mxGeometry x="525" y="630" width="150" height="31.52" as="geometry" />
        </mxCell>
        <mxCell id="EAwCHo0jrCv-MiZMrCLz-22" style="edgeStyle=orthogonalEdgeStyle;rounded=0;orthogonalLoop=1;jettySize=auto;html=1;entryX=0;entryY=0.5;entryDx=0;entryDy=0;" edge="1" parent="1" source="EAwCHo0jrCv-MiZMrCLz-4" target="EAwCHo0jrCv-MiZMrCLz-16">
          <mxGeometry relative="1" as="geometry" />
        </mxCell>
        <mxCell id="EAwCHo0jrCv-MiZMrCLz-23" style="edgeStyle=orthogonalEdgeStyle;rounded=0;orthogonalLoop=1;jettySize=auto;html=1;entryX=0;entryY=0.5;entryDx=0;entryDy=0;" edge="1" parent="1" source="EAwCHo0jrCv-MiZMrCLz-4" target="EAwCHo0jrCv-MiZMrCLz-15">
          <mxGeometry relative="1" as="geometry" />
        </mxCell>
        <mxCell id="EAwCHo0jrCv-MiZMrCLz-24" style="edgeStyle=orthogonalEdgeStyle;rounded=0;orthogonalLoop=1;jettySize=auto;html=1;entryX=0;entryY=0.5;entryDx=0;entryDy=0;" edge="1" parent="1" source="EAwCHo0jrCv-MiZMrCLz-4" target="EAwCHo0jrCv-MiZMrCLz-17">
          <mxGeometry relative="1" as="geometry" />
        </mxCell>
        <mxCell id="EAwCHo0jrCv-MiZMrCLz-25" style="edgeStyle=orthogonalEdgeStyle;rounded=0;orthogonalLoop=1;jettySize=auto;html=1;entryX=0;entryY=0.5;entryDx=0;entryDy=0;" edge="1" parent="1" source="EAwCHo0jrCv-MiZMrCLz-7" target="EAwCHo0jrCv-MiZMrCLz-19">
          <mxGeometry relative="1" as="geometry" />
        </mxCell>
        <mxCell id="EAwCHo0jrCv-MiZMrCLz-26" style="edgeStyle=orthogonalEdgeStyle;rounded=0;orthogonalLoop=1;jettySize=auto;html=1;entryX=0;entryY=0.5;entryDx=0;entryDy=0;" edge="1" parent="1" source="EAwCHo0jrCv-MiZMrCLz-7" target="EAwCHo0jrCv-MiZMrCLz-18">
          <mxGeometry relative="1" as="geometry" />
        </mxCell>
        <mxCell id="EAwCHo0jrCv-MiZMrCLz-27" style="edgeStyle=orthogonalEdgeStyle;rounded=0;orthogonalLoop=1;jettySize=auto;html=1;entryX=0;entryY=0.5;entryDx=0;entryDy=0;" edge="1" parent="1">
          <mxGeometry relative="1" as="geometry">
            <mxPoint x="368.3932092004379" y="602" as="sourcePoint" />
            <mxPoint x="527" y="647.76" as="targetPoint" />
            <Array as="points">
              <mxPoint x="452" y="602" />
              <mxPoint x="452" y="648" />
            </Array>
          </mxGeometry>
        </mxCell>
        <mxCell id="EAwCHo0jrCv-MiZMrCLz-28" value="&lt;b&gt;&lt;font style=&quot;font-size: 16px;&quot;&gt;Silver Layer&lt;/font&gt;&lt;/b&gt;" style="rounded=1;whiteSpace=wrap;html=1;fillColor=#f5f5f5;strokeColor=#666666;fontColor=#333333;" vertex="1" parent="1">
          <mxGeometry x="820" y="300" width="200" height="40" as="geometry" />
        </mxCell>
        <mxCell id="EAwCHo0jrCv-MiZMrCLz-29" value="" style="rounded=1;whiteSpace=wrap;html=1;fillColor=#f5f5f5;strokeColor=#666666;arcSize=6;fillStyle=hatch;fontColor=#333333;" vertex="1" parent="1">
          <mxGeometry x="820" y="350" width="200" height="350" as="geometry" />
        </mxCell>
        <mxCell id="EAwCHo0jrCv-MiZMrCLz-53" style="edgeStyle=orthogonalEdgeStyle;rounded=0;orthogonalLoop=1;jettySize=auto;html=1;entryX=0;entryY=0.5;entryDx=0;entryDy=0;" edge="1" parent="1" source="EAwCHo0jrCv-MiZMrCLz-30" target="EAwCHo0jrCv-MiZMrCLz-38">
          <mxGeometry relative="1" as="geometry" />
        </mxCell>
        <mxCell id="EAwCHo0jrCv-MiZMrCLz-30" value="&lt;font style=&quot;font-size: 14px;&quot;&gt;crm_sales_details&lt;/font&gt;" style="rounded=1;whiteSpace=wrap;html=1;fillColor=#f5f5f5;strokeColor=#666666;fontColor=#333333;" vertex="1" parent="1">
          <mxGeometry x="845" y="390.08" width="150" height="31.52" as="geometry" />
        </mxCell>
        <mxCell id="EAwCHo0jrCv-MiZMrCLz-54" style="rounded=0;orthogonalLoop=1;jettySize=auto;html=1;entryX=0;entryY=0.5;entryDx=0;entryDy=0;" edge="1" parent="1" source="EAwCHo0jrCv-MiZMrCLz-31" target="EAwCHo0jrCv-MiZMrCLz-41">
          <mxGeometry relative="1" as="geometry" />
        </mxCell>
        <mxCell id="EAwCHo0jrCv-MiZMrCLz-31" value="&lt;span style=&quot;color: rgb(0, 0, 0); font-size: 14px;&quot;&gt;crm_cust_info&lt;/span&gt;" style="rounded=1;whiteSpace=wrap;html=1;fillColor=#f5f5f5;strokeColor=#666666;fontColor=#333333;" vertex="1" parent="1">
          <mxGeometry x="845" y="430.08" width="150" height="31.52" as="geometry" />
        </mxCell>
        <mxCell id="EAwCHo0jrCv-MiZMrCLz-56" style="rounded=0;orthogonalLoop=1;jettySize=auto;html=1;entryX=0;entryY=0.5;entryDx=0;entryDy=0;" edge="1" parent="1" source="EAwCHo0jrCv-MiZMrCLz-32" target="EAwCHo0jrCv-MiZMrCLz-43">
          <mxGeometry relative="1" as="geometry" />
        </mxCell>
        <mxCell id="EAwCHo0jrCv-MiZMrCLz-32" value="&lt;span style=&quot;color: rgb(0, 0, 0); font-size: 14px;&quot;&gt;crm_prd_info&lt;/span&gt;" style="rounded=1;whiteSpace=wrap;html=1;fillColor=#f5f5f5;strokeColor=#666666;fontColor=#333333;" vertex="1" parent="1">
          <mxGeometry x="845" y="473.12" width="150" height="31.52" as="geometry" />
        </mxCell>
        <mxCell id="EAwCHo0jrCv-MiZMrCLz-55" style="rounded=0;orthogonalLoop=1;jettySize=auto;html=1;entryX=0;entryY=0.5;entryDx=0;entryDy=0;" edge="1" parent="1" source="EAwCHo0jrCv-MiZMrCLz-33" target="EAwCHo0jrCv-MiZMrCLz-41">
          <mxGeometry relative="1" as="geometry" />
        </mxCell>
        <mxCell id="EAwCHo0jrCv-MiZMrCLz-33" value="&lt;span style=&quot;color: rgb(0, 0, 0); font-size: 14px;&quot;&gt;erp_cust_az12&lt;/span&gt;" style="rounded=1;whiteSpace=wrap;html=1;fillColor=#f5f5f5;strokeColor=#666666;fontColor=#333333;" vertex="1" parent="1">
          <mxGeometry x="845" y="550" width="150" height="31.52" as="geometry" />
        </mxCell>
        <mxCell id="EAwCHo0jrCv-MiZMrCLz-58" style="rounded=0;orthogonalLoop=1;jettySize=auto;html=1;entryX=0;entryY=0.5;entryDx=0;entryDy=0;" edge="1" parent="1" source="EAwCHo0jrCv-MiZMrCLz-34" target="EAwCHo0jrCv-MiZMrCLz-41">
          <mxGeometry relative="1" as="geometry" />
        </mxCell>
        <mxCell id="EAwCHo0jrCv-MiZMrCLz-34" value="&lt;span style=&quot;color: rgb(0, 0, 0); font-size: 14px;&quot;&gt;erp_loc_a101&lt;/span&gt;" style="rounded=1;whiteSpace=wrap;html=1;fillColor=#f5f5f5;strokeColor=#666666;fontColor=#333333;" vertex="1" parent="1">
          <mxGeometry x="845" y="590" width="150" height="31.52" as="geometry" />
        </mxCell>
        <mxCell id="EAwCHo0jrCv-MiZMrCLz-57" style="rounded=0;orthogonalLoop=1;jettySize=auto;html=1;entryX=0;entryY=0.5;entryDx=0;entryDy=0;" edge="1" parent="1" source="EAwCHo0jrCv-MiZMrCLz-35" target="EAwCHo0jrCv-MiZMrCLz-43">
          <mxGeometry relative="1" as="geometry" />
        </mxCell>
        <mxCell id="EAwCHo0jrCv-MiZMrCLz-35" value="&lt;span style=&quot;color: rgb(0, 0, 0); font-size: 14px;&quot;&gt;erp_px_cat_g1v2&lt;/span&gt;" style="rounded=1;whiteSpace=wrap;html=1;fillColor=#f5f5f5;strokeColor=#666666;fontColor=#333333;" vertex="1" parent="1">
          <mxGeometry x="845" y="630" width="150" height="31.52" as="geometry" />
        </mxCell>
        <mxCell id="EAwCHo0jrCv-MiZMrCLz-36" value="&lt;b&gt;&lt;font style=&quot;font-size: 16px;&quot;&gt;Gold Layer&lt;/font&gt;&lt;/b&gt;" style="rounded=1;whiteSpace=wrap;html=1;fillColor=#fff2cc;strokeColor=#d6b656;" vertex="1" parent="1">
          <mxGeometry x="1140" y="300" width="200" height="40" as="geometry" />
        </mxCell>
        <mxCell id="EAwCHo0jrCv-MiZMrCLz-37" value="" style="rounded=1;whiteSpace=wrap;html=1;fillColor=#fff2cc;strokeColor=#d6b656;arcSize=6;fillStyle=hatch;" vertex="1" parent="1">
          <mxGeometry x="1140" y="350" width="200" height="350" as="geometry" />
        </mxCell>
        <mxCell id="EAwCHo0jrCv-MiZMrCLz-38" value="&lt;font style=&quot;font-size: 14px;&quot;&gt;fact_sales&lt;/font&gt;" style="rounded=1;whiteSpace=wrap;html=1;fillColor=#fff2cc;strokeColor=#d6b656;" vertex="1" parent="1">
          <mxGeometry x="1165" y="430.08" width="150" height="31.52" as="geometry" />
        </mxCell>
        <mxCell id="EAwCHo0jrCv-MiZMrCLz-41" value="&lt;span style=&quot;font-size: 14px;&quot;&gt;dim_customers&lt;/span&gt;" style="rounded=1;whiteSpace=wrap;html=1;fillColor=#fff2cc;strokeColor=#d6b656;" vertex="1" parent="1">
          <mxGeometry x="1165" y="508" width="150" height="31.52" as="geometry" />
        </mxCell>
        <mxCell id="EAwCHo0jrCv-MiZMrCLz-43" value="&lt;font style=&quot;font-size: 14px;&quot;&gt;dim_products&lt;/font&gt;" style="rounded=1;whiteSpace=wrap;html=1;fillColor=#fff2cc;strokeColor=#d6b656;" vertex="1" parent="1">
          <mxGeometry x="1165" y="581.52" width="150" height="31.52" as="geometry" />
        </mxCell>
        <mxCell id="EAwCHo0jrCv-MiZMrCLz-51" value="" style="endArrow=none;html=1;rounded=0;" edge="1" parent="1">
          <mxGeometry width="50" height="50" relative="1" as="geometry">
            <mxPoint x="220" y="260" as="sourcePoint" />
            <mxPoint x="1380" y="260" as="targetPoint" />
          </mxGeometry>
        </mxCell>
        <mxCell id="EAwCHo0jrCv-MiZMrCLz-52" value="&lt;font style=&quot;font-size: 30px;&quot;&gt;Data Flow ( Data Lineage)&lt;/font&gt;" style="text;html=1;align=center;verticalAlign=middle;whiteSpace=wrap;rounded=0;" vertex="1" parent="1">
          <mxGeometry x="220" y="200" width="1160" height="60" as="geometry" />
        </mxCell>
      </root>
    </mxGraphModel>
  </diagram>
  <diagram id="hgAteFfmYOu70wjzm_G1" name="data-integration">
    <mxGraphModel dx="1710" dy="1038" grid="1" gridSize="10" guides="1" tooltips="1" connect="1" arrows="1" fold="1" page="1" pageScale="1" pageWidth="1600" pageHeight="900" math="0" shadow="0">
      <root>
        <mxCell id="0" />
        <mxCell id="1" parent="0" />
        <mxCell id="A9kX7Si_xzysW-XGO4zO-9" value="" style="rounded=1;whiteSpace=wrap;html=1;arcSize=3;fillColor=none;dashed=1;" vertex="1" parent="1">
          <mxGeometry x="290" y="280" width="550" height="480" as="geometry" />
        </mxCell>
        <mxCell id="A9kX7Si_xzysW-XGO4zO-11" value="" style="rounded=1;whiteSpace=wrap;html=1;arcSize=3;fillColor=none;dashed=1;" vertex="1" parent="1">
          <mxGeometry x="1000" y="280" width="320" height="480" as="geometry" />
        </mxCell>
        <mxCell id="CFEXESMsy0sGNl1euY-S-1" value="crm_sales_details" style="swimlane;childLayout=stackLayout;horizontal=1;startSize=30;horizontalStack=0;rounded=1;fontSize=14;fontStyle=0;strokeWidth=2;resizeParent=0;resizeLast=1;shadow=0;dashed=0;align=center;arcSize=4;whiteSpace=wrap;html=1;fillColor=#dae8fc;strokeColor=#6c8ebf;" vertex="1" parent="1">
          <mxGeometry x="320" y="460" width="160" height="120" as="geometry" />
        </mxCell>
        <mxCell id="CFEXESMsy0sGNl1euY-S-2" value="prd_key&lt;div&gt;&lt;br&gt;&lt;/div&gt;&lt;div&gt;cst_id&lt;/div&gt;" style="align=left;strokeColor=none;fillColor=none;spacingLeft=4;spacingRight=4;fontSize=12;verticalAlign=top;resizable=0;rotatable=0;part=1;html=1;whiteSpace=wrap;" vertex="1" parent="CFEXESMsy0sGNl1euY-S-1">
          <mxGeometry y="30" width="160" height="60" as="geometry" />
        </mxCell>
        <mxCell id="CFEXESMsy0sGNl1euY-S-6" value="&lt;b&gt;SALES&lt;/b&gt;" style="text;html=1;strokeColor=#9673a6;fillColor=#e1d5e7;align=center;verticalAlign=middle;whiteSpace=wrap;overflow=hidden;" vertex="1" parent="CFEXESMsy0sGNl1euY-S-1">
          <mxGeometry y="90" width="160" height="30" as="geometry" />
        </mxCell>
        <mxCell id="CFEXESMsy0sGNl1euY-S-7" value="crm_prd_info" style="swimlane;childLayout=stackLayout;horizontal=1;startSize=30;horizontalStack=0;rounded=1;fontSize=14;fontStyle=0;strokeWidth=2;resizeParent=0;resizeLast=1;shadow=0;dashed=0;align=center;arcSize=4;whiteSpace=wrap;html=1;fillColor=#dae8fc;strokeColor=#6c8ebf;" vertex="1" parent="1">
          <mxGeometry x="600" y="340" width="160" height="80" as="geometry" />
        </mxCell>
        <mxCell id="CFEXESMsy0sGNl1euY-S-8" value="prd_key" style="align=left;strokeColor=none;fillColor=none;spacingLeft=4;spacingRight=4;fontSize=12;verticalAlign=top;resizable=0;rotatable=0;part=1;html=1;whiteSpace=wrap;" vertex="1" parent="CFEXESMsy0sGNl1euY-S-7">
          <mxGeometry y="30" width="160" height="30" as="geometry" />
        </mxCell>
        <mxCell id="CFEXESMsy0sGNl1euY-S-9" value="&lt;b&gt;PRODUCT&lt;/b&gt;" style="text;html=1;strokeColor=#b85450;fillColor=#f8cecc;align=center;verticalAlign=middle;whiteSpace=wrap;overflow=hidden;" vertex="1" parent="CFEXESMsy0sGNl1euY-S-7">
          <mxGeometry y="60" width="160" height="20" as="geometry" />
        </mxCell>
        <mxCell id="CFEXESMsy0sGNl1euY-S-13" value="crm_cust_info" style="swimlane;childLayout=stackLayout;horizontal=1;startSize=30;horizontalStack=0;rounded=1;fontSize=14;fontStyle=0;strokeWidth=2;resizeParent=0;resizeLast=1;shadow=0;dashed=0;align=center;arcSize=4;whiteSpace=wrap;html=1;fillColor=#dae8fc;strokeColor=#6c8ebf;" vertex="1" parent="1">
          <mxGeometry x="600" y="540" width="160" height="120" as="geometry" />
        </mxCell>
        <mxCell id="CFEXESMsy0sGNl1euY-S-14" value="cst_id&lt;div&gt;&lt;br&gt;&lt;div&gt;cst_key&lt;/div&gt;&lt;/div&gt;" style="align=left;strokeColor=none;fillColor=none;spacingLeft=4;spacingRight=4;fontSize=12;verticalAlign=top;resizable=0;rotatable=0;part=1;html=1;whiteSpace=wrap;" vertex="1" parent="CFEXESMsy0sGNl1euY-S-13">
          <mxGeometry y="30" width="160" height="60" as="geometry" />
        </mxCell>
        <mxCell id="CFEXESMsy0sGNl1euY-S-15" value="&lt;b&gt;CUSTOMER&lt;/b&gt;" style="text;html=1;strokeColor=#82b366;fillColor=#d5e8d4;align=center;verticalAlign=middle;whiteSpace=wrap;overflow=hidden;" vertex="1" parent="CFEXESMsy0sGNl1euY-S-13">
          <mxGeometry y="90" width="160" height="30" as="geometry" />
        </mxCell>
        <mxCell id="CFEXESMsy0sGNl1euY-S-16" style="edgeStyle=orthogonalEdgeStyle;rounded=0;orthogonalLoop=1;jettySize=auto;html=1;exitX=1;exitY=0.25;exitDx=0;exitDy=0;entryX=0;entryY=0.25;entryDx=0;entryDy=0;endArrow=none;startFill=0;" edge="1" parent="1" source="CFEXESMsy0sGNl1euY-S-2" target="CFEXESMsy0sGNl1euY-S-8">
          <mxGeometry relative="1" as="geometry" />
        </mxCell>
        <mxCell id="CFEXESMsy0sGNl1euY-S-17" style="edgeStyle=orthogonalEdgeStyle;rounded=0;orthogonalLoop=1;jettySize=auto;html=1;exitX=1;exitY=0.75;exitDx=0;exitDy=0;entryX=0;entryY=0.25;entryDx=0;entryDy=0;endArrow=none;startFill=0;" edge="1" parent="1" source="CFEXESMsy0sGNl1euY-S-2" target="CFEXESMsy0sGNl1euY-S-14">
          <mxGeometry relative="1" as="geometry" />
        </mxCell>
        <mxCell id="CFEXESMsy0sGNl1euY-S-18" value="erp_px_cat_g1v2" style="swimlane;childLayout=stackLayout;horizontal=1;startSize=30;horizontalStack=0;rounded=1;fontSize=14;fontStyle=0;strokeWidth=2;resizeParent=0;resizeLast=1;shadow=0;dashed=0;align=center;arcSize=4;whiteSpace=wrap;html=1;fillColor=#fff2cc;strokeColor=#d6b656;" vertex="1" parent="1">
          <mxGeometry x="1080" y="338" width="160" height="90" as="geometry" />
        </mxCell>
        <mxCell id="CFEXESMsy0sGNl1euY-S-19" value="id" style="align=left;strokeColor=none;fillColor=none;spacingLeft=4;spacingRight=4;fontSize=12;verticalAlign=top;resizable=0;rotatable=0;part=1;html=1;whiteSpace=wrap;" vertex="1" parent="CFEXESMsy0sGNl1euY-S-18">
          <mxGeometry y="30" width="160" height="40" as="geometry" />
        </mxCell>
        <mxCell id="g5E1vua8NL8ZvliB1E1r-2" style="edgeStyle=orthogonalEdgeStyle;rounded=0;orthogonalLoop=1;jettySize=auto;html=1;exitX=0.5;exitY=1;exitDx=0;exitDy=0;" edge="1" parent="CFEXESMsy0sGNl1euY-S-18" source="CFEXESMsy0sGNl1euY-S-19" target="CFEXESMsy0sGNl1euY-S-19">
          <mxGeometry relative="1" as="geometry" />
        </mxCell>
        <mxCell id="CFEXESMsy0sGNl1euY-S-20" value="&lt;b&gt;PRODUCT&lt;/b&gt;" style="text;html=1;strokeColor=#b85450;fillColor=#f8cecc;align=center;verticalAlign=middle;whiteSpace=wrap;overflow=hidden;" vertex="1" parent="CFEXESMsy0sGNl1euY-S-18">
          <mxGeometry y="70" width="160" height="20" as="geometry" />
        </mxCell>
        <mxCell id="g5E1vua8NL8ZvliB1E1r-4" value="erp_cust_az12" style="swimlane;childLayout=stackLayout;horizontal=1;startSize=30;horizontalStack=0;rounded=1;fontSize=14;fontStyle=0;strokeWidth=2;resizeParent=0;resizeLast=1;shadow=0;dashed=0;align=center;arcSize=4;whiteSpace=wrap;html=1;fillColor=#fff2cc;strokeColor=#d6b656;" vertex="1" parent="1">
          <mxGeometry x="1080" y="480" width="160" height="80" as="geometry" />
        </mxCell>
        <mxCell id="g5E1vua8NL8ZvliB1E1r-5" value="cid" style="align=left;strokeColor=none;fillColor=none;spacingLeft=4;spacingRight=4;fontSize=12;verticalAlign=top;resizable=0;rotatable=0;part=1;html=1;whiteSpace=wrap;" vertex="1" parent="g5E1vua8NL8ZvliB1E1r-4">
          <mxGeometry y="30" width="160" height="30" as="geometry" />
        </mxCell>
        <mxCell id="g5E1vua8NL8ZvliB1E1r-7" style="edgeStyle=orthogonalEdgeStyle;rounded=0;orthogonalLoop=1;jettySize=auto;html=1;exitX=0.5;exitY=1;exitDx=0;exitDy=0;" edge="1" parent="g5E1vua8NL8ZvliB1E1r-4" source="g5E1vua8NL8ZvliB1E1r-5" target="g5E1vua8NL8ZvliB1E1r-5">
          <mxGeometry relative="1" as="geometry" />
        </mxCell>
        <mxCell id="g5E1vua8NL8ZvliB1E1r-6" value="&lt;b&gt;CUSTOMER&lt;/b&gt;" style="text;html=1;strokeColor=#82b366;fillColor=#d5e8d4;align=center;verticalAlign=middle;whiteSpace=wrap;overflow=hidden;" vertex="1" parent="g5E1vua8NL8ZvliB1E1r-4">
          <mxGeometry y="60" width="160" height="20" as="geometry" />
        </mxCell>
        <mxCell id="ZQ7f5KEYlO_oDbwipPzl-1" value="erp_loc_a101" style="swimlane;childLayout=stackLayout;horizontal=1;startSize=30;horizontalStack=0;rounded=1;fontSize=14;fontStyle=0;strokeWidth=2;resizeParent=0;resizeLast=1;shadow=0;dashed=0;align=center;arcSize=4;whiteSpace=wrap;html=1;fillColor=#fff2cc;strokeColor=#d6b656;" vertex="1" parent="1">
          <mxGeometry x="1080" y="630" width="160" height="80" as="geometry" />
        </mxCell>
        <mxCell id="ZQ7f5KEYlO_oDbwipPzl-2" value="cid" style="align=left;strokeColor=none;fillColor=none;spacingLeft=4;spacingRight=4;fontSize=12;verticalAlign=top;resizable=0;rotatable=0;part=1;html=1;whiteSpace=wrap;" vertex="1" parent="ZQ7f5KEYlO_oDbwipPzl-1">
          <mxGeometry y="30" width="160" height="30" as="geometry" />
        </mxCell>
        <mxCell id="ZQ7f5KEYlO_oDbwipPzl-4" style="edgeStyle=orthogonalEdgeStyle;rounded=0;orthogonalLoop=1;jettySize=auto;html=1;exitX=0.5;exitY=1;exitDx=0;exitDy=0;" edge="1" parent="ZQ7f5KEYlO_oDbwipPzl-1" source="ZQ7f5KEYlO_oDbwipPzl-2" target="ZQ7f5KEYlO_oDbwipPzl-2">
          <mxGeometry relative="1" as="geometry" />
        </mxCell>
        <mxCell id="ZQ7f5KEYlO_oDbwipPzl-3" value="&lt;b&gt;CUSTOMER&lt;/b&gt;" style="text;html=1;strokeColor=#82b366;fillColor=#d5e8d4;align=center;verticalAlign=middle;whiteSpace=wrap;overflow=hidden;" vertex="1" parent="ZQ7f5KEYlO_oDbwipPzl-1">
          <mxGeometry y="60" width="160" height="20" as="geometry" />
        </mxCell>
        <mxCell id="A9kX7Si_xzysW-XGO4zO-2" style="edgeStyle=orthogonalEdgeStyle;rounded=0;orthogonalLoop=1;jettySize=auto;html=1;exitX=0;exitY=0.25;exitDx=0;exitDy=0;entryX=1;entryY=0.75;entryDx=0;entryDy=0;endArrow=none;startFill=0;" edge="1" parent="1" source="g5E1vua8NL8ZvliB1E1r-5" target="CFEXESMsy0sGNl1euY-S-14">
          <mxGeometry relative="1" as="geometry" />
        </mxCell>
        <mxCell id="A9kX7Si_xzysW-XGO4zO-4" value="&lt;font style=&quot;font-size: 16px;&quot;&gt;&lt;b&gt;ERP&lt;/b&gt;&lt;/font&gt;" style="rounded=1;whiteSpace=wrap;html=1;fillColor=#fff2cc;strokeColor=#d6b656;" vertex="1" parent="1">
          <mxGeometry x="1100" y="260" width="120" height="40" as="geometry" />
        </mxCell>
        <mxCell id="A9kX7Si_xzysW-XGO4zO-7" value="Transactional Records about Sales &amp;amp; Orders" style="text;html=1;align=center;verticalAlign=middle;whiteSpace=wrap;rounded=0;" vertex="1" parent="1">
          <mxGeometry x="320" y="427" width="160" height="30" as="geometry" />
        </mxCell>
        <mxCell id="A9kX7Si_xzysW-XGO4zO-8" value="Current &amp;amp; History Product Information" style="text;html=1;align=center;verticalAlign=middle;whiteSpace=wrap;rounded=0;" vertex="1" parent="1">
          <mxGeometry x="600" y="310" width="160" height="30" as="geometry" />
        </mxCell>
        <mxCell id="A9kX7Si_xzysW-XGO4zO-6" value="&lt;font style=&quot;font-size: 16px;&quot;&gt;&lt;b&gt;CRM&lt;/b&gt;&lt;/font&gt;" style="rounded=1;whiteSpace=wrap;html=1;fillColor=#dae8fc;strokeColor=#6c8ebf;" vertex="1" parent="1">
          <mxGeometry x="500" y="260" width="120" height="40" as="geometry" />
        </mxCell>
        <mxCell id="A9kX7Si_xzysW-XGO4zO-12" style="edgeStyle=orthogonalEdgeStyle;rounded=0;orthogonalLoop=1;jettySize=auto;html=1;exitX=1;exitY=0.25;exitDx=0;exitDy=0;entryX=0;entryY=0.25;entryDx=0;entryDy=0;endArrow=none;startFill=0;" edge="1" parent="1" source="CFEXESMsy0sGNl1euY-S-8" target="CFEXESMsy0sGNl1euY-S-19">
          <mxGeometry relative="1" as="geometry" />
        </mxCell>
        <mxCell id="A9kX7Si_xzysW-XGO4zO-13" value="Customer Information" style="text;html=1;align=center;verticalAlign=middle;whiteSpace=wrap;rounded=0;" vertex="1" parent="1">
          <mxGeometry x="600" y="510" width="160" height="30" as="geometry" />
        </mxCell>
        <mxCell id="A9kX7Si_xzysW-XGO4zO-14" value="Product Categories" style="text;html=1;align=center;verticalAlign=middle;whiteSpace=wrap;rounded=0;" vertex="1" parent="1">
          <mxGeometry x="1080" y="310" width="160" height="30" as="geometry" />
        </mxCell>
        <mxCell id="A9kX7Si_xzysW-XGO4zO-19" value="Additional Customer Info" style="text;html=1;align=center;verticalAlign=middle;whiteSpace=wrap;rounded=0;" vertex="1" parent="1">
          <mxGeometry x="1080" y="450" width="160" height="30" as="geometry" />
        </mxCell>
        <mxCell id="A9kX7Si_xzysW-XGO4zO-20" value="Location of Customers" style="text;html=1;align=center;verticalAlign=middle;whiteSpace=wrap;rounded=0;" vertex="1" parent="1">
          <mxGeometry x="1080" y="600" width="160" height="30" as="geometry" />
        </mxCell>
        <mxCell id="A9kX7Si_xzysW-XGO4zO-24" style="edgeStyle=orthogonalEdgeStyle;rounded=0;orthogonalLoop=1;jettySize=auto;html=1;exitX=0;exitY=0.5;exitDx=0;exitDy=0;entryX=1;entryY=0.75;entryDx=0;entryDy=0;endArrow=none;startFill=0;" edge="1" parent="1" source="ZQ7f5KEYlO_oDbwipPzl-2" target="CFEXESMsy0sGNl1euY-S-14">
          <mxGeometry relative="1" as="geometry" />
        </mxCell>
        <mxCell id="A9kX7Si_xzysW-XGO4zO-25" value="&lt;font style=&quot;font-size: 30px;&quot;&gt;&lt;b&gt;Data Integration&lt;/b&gt;&lt;/font&gt;" style="text;html=1;align=center;verticalAlign=middle;whiteSpace=wrap;rounded=0;" vertex="1" parent="1">
          <mxGeometry x="240" y="140" width="1120" height="70" as="geometry" />
        </mxCell>
        <mxCell id="A9kX7Si_xzysW-XGO4zO-27" value="" style="endArrow=none;html=1;rounded=0;" edge="1" parent="1">
          <mxGeometry width="50" height="50" relative="1" as="geometry">
            <mxPoint x="240" y="210" as="sourcePoint" />
            <mxPoint x="1360" y="210" as="targetPoint" />
          </mxGeometry>
        </mxCell>
      </root>
    </mxGraphModel>
  </diagram>
  <diagram id="WEqi2l-K1mnnRrHAYXul" name="data-model">
    <mxGraphModel dx="934" dy="710" grid="1" gridSize="10" guides="1" tooltips="1" connect="1" arrows="1" fold="1" page="1" pageScale="1" pageWidth="1600" pageHeight="900" math="0" shadow="0">
      <root>
        <mxCell id="0" />
        <mxCell id="1" parent="0" />
        <mxCell id="nIeO5wv_HtDwQbFlhmLY-1" value="gold.dim_customers" style="shape=table;startSize=30;container=1;collapsible=1;childLayout=tableLayout;fixedRows=1;rowLines=0;fontStyle=1;align=center;resizeLast=1;html=1;fillColor=#fff2cc;strokeColor=#d6b656;" parent="1" vertex="1">
          <mxGeometry x="420" y="276" width="180" height="330" as="geometry" />
        </mxCell>
        <mxCell id="nIeO5wv_HtDwQbFlhmLY-2" value="" style="shape=tableRow;horizontal=0;startSize=0;swimlaneHead=0;swimlaneBody=0;fillColor=none;collapsible=0;dropTarget=0;points=[[0,0.5],[1,0.5]];portConstraint=eastwest;top=0;left=0;right=0;bottom=1;" parent="nIeO5wv_HtDwQbFlhmLY-1" vertex="1">
          <mxGeometry y="30" width="180" height="30" as="geometry" />
        </mxCell>
        <mxCell id="nIeO5wv_HtDwQbFlhmLY-3" value="PK" style="shape=partialRectangle;connectable=0;fillColor=none;top=0;left=0;bottom=0;right=0;fontStyle=1;overflow=hidden;whiteSpace=wrap;html=1;" parent="nIeO5wv_HtDwQbFlhmLY-2" vertex="1">
          <mxGeometry width="30" height="30" as="geometry">
            <mxRectangle width="30" height="30" as="alternateBounds" />
          </mxGeometry>
        </mxCell>
        <mxCell id="nIeO5wv_HtDwQbFlhmLY-4" value="customer_key" style="shape=partialRectangle;connectable=0;fillColor=none;top=0;left=0;bottom=0;right=0;align=left;spacingLeft=6;fontStyle=5;overflow=hidden;whiteSpace=wrap;html=1;" parent="nIeO5wv_HtDwQbFlhmLY-2" vertex="1">
          <mxGeometry x="30" width="150" height="30" as="geometry">
            <mxRectangle width="150" height="30" as="alternateBounds" />
          </mxGeometry>
        </mxCell>
        <mxCell id="nIeO5wv_HtDwQbFlhmLY-5" value="" style="shape=tableRow;horizontal=0;startSize=0;swimlaneHead=0;swimlaneBody=0;fillColor=none;collapsible=0;dropTarget=0;points=[[0,0.5],[1,0.5]];portConstraint=eastwest;top=0;left=0;right=0;bottom=0;" parent="nIeO5wv_HtDwQbFlhmLY-1" vertex="1">
          <mxGeometry y="60" width="180" height="30" as="geometry" />
        </mxCell>
        <mxCell id="nIeO5wv_HtDwQbFlhmLY-6" value="" style="shape=partialRectangle;connectable=0;fillColor=none;top=0;left=0;bottom=0;right=0;editable=1;overflow=hidden;whiteSpace=wrap;html=1;" parent="nIeO5wv_HtDwQbFlhmLY-5" vertex="1">
          <mxGeometry width="30" height="30" as="geometry">
            <mxRectangle width="30" height="30" as="alternateBounds" />
          </mxGeometry>
        </mxCell>
        <mxCell id="nIeO5wv_HtDwQbFlhmLY-7" value="&lt;b&gt;customer_id&lt;/b&gt;" style="shape=partialRectangle;connectable=0;fillColor=none;top=0;left=0;bottom=0;right=0;align=left;spacingLeft=6;overflow=hidden;whiteSpace=wrap;html=1;" parent="nIeO5wv_HtDwQbFlhmLY-5" vertex="1">
          <mxGeometry x="30" width="150" height="30" as="geometry">
            <mxRectangle width="150" height="30" as="alternateBounds" />
          </mxGeometry>
        </mxCell>
        <mxCell id="nIeO5wv_HtDwQbFlhmLY-8" value="" style="shape=tableRow;horizontal=0;startSize=0;swimlaneHead=0;swimlaneBody=0;fillColor=none;collapsible=0;dropTarget=0;points=[[0,0.5],[1,0.5]];portConstraint=eastwest;top=0;left=0;right=0;bottom=0;" parent="nIeO5wv_HtDwQbFlhmLY-1" vertex="1">
          <mxGeometry y="90" width="180" height="30" as="geometry" />
        </mxCell>
        <mxCell id="nIeO5wv_HtDwQbFlhmLY-9" value="" style="shape=partialRectangle;connectable=0;fillColor=none;top=0;left=0;bottom=0;right=0;editable=1;overflow=hidden;whiteSpace=wrap;html=1;" parent="nIeO5wv_HtDwQbFlhmLY-8" vertex="1">
          <mxGeometry width="30" height="30" as="geometry">
            <mxRectangle width="30" height="30" as="alternateBounds" />
          </mxGeometry>
        </mxCell>
        <mxCell id="nIeO5wv_HtDwQbFlhmLY-10" value="&lt;b&gt;customer_number&lt;/b&gt;" style="shape=partialRectangle;connectable=0;fillColor=none;top=0;left=0;bottom=0;right=0;align=left;spacingLeft=6;overflow=hidden;whiteSpace=wrap;html=1;" parent="nIeO5wv_HtDwQbFlhmLY-8" vertex="1">
          <mxGeometry x="30" width="150" height="30" as="geometry">
            <mxRectangle width="150" height="30" as="alternateBounds" />
          </mxGeometry>
        </mxCell>
        <mxCell id="nIeO5wv_HtDwQbFlhmLY-11" value="" style="shape=tableRow;horizontal=0;startSize=0;swimlaneHead=0;swimlaneBody=0;fillColor=none;collapsible=0;dropTarget=0;points=[[0,0.5],[1,0.5]];portConstraint=eastwest;top=0;left=0;right=0;bottom=0;" parent="nIeO5wv_HtDwQbFlhmLY-1" vertex="1">
          <mxGeometry y="120" width="180" height="30" as="geometry" />
        </mxCell>
        <mxCell id="nIeO5wv_HtDwQbFlhmLY-12" value="" style="shape=partialRectangle;connectable=0;fillColor=none;top=0;left=0;bottom=0;right=0;editable=1;overflow=hidden;whiteSpace=wrap;html=1;" parent="nIeO5wv_HtDwQbFlhmLY-11" vertex="1">
          <mxGeometry width="30" height="30" as="geometry">
            <mxRectangle width="30" height="30" as="alternateBounds" />
          </mxGeometry>
        </mxCell>
        <mxCell id="nIeO5wv_HtDwQbFlhmLY-13" value="&lt;b&gt;first_name&lt;/b&gt;" style="shape=partialRectangle;connectable=0;fillColor=none;top=0;left=0;bottom=0;right=0;align=left;spacingLeft=6;overflow=hidden;whiteSpace=wrap;html=1;" parent="nIeO5wv_HtDwQbFlhmLY-11" vertex="1">
          <mxGeometry x="30" width="150" height="30" as="geometry">
            <mxRectangle width="150" height="30" as="alternateBounds" />
          </mxGeometry>
        </mxCell>
        <mxCell id="nIeO5wv_HtDwQbFlhmLY-27" style="shape=tableRow;horizontal=0;startSize=0;swimlaneHead=0;swimlaneBody=0;fillColor=none;collapsible=0;dropTarget=0;points=[[0,0.5],[1,0.5]];portConstraint=eastwest;top=0;left=0;right=0;bottom=0;" parent="nIeO5wv_HtDwQbFlhmLY-1" vertex="1">
          <mxGeometry y="150" width="180" height="30" as="geometry" />
        </mxCell>
        <mxCell id="nIeO5wv_HtDwQbFlhmLY-28" style="shape=partialRectangle;connectable=0;fillColor=none;top=0;left=0;bottom=0;right=0;editable=1;overflow=hidden;whiteSpace=wrap;html=1;" parent="nIeO5wv_HtDwQbFlhmLY-27" vertex="1">
          <mxGeometry width="30" height="30" as="geometry">
            <mxRectangle width="30" height="30" as="alternateBounds" />
          </mxGeometry>
        </mxCell>
        <mxCell id="nIeO5wv_HtDwQbFlhmLY-29" value="&lt;b&gt;last_name&lt;/b&gt;" style="shape=partialRectangle;connectable=0;fillColor=none;top=0;left=0;bottom=0;right=0;align=left;spacingLeft=6;overflow=hidden;whiteSpace=wrap;html=1;" parent="nIeO5wv_HtDwQbFlhmLY-27" vertex="1">
          <mxGeometry x="30" width="150" height="30" as="geometry">
            <mxRectangle width="150" height="30" as="alternateBounds" />
          </mxGeometry>
        </mxCell>
        <mxCell id="nIeO5wv_HtDwQbFlhmLY-30" style="shape=tableRow;horizontal=0;startSize=0;swimlaneHead=0;swimlaneBody=0;fillColor=none;collapsible=0;dropTarget=0;points=[[0,0.5],[1,0.5]];portConstraint=eastwest;top=0;left=0;right=0;bottom=0;" parent="nIeO5wv_HtDwQbFlhmLY-1" vertex="1">
          <mxGeometry y="180" width="180" height="30" as="geometry" />
        </mxCell>
        <mxCell id="nIeO5wv_HtDwQbFlhmLY-31" style="shape=partialRectangle;connectable=0;fillColor=none;top=0;left=0;bottom=0;right=0;editable=1;overflow=hidden;whiteSpace=wrap;html=1;" parent="nIeO5wv_HtDwQbFlhmLY-30" vertex="1">
          <mxGeometry width="30" height="30" as="geometry">
            <mxRectangle width="30" height="30" as="alternateBounds" />
          </mxGeometry>
        </mxCell>
        <mxCell id="nIeO5wv_HtDwQbFlhmLY-32" value="&lt;b&gt;country&lt;/b&gt;" style="shape=partialRectangle;connectable=0;fillColor=none;top=0;left=0;bottom=0;right=0;align=left;spacingLeft=6;overflow=hidden;whiteSpace=wrap;html=1;" parent="nIeO5wv_HtDwQbFlhmLY-30" vertex="1">
          <mxGeometry x="30" width="150" height="30" as="geometry">
            <mxRectangle width="150" height="30" as="alternateBounds" />
          </mxGeometry>
        </mxCell>
        <mxCell id="nIeO5wv_HtDwQbFlhmLY-33" style="shape=tableRow;horizontal=0;startSize=0;swimlaneHead=0;swimlaneBody=0;fillColor=none;collapsible=0;dropTarget=0;points=[[0,0.5],[1,0.5]];portConstraint=eastwest;top=0;left=0;right=0;bottom=0;" parent="nIeO5wv_HtDwQbFlhmLY-1" vertex="1">
          <mxGeometry y="210" width="180" height="30" as="geometry" />
        </mxCell>
        <mxCell id="nIeO5wv_HtDwQbFlhmLY-34" style="shape=partialRectangle;connectable=0;fillColor=none;top=0;left=0;bottom=0;right=0;editable=1;overflow=hidden;whiteSpace=wrap;html=1;" parent="nIeO5wv_HtDwQbFlhmLY-33" vertex="1">
          <mxGeometry width="30" height="30" as="geometry">
            <mxRectangle width="30" height="30" as="alternateBounds" />
          </mxGeometry>
        </mxCell>
        <mxCell id="nIeO5wv_HtDwQbFlhmLY-35" value="&lt;b&gt;martial_status&lt;/b&gt;" style="shape=partialRectangle;connectable=0;fillColor=none;top=0;left=0;bottom=0;right=0;align=left;spacingLeft=6;overflow=hidden;whiteSpace=wrap;html=1;" parent="nIeO5wv_HtDwQbFlhmLY-33" vertex="1">
          <mxGeometry x="30" width="150" height="30" as="geometry">
            <mxRectangle width="150" height="30" as="alternateBounds" />
          </mxGeometry>
        </mxCell>
        <mxCell id="nIeO5wv_HtDwQbFlhmLY-36" style="shape=tableRow;horizontal=0;startSize=0;swimlaneHead=0;swimlaneBody=0;fillColor=none;collapsible=0;dropTarget=0;points=[[0,0.5],[1,0.5]];portConstraint=eastwest;top=0;left=0;right=0;bottom=0;" parent="nIeO5wv_HtDwQbFlhmLY-1" vertex="1">
          <mxGeometry y="240" width="180" height="30" as="geometry" />
        </mxCell>
        <mxCell id="nIeO5wv_HtDwQbFlhmLY-37" style="shape=partialRectangle;connectable=0;fillColor=none;top=0;left=0;bottom=0;right=0;editable=1;overflow=hidden;whiteSpace=wrap;html=1;" parent="nIeO5wv_HtDwQbFlhmLY-36" vertex="1">
          <mxGeometry width="30" height="30" as="geometry">
            <mxRectangle width="30" height="30" as="alternateBounds" />
          </mxGeometry>
        </mxCell>
        <mxCell id="nIeO5wv_HtDwQbFlhmLY-38" value="&lt;b&gt;gender&lt;/b&gt;" style="shape=partialRectangle;connectable=0;fillColor=none;top=0;left=0;bottom=0;right=0;align=left;spacingLeft=6;overflow=hidden;whiteSpace=wrap;html=1;" parent="nIeO5wv_HtDwQbFlhmLY-36" vertex="1">
          <mxGeometry x="30" width="150" height="30" as="geometry">
            <mxRectangle width="150" height="30" as="alternateBounds" />
          </mxGeometry>
        </mxCell>
        <mxCell id="nIeO5wv_HtDwQbFlhmLY-39" style="shape=tableRow;horizontal=0;startSize=0;swimlaneHead=0;swimlaneBody=0;fillColor=none;collapsible=0;dropTarget=0;points=[[0,0.5],[1,0.5]];portConstraint=eastwest;top=0;left=0;right=0;bottom=0;" parent="nIeO5wv_HtDwQbFlhmLY-1" vertex="1">
          <mxGeometry y="270" width="180" height="30" as="geometry" />
        </mxCell>
        <mxCell id="nIeO5wv_HtDwQbFlhmLY-40" style="shape=partialRectangle;connectable=0;fillColor=none;top=0;left=0;bottom=0;right=0;editable=1;overflow=hidden;whiteSpace=wrap;html=1;" parent="nIeO5wv_HtDwQbFlhmLY-39" vertex="1">
          <mxGeometry width="30" height="30" as="geometry">
            <mxRectangle width="30" height="30" as="alternateBounds" />
          </mxGeometry>
        </mxCell>
        <mxCell id="nIeO5wv_HtDwQbFlhmLY-41" value="&lt;b&gt;birthdate&lt;/b&gt;" style="shape=partialRectangle;connectable=0;fillColor=none;top=0;left=0;bottom=0;right=0;align=left;spacingLeft=6;overflow=hidden;whiteSpace=wrap;html=1;" parent="nIeO5wv_HtDwQbFlhmLY-39" vertex="1">
          <mxGeometry x="30" width="150" height="30" as="geometry">
            <mxRectangle width="150" height="30" as="alternateBounds" />
          </mxGeometry>
        </mxCell>
        <mxCell id="nIeO5wv_HtDwQbFlhmLY-42" style="shape=tableRow;horizontal=0;startSize=0;swimlaneHead=0;swimlaneBody=0;fillColor=none;collapsible=0;dropTarget=0;points=[[0,0.5],[1,0.5]];portConstraint=eastwest;top=0;left=0;right=0;bottom=0;" parent="nIeO5wv_HtDwQbFlhmLY-1" vertex="1">
          <mxGeometry y="300" width="180" height="30" as="geometry" />
        </mxCell>
        <mxCell id="nIeO5wv_HtDwQbFlhmLY-43" style="shape=partialRectangle;connectable=0;fillColor=none;top=0;left=0;bottom=0;right=0;editable=1;overflow=hidden;whiteSpace=wrap;html=1;" parent="nIeO5wv_HtDwQbFlhmLY-42" vertex="1">
          <mxGeometry width="30" height="30" as="geometry">
            <mxRectangle width="30" height="30" as="alternateBounds" />
          </mxGeometry>
        </mxCell>
        <mxCell id="nIeO5wv_HtDwQbFlhmLY-44" value="&lt;b&gt;create_date&lt;/b&gt;" style="shape=partialRectangle;connectable=0;fillColor=none;top=0;left=0;bottom=0;right=0;align=left;spacingLeft=6;overflow=hidden;whiteSpace=wrap;html=1;" parent="nIeO5wv_HtDwQbFlhmLY-42" vertex="1">
          <mxGeometry x="30" width="150" height="30" as="geometry">
            <mxRectangle width="150" height="30" as="alternateBounds" />
          </mxGeometry>
        </mxCell>
        <mxCell id="nIeO5wv_HtDwQbFlhmLY-46" value="gold.dim_products" style="shape=table;startSize=30;container=1;collapsible=1;childLayout=tableLayout;fixedRows=1;rowLines=0;fontStyle=1;align=center;resizeLast=1;html=1;fillColor=#fff2cc;strokeColor=#d6b656;" parent="1" vertex="1">
          <mxGeometry x="990" y="277" width="180" height="330" as="geometry" />
        </mxCell>
        <mxCell id="nIeO5wv_HtDwQbFlhmLY-47" value="" style="shape=tableRow;horizontal=0;startSize=0;swimlaneHead=0;swimlaneBody=0;fillColor=none;collapsible=0;dropTarget=0;points=[[0,0.5],[1,0.5]];portConstraint=eastwest;top=0;left=0;right=0;bottom=1;" parent="nIeO5wv_HtDwQbFlhmLY-46" vertex="1">
          <mxGeometry y="30" width="180" height="30" as="geometry" />
        </mxCell>
        <mxCell id="nIeO5wv_HtDwQbFlhmLY-48" value="PK" style="shape=partialRectangle;connectable=0;fillColor=none;top=0;left=0;bottom=0;right=0;fontStyle=1;overflow=hidden;whiteSpace=wrap;html=1;" parent="nIeO5wv_HtDwQbFlhmLY-47" vertex="1">
          <mxGeometry width="30" height="30" as="geometry">
            <mxRectangle width="30" height="30" as="alternateBounds" />
          </mxGeometry>
        </mxCell>
        <mxCell id="nIeO5wv_HtDwQbFlhmLY-49" value="product_key" style="shape=partialRectangle;connectable=0;fillColor=none;top=0;left=0;bottom=0;right=0;align=left;spacingLeft=6;fontStyle=5;overflow=hidden;whiteSpace=wrap;html=1;" parent="nIeO5wv_HtDwQbFlhmLY-47" vertex="1">
          <mxGeometry x="30" width="150" height="30" as="geometry">
            <mxRectangle width="150" height="30" as="alternateBounds" />
          </mxGeometry>
        </mxCell>
        <mxCell id="nIeO5wv_HtDwQbFlhmLY-50" value="" style="shape=tableRow;horizontal=0;startSize=0;swimlaneHead=0;swimlaneBody=0;fillColor=none;collapsible=0;dropTarget=0;points=[[0,0.5],[1,0.5]];portConstraint=eastwest;top=0;left=0;right=0;bottom=0;" parent="nIeO5wv_HtDwQbFlhmLY-46" vertex="1">
          <mxGeometry y="60" width="180" height="30" as="geometry" />
        </mxCell>
        <mxCell id="nIeO5wv_HtDwQbFlhmLY-51" value="" style="shape=partialRectangle;connectable=0;fillColor=none;top=0;left=0;bottom=0;right=0;editable=1;overflow=hidden;whiteSpace=wrap;html=1;" parent="nIeO5wv_HtDwQbFlhmLY-50" vertex="1">
          <mxGeometry width="30" height="30" as="geometry">
            <mxRectangle width="30" height="30" as="alternateBounds" />
          </mxGeometry>
        </mxCell>
        <mxCell id="nIeO5wv_HtDwQbFlhmLY-52" value="&lt;b&gt;product_id&lt;/b&gt;" style="shape=partialRectangle;connectable=0;fillColor=none;top=0;left=0;bottom=0;right=0;align=left;spacingLeft=6;overflow=hidden;whiteSpace=wrap;html=1;" parent="nIeO5wv_HtDwQbFlhmLY-50" vertex="1">
          <mxGeometry x="30" width="150" height="30" as="geometry">
            <mxRectangle width="150" height="30" as="alternateBounds" />
          </mxGeometry>
        </mxCell>
        <mxCell id="nIeO5wv_HtDwQbFlhmLY-53" value="" style="shape=tableRow;horizontal=0;startSize=0;swimlaneHead=0;swimlaneBody=0;fillColor=none;collapsible=0;dropTarget=0;points=[[0,0.5],[1,0.5]];portConstraint=eastwest;top=0;left=0;right=0;bottom=0;" parent="nIeO5wv_HtDwQbFlhmLY-46" vertex="1">
          <mxGeometry y="90" width="180" height="30" as="geometry" />
        </mxCell>
        <mxCell id="nIeO5wv_HtDwQbFlhmLY-54" value="" style="shape=partialRectangle;connectable=0;fillColor=none;top=0;left=0;bottom=0;right=0;editable=1;overflow=hidden;whiteSpace=wrap;html=1;" parent="nIeO5wv_HtDwQbFlhmLY-53" vertex="1">
          <mxGeometry width="30" height="30" as="geometry">
            <mxRectangle width="30" height="30" as="alternateBounds" />
          </mxGeometry>
        </mxCell>
        <mxCell id="nIeO5wv_HtDwQbFlhmLY-55" value="&lt;b&gt;product_number&lt;/b&gt;" style="shape=partialRectangle;connectable=0;fillColor=none;top=0;left=0;bottom=0;right=0;align=left;spacingLeft=6;overflow=hidden;whiteSpace=wrap;html=1;" parent="nIeO5wv_HtDwQbFlhmLY-53" vertex="1">
          <mxGeometry x="30" width="150" height="30" as="geometry">
            <mxRectangle width="150" height="30" as="alternateBounds" />
          </mxGeometry>
        </mxCell>
        <mxCell id="nIeO5wv_HtDwQbFlhmLY-56" value="" style="shape=tableRow;horizontal=0;startSize=0;swimlaneHead=0;swimlaneBody=0;fillColor=none;collapsible=0;dropTarget=0;points=[[0,0.5],[1,0.5]];portConstraint=eastwest;top=0;left=0;right=0;bottom=0;" parent="nIeO5wv_HtDwQbFlhmLY-46" vertex="1">
          <mxGeometry y="120" width="180" height="30" as="geometry" />
        </mxCell>
        <mxCell id="nIeO5wv_HtDwQbFlhmLY-57" value="" style="shape=partialRectangle;connectable=0;fillColor=none;top=0;left=0;bottom=0;right=0;editable=1;overflow=hidden;whiteSpace=wrap;html=1;" parent="nIeO5wv_HtDwQbFlhmLY-56" vertex="1">
          <mxGeometry width="30" height="30" as="geometry">
            <mxRectangle width="30" height="30" as="alternateBounds" />
          </mxGeometry>
        </mxCell>
        <mxCell id="nIeO5wv_HtDwQbFlhmLY-58" value="&lt;b&gt;category_id&lt;/b&gt;" style="shape=partialRectangle;connectable=0;fillColor=none;top=0;left=0;bottom=0;right=0;align=left;spacingLeft=6;overflow=hidden;whiteSpace=wrap;html=1;" parent="nIeO5wv_HtDwQbFlhmLY-56" vertex="1">
          <mxGeometry x="30" width="150" height="30" as="geometry">
            <mxRectangle width="150" height="30" as="alternateBounds" />
          </mxGeometry>
        </mxCell>
        <mxCell id="nIeO5wv_HtDwQbFlhmLY-59" style="shape=tableRow;horizontal=0;startSize=0;swimlaneHead=0;swimlaneBody=0;fillColor=none;collapsible=0;dropTarget=0;points=[[0,0.5],[1,0.5]];portConstraint=eastwest;top=0;left=0;right=0;bottom=0;" parent="nIeO5wv_HtDwQbFlhmLY-46" vertex="1">
          <mxGeometry y="150" width="180" height="30" as="geometry" />
        </mxCell>
        <mxCell id="nIeO5wv_HtDwQbFlhmLY-60" style="shape=partialRectangle;connectable=0;fillColor=none;top=0;left=0;bottom=0;right=0;editable=1;overflow=hidden;whiteSpace=wrap;html=1;" parent="nIeO5wv_HtDwQbFlhmLY-59" vertex="1">
          <mxGeometry width="30" height="30" as="geometry">
            <mxRectangle width="30" height="30" as="alternateBounds" />
          </mxGeometry>
        </mxCell>
        <mxCell id="nIeO5wv_HtDwQbFlhmLY-61" value="&lt;b&gt;category&lt;/b&gt;" style="shape=partialRectangle;connectable=0;fillColor=none;top=0;left=0;bottom=0;right=0;align=left;spacingLeft=6;overflow=hidden;whiteSpace=wrap;html=1;" parent="nIeO5wv_HtDwQbFlhmLY-59" vertex="1">
          <mxGeometry x="30" width="150" height="30" as="geometry">
            <mxRectangle width="150" height="30" as="alternateBounds" />
          </mxGeometry>
        </mxCell>
        <mxCell id="nIeO5wv_HtDwQbFlhmLY-62" style="shape=tableRow;horizontal=0;startSize=0;swimlaneHead=0;swimlaneBody=0;fillColor=none;collapsible=0;dropTarget=0;points=[[0,0.5],[1,0.5]];portConstraint=eastwest;top=0;left=0;right=0;bottom=0;" parent="nIeO5wv_HtDwQbFlhmLY-46" vertex="1">
          <mxGeometry y="180" width="180" height="30" as="geometry" />
        </mxCell>
        <mxCell id="nIeO5wv_HtDwQbFlhmLY-63" style="shape=partialRectangle;connectable=0;fillColor=none;top=0;left=0;bottom=0;right=0;editable=1;overflow=hidden;whiteSpace=wrap;html=1;" parent="nIeO5wv_HtDwQbFlhmLY-62" vertex="1">
          <mxGeometry width="30" height="30" as="geometry">
            <mxRectangle width="30" height="30" as="alternateBounds" />
          </mxGeometry>
        </mxCell>
        <mxCell id="nIeO5wv_HtDwQbFlhmLY-64" value="&lt;b&gt;subcategory&lt;/b&gt;" style="shape=partialRectangle;connectable=0;fillColor=none;top=0;left=0;bottom=0;right=0;align=left;spacingLeft=6;overflow=hidden;whiteSpace=wrap;html=1;" parent="nIeO5wv_HtDwQbFlhmLY-62" vertex="1">
          <mxGeometry x="30" width="150" height="30" as="geometry">
            <mxRectangle width="150" height="30" as="alternateBounds" />
          </mxGeometry>
        </mxCell>
        <mxCell id="nIeO5wv_HtDwQbFlhmLY-65" style="shape=tableRow;horizontal=0;startSize=0;swimlaneHead=0;swimlaneBody=0;fillColor=none;collapsible=0;dropTarget=0;points=[[0,0.5],[1,0.5]];portConstraint=eastwest;top=0;left=0;right=0;bottom=0;" parent="nIeO5wv_HtDwQbFlhmLY-46" vertex="1">
          <mxGeometry y="210" width="180" height="30" as="geometry" />
        </mxCell>
        <mxCell id="nIeO5wv_HtDwQbFlhmLY-66" style="shape=partialRectangle;connectable=0;fillColor=none;top=0;left=0;bottom=0;right=0;editable=1;overflow=hidden;whiteSpace=wrap;html=1;" parent="nIeO5wv_HtDwQbFlhmLY-65" vertex="1">
          <mxGeometry width="30" height="30" as="geometry">
            <mxRectangle width="30" height="30" as="alternateBounds" />
          </mxGeometry>
        </mxCell>
        <mxCell id="nIeO5wv_HtDwQbFlhmLY-67" value="&lt;b&gt;maintenance&lt;/b&gt;" style="shape=partialRectangle;connectable=0;fillColor=none;top=0;left=0;bottom=0;right=0;align=left;spacingLeft=6;overflow=hidden;whiteSpace=wrap;html=1;" parent="nIeO5wv_HtDwQbFlhmLY-65" vertex="1">
          <mxGeometry x="30" width="150" height="30" as="geometry">
            <mxRectangle width="150" height="30" as="alternateBounds" />
          </mxGeometry>
        </mxCell>
        <mxCell id="nIeO5wv_HtDwQbFlhmLY-68" style="shape=tableRow;horizontal=0;startSize=0;swimlaneHead=0;swimlaneBody=0;fillColor=none;collapsible=0;dropTarget=0;points=[[0,0.5],[1,0.5]];portConstraint=eastwest;top=0;left=0;right=0;bottom=0;" parent="nIeO5wv_HtDwQbFlhmLY-46" vertex="1">
          <mxGeometry y="240" width="180" height="30" as="geometry" />
        </mxCell>
        <mxCell id="nIeO5wv_HtDwQbFlhmLY-69" style="shape=partialRectangle;connectable=0;fillColor=none;top=0;left=0;bottom=0;right=0;editable=1;overflow=hidden;whiteSpace=wrap;html=1;" parent="nIeO5wv_HtDwQbFlhmLY-68" vertex="1">
          <mxGeometry width="30" height="30" as="geometry">
            <mxRectangle width="30" height="30" as="alternateBounds" />
          </mxGeometry>
        </mxCell>
        <mxCell id="nIeO5wv_HtDwQbFlhmLY-70" value="&lt;b&gt;cost&lt;/b&gt;" style="shape=partialRectangle;connectable=0;fillColor=none;top=0;left=0;bottom=0;right=0;align=left;spacingLeft=6;overflow=hidden;whiteSpace=wrap;html=1;" parent="nIeO5wv_HtDwQbFlhmLY-68" vertex="1">
          <mxGeometry x="30" width="150" height="30" as="geometry">
            <mxRectangle width="150" height="30" as="alternateBounds" />
          </mxGeometry>
        </mxCell>
        <mxCell id="nIeO5wv_HtDwQbFlhmLY-71" style="shape=tableRow;horizontal=0;startSize=0;swimlaneHead=0;swimlaneBody=0;fillColor=none;collapsible=0;dropTarget=0;points=[[0,0.5],[1,0.5]];portConstraint=eastwest;top=0;left=0;right=0;bottom=0;" parent="nIeO5wv_HtDwQbFlhmLY-46" vertex="1">
          <mxGeometry y="270" width="180" height="30" as="geometry" />
        </mxCell>
        <mxCell id="nIeO5wv_HtDwQbFlhmLY-72" style="shape=partialRectangle;connectable=0;fillColor=none;top=0;left=0;bottom=0;right=0;editable=1;overflow=hidden;whiteSpace=wrap;html=1;" parent="nIeO5wv_HtDwQbFlhmLY-71" vertex="1">
          <mxGeometry width="30" height="30" as="geometry">
            <mxRectangle width="30" height="30" as="alternateBounds" />
          </mxGeometry>
        </mxCell>
        <mxCell id="nIeO5wv_HtDwQbFlhmLY-73" value="&lt;b&gt;product_line&lt;/b&gt;" style="shape=partialRectangle;connectable=0;fillColor=none;top=0;left=0;bottom=0;right=0;align=left;spacingLeft=6;overflow=hidden;whiteSpace=wrap;html=1;" parent="nIeO5wv_HtDwQbFlhmLY-71" vertex="1">
          <mxGeometry x="30" width="150" height="30" as="geometry">
            <mxRectangle width="150" height="30" as="alternateBounds" />
          </mxGeometry>
        </mxCell>
        <mxCell id="nIeO5wv_HtDwQbFlhmLY-74" style="shape=tableRow;horizontal=0;startSize=0;swimlaneHead=0;swimlaneBody=0;fillColor=none;collapsible=0;dropTarget=0;points=[[0,0.5],[1,0.5]];portConstraint=eastwest;top=0;left=0;right=0;bottom=0;" parent="nIeO5wv_HtDwQbFlhmLY-46" vertex="1">
          <mxGeometry y="300" width="180" height="30" as="geometry" />
        </mxCell>
        <mxCell id="nIeO5wv_HtDwQbFlhmLY-75" style="shape=partialRectangle;connectable=0;fillColor=none;top=0;left=0;bottom=0;right=0;editable=1;overflow=hidden;whiteSpace=wrap;html=1;" parent="nIeO5wv_HtDwQbFlhmLY-74" vertex="1">
          <mxGeometry width="30" height="30" as="geometry">
            <mxRectangle width="30" height="30" as="alternateBounds" />
          </mxGeometry>
        </mxCell>
        <mxCell id="nIeO5wv_HtDwQbFlhmLY-76" value="&lt;b&gt;start_date&lt;/b&gt;" style="shape=partialRectangle;connectable=0;fillColor=none;top=0;left=0;bottom=0;right=0;align=left;spacingLeft=6;overflow=hidden;whiteSpace=wrap;html=1;" parent="nIeO5wv_HtDwQbFlhmLY-74" vertex="1">
          <mxGeometry x="30" width="150" height="30" as="geometry">
            <mxRectangle width="150" height="30" as="alternateBounds" />
          </mxGeometry>
        </mxCell>
        <mxCell id="nIeO5wv_HtDwQbFlhmLY-77" value="gold.fact_sales" style="shape=table;startSize=30;container=1;collapsible=1;childLayout=tableLayout;fixedRows=1;rowLines=0;fontStyle=1;align=center;resizeLast=1;html=1;fillColor=#dae8fc;strokeColor=#6c8ebf;perimeterSpacing=0;swimlaneLine=1;" parent="1" vertex="1">
          <mxGeometry x="710" y="276" width="180" height="300" as="geometry" />
        </mxCell>
        <mxCell id="nIeO5wv_HtDwQbFlhmLY-81" value="" style="shape=tableRow;horizontal=0;startSize=0;swimlaneHead=0;swimlaneBody=0;fillColor=none;collapsible=0;dropTarget=0;points=[[0,0.5],[1,0.5]];portConstraint=eastwest;top=0;left=0;right=0;bottom=0;" parent="nIeO5wv_HtDwQbFlhmLY-77" vertex="1">
          <mxGeometry y="30" width="180" height="30" as="geometry" />
        </mxCell>
        <mxCell id="nIeO5wv_HtDwQbFlhmLY-82" value="" style="shape=partialRectangle;connectable=0;fillColor=none;top=0;left=0;bottom=0;right=0;editable=1;overflow=hidden;whiteSpace=wrap;html=1;" parent="nIeO5wv_HtDwQbFlhmLY-81" vertex="1">
          <mxGeometry width="30" height="30" as="geometry">
            <mxRectangle width="30" height="30" as="alternateBounds" />
          </mxGeometry>
        </mxCell>
        <mxCell id="nIeO5wv_HtDwQbFlhmLY-83" value="&lt;b&gt;order_number&lt;/b&gt;" style="shape=partialRectangle;connectable=0;fillColor=none;top=0;left=0;bottom=0;right=0;align=left;spacingLeft=6;overflow=hidden;whiteSpace=wrap;html=1;" parent="nIeO5wv_HtDwQbFlhmLY-81" vertex="1">
          <mxGeometry x="30" width="150" height="30" as="geometry">
            <mxRectangle width="150" height="30" as="alternateBounds" />
          </mxGeometry>
        </mxCell>
        <mxCell id="nIeO5wv_HtDwQbFlhmLY-84" value="" style="shape=tableRow;horizontal=0;startSize=0;swimlaneHead=0;swimlaneBody=0;fillColor=none;collapsible=0;dropTarget=0;points=[[0,0.5],[1,0.5]];portConstraint=eastwest;top=0;left=0;right=0;bottom=0;" parent="nIeO5wv_HtDwQbFlhmLY-77" vertex="1">
          <mxGeometry y="60" width="180" height="30" as="geometry" />
        </mxCell>
        <mxCell id="nIeO5wv_HtDwQbFlhmLY-85" value="&lt;b&gt;FK1&lt;/b&gt;" style="shape=partialRectangle;connectable=0;fillColor=none;top=0;left=0;bottom=0;right=0;editable=1;overflow=hidden;whiteSpace=wrap;html=1;" parent="nIeO5wv_HtDwQbFlhmLY-84" vertex="1">
          <mxGeometry width="30" height="30" as="geometry">
            <mxRectangle width="30" height="30" as="alternateBounds" />
          </mxGeometry>
        </mxCell>
        <mxCell id="nIeO5wv_HtDwQbFlhmLY-86" value="&lt;b style=&quot;background-color: light-dark(rgb(204, 229, 255), rgb(237, 237, 237));&quot;&gt;product_key&lt;/b&gt;" style="shape=partialRectangle;connectable=0;fillColor=none;top=0;left=0;bottom=0;right=0;align=left;spacingLeft=6;overflow=hidden;whiteSpace=wrap;html=1;" parent="nIeO5wv_HtDwQbFlhmLY-84" vertex="1">
          <mxGeometry x="30" width="150" height="30" as="geometry">
            <mxRectangle width="150" height="30" as="alternateBounds" />
          </mxGeometry>
        </mxCell>
        <mxCell id="nIeO5wv_HtDwQbFlhmLY-87" value="" style="shape=tableRow;horizontal=0;startSize=0;swimlaneHead=0;swimlaneBody=0;fillColor=none;collapsible=0;dropTarget=0;points=[[0,0.5],[1,0.5]];portConstraint=eastwest;top=0;left=0;right=0;bottom=0;" parent="nIeO5wv_HtDwQbFlhmLY-77" vertex="1">
          <mxGeometry y="90" width="180" height="30" as="geometry" />
        </mxCell>
        <mxCell id="nIeO5wv_HtDwQbFlhmLY-88" value="&lt;b&gt;FK2&lt;/b&gt;" style="shape=partialRectangle;connectable=0;fillColor=none;top=0;left=0;bottom=0;right=0;editable=1;overflow=hidden;whiteSpace=wrap;html=1;" parent="nIeO5wv_HtDwQbFlhmLY-87" vertex="1">
          <mxGeometry width="30" height="30" as="geometry">
            <mxRectangle width="30" height="30" as="alternateBounds" />
          </mxGeometry>
        </mxCell>
        <mxCell id="nIeO5wv_HtDwQbFlhmLY-89" value="&lt;b style=&quot;background-color: light-dark(rgb(204, 229, 255), rgb(237, 237, 237));&quot;&gt;customer_key&lt;/b&gt;" style="shape=partialRectangle;connectable=0;fillColor=none;top=0;left=0;bottom=0;right=0;align=left;spacingLeft=6;overflow=hidden;whiteSpace=wrap;html=1;" parent="nIeO5wv_HtDwQbFlhmLY-87" vertex="1">
          <mxGeometry x="30" width="150" height="30" as="geometry">
            <mxRectangle width="150" height="30" as="alternateBounds" />
          </mxGeometry>
        </mxCell>
        <mxCell id="nIeO5wv_HtDwQbFlhmLY-90" style="shape=tableRow;horizontal=0;startSize=0;swimlaneHead=0;swimlaneBody=0;fillColor=none;collapsible=0;dropTarget=0;points=[[0,0.5],[1,0.5]];portConstraint=eastwest;top=0;left=0;right=0;bottom=0;" parent="nIeO5wv_HtDwQbFlhmLY-77" vertex="1">
          <mxGeometry y="120" width="180" height="30" as="geometry" />
        </mxCell>
        <mxCell id="nIeO5wv_HtDwQbFlhmLY-91" style="shape=partialRectangle;connectable=0;fillColor=none;top=0;left=0;bottom=0;right=0;editable=1;overflow=hidden;whiteSpace=wrap;html=1;" parent="nIeO5wv_HtDwQbFlhmLY-90" vertex="1">
          <mxGeometry width="30" height="30" as="geometry">
            <mxRectangle width="30" height="30" as="alternateBounds" />
          </mxGeometry>
        </mxCell>
        <mxCell id="nIeO5wv_HtDwQbFlhmLY-92" value="&lt;b&gt;order_date&lt;/b&gt;" style="shape=partialRectangle;connectable=0;fillColor=none;top=0;left=0;bottom=0;right=0;align=left;spacingLeft=6;overflow=hidden;whiteSpace=wrap;html=1;" parent="nIeO5wv_HtDwQbFlhmLY-90" vertex="1">
          <mxGeometry x="30" width="150" height="30" as="geometry">
            <mxRectangle width="150" height="30" as="alternateBounds" />
          </mxGeometry>
        </mxCell>
        <mxCell id="nIeO5wv_HtDwQbFlhmLY-93" style="shape=tableRow;horizontal=0;startSize=0;swimlaneHead=0;swimlaneBody=0;fillColor=none;collapsible=0;dropTarget=0;points=[[0,0.5],[1,0.5]];portConstraint=eastwest;top=0;left=0;right=0;bottom=0;" parent="nIeO5wv_HtDwQbFlhmLY-77" vertex="1">
          <mxGeometry y="150" width="180" height="30" as="geometry" />
        </mxCell>
        <mxCell id="nIeO5wv_HtDwQbFlhmLY-94" style="shape=partialRectangle;connectable=0;fillColor=none;top=0;left=0;bottom=0;right=0;editable=1;overflow=hidden;whiteSpace=wrap;html=1;" parent="nIeO5wv_HtDwQbFlhmLY-93" vertex="1">
          <mxGeometry width="30" height="30" as="geometry">
            <mxRectangle width="30" height="30" as="alternateBounds" />
          </mxGeometry>
        </mxCell>
        <mxCell id="nIeO5wv_HtDwQbFlhmLY-95" value="&lt;b&gt;shipping_date&lt;/b&gt;" style="shape=partialRectangle;connectable=0;fillColor=none;top=0;left=0;bottom=0;right=0;align=left;spacingLeft=6;overflow=hidden;whiteSpace=wrap;html=1;" parent="nIeO5wv_HtDwQbFlhmLY-93" vertex="1">
          <mxGeometry x="30" width="150" height="30" as="geometry">
            <mxRectangle width="150" height="30" as="alternateBounds" />
          </mxGeometry>
        </mxCell>
        <mxCell id="nIeO5wv_HtDwQbFlhmLY-96" style="shape=tableRow;horizontal=0;startSize=0;swimlaneHead=0;swimlaneBody=0;fillColor=none;collapsible=0;dropTarget=0;points=[[0,0.5],[1,0.5]];portConstraint=eastwest;top=0;left=0;right=0;bottom=0;" parent="nIeO5wv_HtDwQbFlhmLY-77" vertex="1">
          <mxGeometry y="180" width="180" height="30" as="geometry" />
        </mxCell>
        <mxCell id="nIeO5wv_HtDwQbFlhmLY-97" style="shape=partialRectangle;connectable=0;fillColor=none;top=0;left=0;bottom=0;right=0;editable=1;overflow=hidden;whiteSpace=wrap;html=1;" parent="nIeO5wv_HtDwQbFlhmLY-96" vertex="1">
          <mxGeometry width="30" height="30" as="geometry">
            <mxRectangle width="30" height="30" as="alternateBounds" />
          </mxGeometry>
        </mxCell>
        <mxCell id="nIeO5wv_HtDwQbFlhmLY-98" value="&lt;b&gt;due_date&lt;/b&gt;" style="shape=partialRectangle;connectable=0;fillColor=none;top=0;left=0;bottom=0;right=0;align=left;spacingLeft=6;overflow=hidden;whiteSpace=wrap;html=1;" parent="nIeO5wv_HtDwQbFlhmLY-96" vertex="1">
          <mxGeometry x="30" width="150" height="30" as="geometry">
            <mxRectangle width="150" height="30" as="alternateBounds" />
          </mxGeometry>
        </mxCell>
        <mxCell id="nIeO5wv_HtDwQbFlhmLY-99" style="shape=tableRow;horizontal=0;startSize=0;swimlaneHead=0;swimlaneBody=0;fillColor=none;collapsible=0;dropTarget=0;points=[[0,0.5],[1,0.5]];portConstraint=eastwest;top=0;left=0;right=0;bottom=0;" parent="nIeO5wv_HtDwQbFlhmLY-77" vertex="1">
          <mxGeometry y="210" width="180" height="30" as="geometry" />
        </mxCell>
        <mxCell id="nIeO5wv_HtDwQbFlhmLY-100" style="shape=partialRectangle;connectable=0;fillColor=none;top=0;left=0;bottom=0;right=0;editable=1;overflow=hidden;whiteSpace=wrap;html=1;" parent="nIeO5wv_HtDwQbFlhmLY-99" vertex="1">
          <mxGeometry width="30" height="30" as="geometry">
            <mxRectangle width="30" height="30" as="alternateBounds" />
          </mxGeometry>
        </mxCell>
        <mxCell id="nIeO5wv_HtDwQbFlhmLY-101" value="&lt;b&gt;sales_amount&lt;/b&gt;" style="shape=partialRectangle;connectable=0;fillColor=none;top=0;left=0;bottom=0;right=0;align=left;spacingLeft=6;overflow=hidden;whiteSpace=wrap;html=1;" parent="nIeO5wv_HtDwQbFlhmLY-99" vertex="1">
          <mxGeometry x="30" width="150" height="30" as="geometry">
            <mxRectangle width="150" height="30" as="alternateBounds" />
          </mxGeometry>
        </mxCell>
        <mxCell id="nIeO5wv_HtDwQbFlhmLY-102" style="shape=tableRow;horizontal=0;startSize=0;swimlaneHead=0;swimlaneBody=0;fillColor=none;collapsible=0;dropTarget=0;points=[[0,0.5],[1,0.5]];portConstraint=eastwest;top=0;left=0;right=0;bottom=0;" parent="nIeO5wv_HtDwQbFlhmLY-77" vertex="1">
          <mxGeometry y="240" width="180" height="30" as="geometry" />
        </mxCell>
        <mxCell id="nIeO5wv_HtDwQbFlhmLY-103" style="shape=partialRectangle;connectable=0;fillColor=none;top=0;left=0;bottom=0;right=0;editable=1;overflow=hidden;whiteSpace=wrap;html=1;" parent="nIeO5wv_HtDwQbFlhmLY-102" vertex="1">
          <mxGeometry width="30" height="30" as="geometry">
            <mxRectangle width="30" height="30" as="alternateBounds" />
          </mxGeometry>
        </mxCell>
        <mxCell id="nIeO5wv_HtDwQbFlhmLY-104" value="&lt;b&gt;quantity&lt;/b&gt;" style="shape=partialRectangle;connectable=0;fillColor=none;top=0;left=0;bottom=0;right=0;align=left;spacingLeft=6;overflow=hidden;whiteSpace=wrap;html=1;" parent="nIeO5wv_HtDwQbFlhmLY-102" vertex="1">
          <mxGeometry x="30" width="150" height="30" as="geometry">
            <mxRectangle width="150" height="30" as="alternateBounds" />
          </mxGeometry>
        </mxCell>
        <mxCell id="nIeO5wv_HtDwQbFlhmLY-105" style="shape=tableRow;horizontal=0;startSize=0;swimlaneHead=0;swimlaneBody=0;fillColor=none;collapsible=0;dropTarget=0;points=[[0,0.5],[1,0.5]];portConstraint=eastwest;top=0;left=0;right=0;bottom=0;" parent="nIeO5wv_HtDwQbFlhmLY-77" vertex="1">
          <mxGeometry y="270" width="180" height="30" as="geometry" />
        </mxCell>
        <mxCell id="nIeO5wv_HtDwQbFlhmLY-106" style="shape=partialRectangle;connectable=0;fillColor=none;top=0;left=0;bottom=0;right=0;editable=1;overflow=hidden;whiteSpace=wrap;html=1;" parent="nIeO5wv_HtDwQbFlhmLY-105" vertex="1">
          <mxGeometry width="30" height="30" as="geometry">
            <mxRectangle width="30" height="30" as="alternateBounds" />
          </mxGeometry>
        </mxCell>
        <mxCell id="nIeO5wv_HtDwQbFlhmLY-107" value="&lt;b&gt;price&lt;/b&gt;" style="shape=partialRectangle;connectable=0;fillColor=none;top=0;left=0;bottom=0;right=0;align=left;spacingLeft=6;overflow=hidden;whiteSpace=wrap;html=1;" parent="nIeO5wv_HtDwQbFlhmLY-105" vertex="1">
          <mxGeometry x="30" width="150" height="30" as="geometry">
            <mxRectangle width="150" height="30" as="alternateBounds" />
          </mxGeometry>
        </mxCell>
        <mxCell id="nIeO5wv_HtDwQbFlhmLY-108" value="" style="edgeStyle=entityRelationEdgeStyle;fontSize=12;html=1;endArrow=ERzeroToMany;startArrow=ERmandOne;rounded=0;entryX=0;entryY=0.5;entryDx=0;entryDy=0;exitX=1;exitY=0.5;exitDx=0;exitDy=0;" parent="1" source="nIeO5wv_HtDwQbFlhmLY-2" edge="1">
          <mxGeometry width="100" height="100" relative="1" as="geometry">
            <mxPoint x="600" y="350" as="sourcePoint" />
            <mxPoint x="710" y="380" as="targetPoint" />
          </mxGeometry>
        </mxCell>
        <mxCell id="nIeO5wv_HtDwQbFlhmLY-112" style="edgeStyle=orthogonalEdgeStyle;rounded=0;orthogonalLoop=1;jettySize=auto;html=1;dashed=1;endArrow=none;startFill=1;startArrow=classic;" parent="1" source="nIeO5wv_HtDwQbFlhmLY-111" target="nIeO5wv_HtDwQbFlhmLY-99" edge="1">
          <mxGeometry relative="1" as="geometry" />
        </mxCell>
        <mxCell id="nIeO5wv_HtDwQbFlhmLY-111" value="&lt;b&gt;&lt;u&gt;Sales Calculation&lt;/u&gt;&lt;/b&gt;&lt;div&gt;&lt;b&gt;&lt;u&gt;&lt;br&gt;&lt;/u&gt;&lt;/b&gt;&lt;/div&gt;&lt;div&gt;Sales = Quantity * Price&lt;/div&gt;" style="text;html=1;align=center;verticalAlign=middle;whiteSpace=wrap;rounded=0;strokeColor=default;dashed=1;" parent="1" vertex="1">
          <mxGeometry x="820" y="656" width="180" height="60" as="geometry" />
        </mxCell>
        <mxCell id="nIeO5wv_HtDwQbFlhmLY-114" style="edgeStyle=orthogonalEdgeStyle;rounded=0;orthogonalLoop=1;jettySize=auto;html=1;exitX=0;exitY=0.25;exitDx=0;exitDy=0;entryX=1;entryY=0.5;entryDx=0;entryDy=0;startArrow=classic;startFill=1;endArrow=none;dashed=1;" parent="1" source="nIeO5wv_HtDwQbFlhmLY-113" target="nIeO5wv_HtDwQbFlhmLY-65" edge="1">
          <mxGeometry relative="1" as="geometry" />
        </mxCell>
        <mxCell id="nIeO5wv_HtDwQbFlhmLY-113" value="&lt;b&gt;&lt;u&gt;Maintenance&lt;/u&gt;&lt;/b&gt;&lt;div&gt;&lt;b&gt;&lt;u&gt;&lt;br&gt;&lt;/u&gt;&lt;/b&gt;&lt;/div&gt;&lt;div style=&quot;&quot;&gt;&lt;div style=&quot;text-align: left;&quot;&gt;&lt;span style=&quot;background-color: transparent; color: light-dark(rgb(0, 0, 0), rgb(255, 255, 255));&quot;&gt;- Yes&lt;/span&gt;&lt;/div&gt;&lt;span style=&quot;background-color: transparent; color: light-dark(rgb(0, 0, 0), rgb(255, 255, 255));&quot;&gt;&lt;div style=&quot;text-align: left;&quot;&gt;&lt;span style=&quot;background-color: transparent; color: light-dark(rgb(0, 0, 0), rgb(255, 255, 255));&quot;&gt;- No&lt;/span&gt;&lt;/div&gt;&lt;/span&gt;&lt;/div&gt;" style="text;html=1;align=center;verticalAlign=middle;whiteSpace=wrap;rounded=0;strokeColor=default;dashed=1;" parent="1" vertex="1">
          <mxGeometry x="1250" y="496" width="90" height="80" as="geometry" />
        </mxCell>
        <mxCell id="nIeO5wv_HtDwQbFlhmLY-116" style="edgeStyle=orthogonalEdgeStyle;rounded=0;orthogonalLoop=1;jettySize=auto;html=1;exitX=1;exitY=0.25;exitDx=0;exitDy=0;entryX=0;entryY=0.5;entryDx=0;entryDy=0;dashed=1;endArrow=none;startFill=1;startArrow=classic;" parent="1" source="nIeO5wv_HtDwQbFlhmLY-115" target="nIeO5wv_HtDwQbFlhmLY-33" edge="1">
          <mxGeometry relative="1" as="geometry">
            <Array as="points">
              <mxPoint x="385" y="529" />
              <mxPoint x="385" y="501" />
            </Array>
          </mxGeometry>
        </mxCell>
        <mxCell id="nIeO5wv_HtDwQbFlhmLY-115" value="&lt;b&gt;&lt;u&gt;Martial Statis&lt;/u&gt;&lt;/b&gt;&lt;br&gt;&lt;div&gt;&lt;br&gt;&lt;/div&gt;&lt;div style=&quot;text-align: left;&quot;&gt;- Married&lt;/div&gt;&lt;div style=&quot;text-align: left;&quot;&gt;- Single&lt;/div&gt;" style="text;html=1;align=center;verticalAlign=middle;whiteSpace=wrap;rounded=0;strokeColor=default;dashed=1;" parent="1" vertex="1">
          <mxGeometry x="250" y="506" width="100" height="90" as="geometry" />
        </mxCell>
        <mxCell id="nIeO5wv_HtDwQbFlhmLY-117" value="" style="endArrow=none;html=1;rounded=0;" parent="1" edge="1">
          <mxGeometry width="50" height="50" relative="1" as="geometry">
            <mxPoint x="220" y="245" as="sourcePoint" />
            <mxPoint x="1380" y="245" as="targetPoint" />
          </mxGeometry>
        </mxCell>
        <mxCell id="nIeO5wv_HtDwQbFlhmLY-118" value="&lt;font style=&quot;font-size: 30px;&quot;&gt;Data Mart (Star Schema)&lt;/font&gt;" style="text;html=1;align=center;verticalAlign=middle;whiteSpace=wrap;rounded=0;" parent="1" vertex="1">
          <mxGeometry x="220" y="185" width="1160" height="60" as="geometry" />
        </mxCell>
        <mxCell id="Sz9R6RI16j1eiR1zSf_m-1" value="" style="edgeStyle=entityRelationEdgeStyle;fontSize=12;html=1;endArrow=ERzeroToMany;startArrow=ERmandOne;rounded=0;exitX=1;exitY=0.5;exitDx=0;exitDy=0;entryX=0;entryY=0.5;entryDx=0;entryDy=0;" edge="1" parent="1" source="nIeO5wv_HtDwQbFlhmLY-84" target="nIeO5wv_HtDwQbFlhmLY-47">
          <mxGeometry width="100" height="100" relative="1" as="geometry">
            <mxPoint x="870" y="410" as="sourcePoint" />
            <mxPoint x="970" y="310" as="targetPoint" />
          </mxGeometry>
        </mxCell>
      </root>
    </mxGraphModel>
  </diagram>
</mxfile>
